<svg width="1600" height="1317" viewBox="0 0 1600 1317" fill="none" xmlns="http://www.w3.org/2000/svg">
<path opacity="0.1" d="M1201.11 398.156L1200.29 396.785L1335.82 318.659V190.643L1336.37 190.369L1726.78 -34.9622L1727.6 -33.5915L1337.47 191.465V319.482L1337.19 319.756L1201.11 398.156Z" fill="url(#paint0_linear_1_2333)"/>
<path opacity="0.1" d="M1376.97 168.164H1375.32V50.0163L1375.6 49.7421L1542.13 -46.4758L1542.96 -44.8311L1376.97 50.8387V168.164Z" fill="url(#paint1_linear_1_2333)"/>
<path opacity="0.1" d="M1226.9 412.959L1226.08 411.588L1358.32 335.108H1588.78L1790.7 218.604H1826.1L1826.37 218.878L1969.04 301.116L1968.21 302.487L1825.55 220.249H1790.98L1589.05 336.752H1358.87L1226.9 412.959Z" fill="url(#paint2_linear_1_2333)"/>
<path opacity="0.1" d="M1030.46 412.958L764.335 259.447H605.482V259.173L505.067 201.607V107.856H506.714V200.511L606.031 257.803H764.609H764.883L1031.28 411.587L1030.46 412.958Z" fill="url(#paint3_linear_1_2333)"/>
<path opacity="0.1" d="M1062.29 394.591L792.046 238.614V145.959L695.198 90.3118L696.021 88.9412L793.692 145.137V237.791L1063.11 393.22L1062.29 394.591Z" fill="url(#paint4_linear_1_2333)"/>
<path opacity="0.1" d="M1095.48 375.404L936.354 283.572V204.076L936.902 203.802L1212.63 44.5349L1213.45 45.9055L938 204.898V282.476L1096.3 373.759L1095.48 375.404Z" fill="url(#paint5_linear_1_2333)"/>
<path opacity="0.1" d="M238.668 728.475H238.393H238.119L130.297 666.249L131.12 664.878L238.668 726.831H482.571L658.708 625.13H804.391L1004.95 509.723L1005.77 511.094L804.94 626.775H659.257L483.12 728.475H238.668Z" fill="url(#paint6_linear_1_2333)"/>
<path opacity="0.1" d="M538.812 657.751L537.989 656.38L625.235 605.941H792.318L982.173 496.565L982.996 497.936L792.867 607.586H625.783L538.812 657.751Z" fill="url(#paint7_linear_1_2333)"/>
<path opacity="0.1" d="M895.201 548.102L756.102 467.783H656.785L592.586 504.79L591.763 503.42L656.237 466.138H756.377H756.651L896.024 546.731L895.201 548.102Z" fill="url(#paint8_linear_1_2333)"/>
<path opacity="0.1" d="M516.864 748.488L516.041 747.117L593.684 702.435V664.057H595.33V703.257L594.781 703.531L516.864 748.488Z" fill="url(#paint9_linear_1_2333)"/>
<path opacity="0.1" d="M1069.97 165.147H1006.59V163.503H1069.42L1182.46 98.5349L1183.28 99.9055L1069.97 165.147Z" fill="url(#paint10_linear_1_2333)"/>
<path opacity="0.1" d="M1066.4 357.037H1064.75V316.193L986.562 270.962V226.828H988.209V270.14L1066.67 315.37L1066.4 357.037Z" fill="url(#paint11_linear_1_2333)"/>
<path opacity="0.1" d="M1504.55 821.405L1368.19 742.731V614.441L1220.04 529.188L1220.86 527.817L1369.84 613.618V741.635L1505.37 820.035L1504.55 821.405Z" fill="url(#paint12_linear_1_2333)"/>
<path opacity="0.1" d="M1412.64 874.311L1358.59 843.061V786.591L1305.91 756.437V606.217L1196.17 542.894L1196.99 541.523L1307.56 605.12V755.341L1360.24 785.769V842.239L1413.46 872.941L1412.64 874.311Z" fill="url(#paint13_linear_1_2333)"/>
<path opacity="0.1" d="M1833.77 653.639L1790.97 628.968H1699.89L1535.82 534.395H1391.51V534.121L1301.25 482.311L1302.07 480.94L1392.06 532.75H1536.37L1700.44 627.323H1791.52L1834.6 652.268L1833.77 653.639Z" fill="url(#paint14_linear_1_2333)"/>
<path opacity="0.1" d="M1715.25 834.837L1503.73 712.851V649.254L1257.9 507.257L1258.73 505.886L1505.37 648.158V712.029L1716.08 833.466L1715.25 834.837Z" fill="url(#paint15_linear_1_2333)"/>
<path opacity="0.1" d="M1253.24 428.035L1252.42 426.665L1347.89 371.565H1614.57L1807.44 260.545L1808.26 261.915L1615.12 373.21H1348.17L1253.24 428.035Z" fill="url(#paint16_linear_1_2333)"/>
<path opacity="0.1" d="M1469.16 404.734H1468.88L1414.29 373.209L1415.11 371.839L1469.43 403.089H1616.21V404.734H1469.16Z" fill="url(#paint17_linear_1_2333)"/>
<path opacity="0.1" d="M1074.09 969.432H1072.44V880.068L859.812 757.26V658.575L860.361 658.3L1061.46 542.345L1062.29 543.716L861.459 659.671V756.437L1074.09 878.971V969.432Z" fill="url(#paint18_linear_1_2333)"/>
<path opacity="0.1" d="M1115.78 854.848L1042.53 812.633H956.109V810.988H1043.08H1043.35L1116.61 853.477L1115.78 854.848Z" fill="url(#paint19_linear_1_2333)"/>
<path opacity="0.1" d="M1090.86 560.096L1090.04 558.672L942.201 643.839L943.023 645.264L1090.86 560.096Z" fill="url(#paint20_linear_1_2333)"/>
<path opacity="0.1" d="M1250.22 859.507H1248.57V609.505L1164.62 561.259L1165.44 559.614L1250.22 608.682V859.507Z" fill="url(#paint21_linear_1_2333)"/>
<path opacity="0.1" d="M1206.6 823.323H1204.95V735.877L1205.5 735.603L1249.12 710.384L1249.94 712.028L1206.6 736.7V823.323Z" fill="url(#paint22_linear_1_2333)"/>
<path opacity="0.1" d="M1797.29 509.176L1664.77 432.695H1460.38H1460.1L1392.34 393.77H1359.96L1276.56 441.741L1275.74 440.371L1359.42 392.125H1392.89H1393.16L1460.65 431.051H1665.32L1665.6 431.325L1798.11 507.806L1797.29 509.176Z" fill="url(#paint23_linear_1_2333)"/>
<path opacity="0.1" d="M947.329 675.021H893.555V673.376H946.78L1117.7 574.691L1118.53 576.062L947.329 675.021Z" fill="url(#paint24_linear_1_2333)"/>
<path opacity="0.1" d="M1038.41 715.866L1037.59 714.496L1177.24 633.903V601.282L1136.36 577.433L1137.18 576.062L1178.89 600.185V634.725L1178.61 634.999L1038.41 715.866Z" fill="url(#paint25_linear_1_2333)"/>
<path opacity="0.1" d="M1029.09 690.648L1028.26 689.277L1091.09 653.093H1143.77V654.737H1091.37L1029.09 690.648Z" fill="url(#paint26_linear_1_2333)"/>
<path opacity="0.1" d="M1030.18 767.951L1029.36 766.58L1093.84 729.574V699.694L1094.11 699.42L1167.09 657.479V640.209H1168.73V658.301L1168.19 658.575L1095.48 700.516V730.396L1094.93 730.67L1030.18 767.951Z" fill="url(#paint27_linear_1_2333)"/>
<path opacity="0.1" d="M1023.33 693.113C1026.35 694.757 1031.01 694.757 1033.75 693.113C1036.77 691.468 1036.77 688.727 1033.75 687.082C1030.73 685.437 1026.07 685.437 1023.33 687.082C1020.58 688.727 1020.58 691.468 1023.33 693.113Z" fill="url(#paint28_linear_1_2333)"/>
<path opacity="0.1" d="M1032.65 718.06C1035.67 719.705 1040.34 719.705 1043.08 718.06C1046.1 716.415 1046.1 713.674 1043.08 712.029C1040.06 710.384 1035.4 710.384 1032.65 712.029C1029.64 713.674 1029.64 716.415 1032.65 718.06Z" fill="url(#paint29_linear_1_2333)"/>
<path opacity="0.1" d="M1182.18 703.532C1185.2 705.176 1189.86 705.176 1192.6 703.532C1195.62 701.887 1195.62 699.146 1192.6 697.501C1189.59 695.856 1184.92 695.856 1182.18 697.501C1179.16 699.146 1179.16 701.887 1182.18 703.532Z" fill="url(#paint30_linear_1_2333)"/>
<path opacity="0.1" d="M1495.77 478.201C1498.79 479.845 1503.45 479.845 1506.19 478.201C1509.21 476.556 1509.21 473.815 1506.19 472.17C1503.18 470.525 1498.51 470.525 1495.77 472.17C1493.03 473.815 1493.03 476.556 1495.77 478.201Z" fill="url(#paint31_linear_1_2333)"/>
<path opacity="0.1" d="M1431.57 447.225C1434.59 448.87 1439.25 448.87 1441.99 447.225C1445.01 445.58 1445.01 442.839 1441.99 441.194C1438.98 439.55 1434.31 439.55 1431.57 441.194C1428.82 442.839 1428.82 445.58 1431.57 447.225Z" fill="url(#paint32_linear_1_2333)"/>
<path opacity="0.1" d="M1408.8 497.389C1411.82 499.034 1416.48 499.034 1419.23 497.389C1422.24 495.744 1422.24 493.003 1419.23 491.358C1416.21 489.714 1411.54 489.714 1408.8 491.358C1406.06 493.003 1406.06 495.744 1408.8 497.389Z" fill="url(#paint33_linear_1_2333)"/>
<path opacity="0.1" d="M745.951 793.445C748.969 795.089 753.633 795.089 756.376 793.445C759.394 791.8 759.394 789.059 756.376 787.414C753.359 785.769 748.695 785.769 745.951 787.414C742.933 789.059 742.933 791.8 745.951 793.445Z" fill="url(#paint34_linear_1_2333)"/>
<path opacity="0.1" d="M1024.7 770.416C1027.71 772.061 1032.38 772.061 1035.12 770.416C1038.14 768.772 1038.14 766.03 1035.12 764.386C1032.1 762.741 1027.44 762.741 1024.7 764.386C1021.68 766.03 1021.68 768.772 1024.7 770.416Z" fill="url(#paint35_linear_1_2333)"/>
<path opacity="0.1" d="M1200.56 826.339C1203.58 827.984 1208.24 827.984 1210.99 826.339C1214 824.694 1214 821.953 1210.99 820.309C1207.97 818.664 1203.31 818.664 1200.56 820.309C1197.82 821.953 1197.82 824.694 1200.56 826.339Z" fill="url(#paint36_linear_1_2333)"/>
<path opacity="0.1" d="M888.344 677.214C891.361 678.859 896.026 678.859 898.769 677.214C901.787 675.569 901.787 672.828 898.769 671.184C895.751 669.539 891.087 669.539 888.344 671.184C885.326 672.828 885.326 675.569 888.344 677.214Z" fill="url(#paint37_linear_1_2333)"/>
<path opacity="0.1" d="M590.117 505.064C593.135 506.709 597.799 506.709 600.543 505.064C603.561 503.419 603.561 500.678 600.543 499.033C597.525 497.388 592.861 497.388 590.117 499.033C587.374 500.952 587.374 503.419 590.117 505.064Z" fill="url(#paint38_linear_1_2333)"/>
<path opacity="0.1" d="M716.321 398.704C719.339 400.348 724.003 400.348 726.747 398.704C729.765 397.059 729.765 394.318 726.747 392.673C723.729 391.028 719.065 391.028 716.321 392.673C713.578 394.318 713.578 397.059 716.321 398.704Z" fill="url(#paint39_linear_1_2333)"/>
<path opacity="0.1" d="M787.653 435.435C790.671 437.08 795.335 437.08 798.079 435.435C801.097 433.79 801.097 431.049 798.079 429.404C795.061 427.759 790.397 427.759 787.653 429.404C784.91 431.049 784.91 433.79 787.653 435.435Z" fill="url(#paint40_linear_1_2333)"/>
<path opacity="0.1" d="M856.246 377.596C859.264 379.241 863.928 379.241 866.671 377.596C869.689 375.951 869.689 373.21 866.671 371.565C863.653 369.921 858.989 369.921 856.246 371.565C853.228 373.484 853.228 375.951 856.246 377.596Z" fill="url(#paint41_linear_1_2333)"/>
<path opacity="0.1" d="M982.172 229.841C985.19 231.486 989.854 231.486 992.597 229.841C995.615 228.196 995.615 225.455 992.597 223.81C989.579 222.166 984.915 222.166 982.172 223.81C979.154 225.455 979.154 228.196 982.172 229.841Z" fill="url(#paint42_linear_1_2333)"/>
<path opacity="0.1" d="M499.303 111.694C502.321 113.339 506.985 113.339 509.729 111.694C512.747 110.049 512.747 107.308 509.729 105.663C506.711 104.018 502.047 104.018 499.303 105.663C496.286 107.308 496.286 110.049 499.303 111.694Z" fill="url(#paint43_linear_1_2333)"/>
<path opacity="0.1" d="M690.533 92.5053C693.551 94.15 698.215 94.15 700.959 92.5053C703.977 90.8605 703.977 88.1193 700.959 86.4745C697.941 84.8298 693.277 84.8298 690.533 86.4745C687.515 88.1193 687.515 90.8605 690.533 92.5053Z" fill="url(#paint44_linear_1_2333)"/>
<path opacity="0.1" d="M1069.97 239.984C1072.99 241.629 1077.65 241.629 1080.39 239.984C1083.41 238.339 1083.41 235.598 1080.39 233.953C1077.38 232.308 1072.71 232.308 1069.97 233.953C1067.22 235.598 1067.22 238.339 1069.97 239.984Z" fill="url(#paint45_linear_1_2333)"/>
<path opacity="0.1" d="M1079.85 186.257C1082.86 187.902 1087.53 187.902 1090.27 186.257C1093.29 184.612 1093.29 181.871 1090.27 180.226C1087.25 178.582 1082.59 178.582 1079.85 180.226C1076.83 181.871 1076.83 184.612 1079.85 186.257Z" fill="url(#paint46_linear_1_2333)"/>
<path opacity="0.1" d="M1231.01 122.66C1234.03 124.304 1238.69 124.304 1241.44 122.66C1244.46 121.015 1244.46 118.274 1241.44 116.629C1238.42 114.984 1233.76 114.984 1231.01 116.629C1228.27 118.274 1228.27 121.015 1231.01 122.66Z" fill="url(#paint47_linear_1_2333)"/>
<path opacity="0.1" d="M1207.97 48.3725C1210.99 50.0172 1215.65 50.0172 1218.39 48.3725C1221.41 46.7277 1221.41 43.9865 1218.39 42.3417C1215.38 40.697 1210.71 40.697 1207.97 42.3417C1204.95 43.9865 1204.95 46.7277 1207.97 48.3725Z" fill="url(#paint48_linear_1_2333)"/>
<path opacity="0.1" d="M886.149 496.84C889.167 498.485 893.831 498.485 896.575 496.84C899.593 495.196 899.593 492.454 896.575 490.809C893.557 489.165 888.893 489.165 886.149 490.809C883.406 492.454 883.406 494.921 886.149 496.84Z" fill="url(#paint49_linear_1_2333)"/>
<path opacity="0.1" d="M1238.7 318.386C1241.72 320.031 1246.38 320.031 1249.12 318.386C1252.14 316.741 1252.14 314 1249.12 312.355C1246.11 310.711 1241.44 310.711 1238.7 312.355C1235.95 314 1235.95 316.467 1238.7 318.386Z" fill="url(#paint50_linear_1_2333)"/>
<path opacity="0.1" d="M761.317 504.243C764.335 505.887 768.999 505.887 771.743 504.243C774.761 502.598 774.761 499.857 771.743 498.212C768.725 496.567 764.061 496.567 761.317 498.212C758.574 499.857 758.574 502.598 761.317 504.243Z" fill="url(#paint51_linear_1_2333)"/>
<path opacity="0.1" d="M511.376 750.954C514.394 752.599 519.058 752.599 521.801 750.954C524.819 749.31 524.819 746.568 521.801 744.924C518.783 743.279 514.119 743.279 511.376 744.924C508.358 746.568 508.358 749.036 511.376 750.954Z" fill="url(#paint52_linear_1_2333)"/>
<path opacity="0.1" d="M410.688 487.519C413.705 489.164 418.37 489.164 421.113 487.519C424.131 485.874 424.131 483.133 421.113 481.488C418.095 479.843 413.431 479.843 410.688 481.488C407.944 483.133 407.944 485.874 410.688 487.519Z" fill="url(#paint53_linear_1_2333)"/>
<path opacity="0.1" d="M533.049 658.575C536.067 660.219 540.731 660.219 543.474 658.575C546.492 656.93 546.492 654.189 543.474 652.544C540.457 650.899 535.792 650.899 533.049 652.544C530.305 654.189 530.305 656.93 533.049 658.575Z" fill="url(#paint54_linear_1_2333)"/>
<path opacity="0.1" d="M125.632 668.442C128.65 670.087 133.314 670.087 136.057 668.442C139.075 666.797 139.075 664.056 136.057 662.411C133.039 660.766 128.375 660.766 125.632 662.411C122.614 664.056 122.614 666.797 125.632 668.442Z" fill="url(#paint55_linear_1_2333)"/>
<path opacity="0.1" d="M937.452 647.882C940.47 649.527 945.134 649.527 947.878 647.882C950.896 646.237 950.896 643.496 947.878 641.851C944.86 640.207 940.196 640.207 937.452 641.851C934.709 643.496 934.709 645.963 937.452 647.882Z" fill="url(#paint56_linear_1_2333)"/>
<path opacity="0.1" d="M1249.84 665.587L1249.02 664.162L1186.99 699.914L1187.81 701.339L1249.84 665.587Z" fill="url(#paint57_linear_1_2333)"/>
<path opacity="0.1" d="M958.032 512.191H922.091L890.266 493.824L891.089 492.454L922.64 510.546H958.032V512.191Z" fill="url(#paint58_linear_1_2333)"/>
<path opacity="0.1" d="M722.085 396.237L721.262 394.867L807.958 344.702H866.945L867.22 344.976L943.765 389.11H992.052V390.755H943.216L942.942 390.481L866.671 346.347H808.507L722.085 396.237Z" fill="url(#paint59_linear_1_2333)"/>
<path opacity="0.1" d="M948.155 460.381L861.459 410.49H832.925L794.79 432.42L793.967 431.05L832.377 408.845H861.733H862.007L948.978 459.01L948.155 460.381Z" fill="url(#paint60_linear_1_2333)"/>
<path opacity="0.1" d="M925.654 445.852H924.008V411.86L860.906 375.402L861.729 374.031L925.654 410.764V445.852Z" fill="url(#paint61_linear_1_2333)"/>
<path opacity="0.1" d="M1428.28 518.221H1363.8V516.577H1427.73L1500.71 474.635L1501.53 476.006L1428.28 518.221Z" fill="url(#paint62_linear_1_2333)"/>
<path opacity="0.1" d="M419.741 959.839L418.918 958.468L640.598 830.452V749.036H641.147L1030.46 524.254L1031.28 525.624L642.244 750.133V831.274L641.97 831.548L419.741 959.839Z" fill="url(#paint63_linear_1_2333)"/>
<path opacity="0.1" d="M1436.51 445.03L1381.64 413.231H1359.69L1330.06 430.227H1296.59V428.308H1329.78L1359.14 411.587H1381.91H1382.19L1437.33 443.385L1436.51 445.03Z" fill="url(#paint64_linear_1_2333)"/>
<path opacity="0.1" d="M1178.61 384.996L1177.79 383.625L1282.32 323.318V255.061L1163.52 186.529V160.762L1163.8 160.487L1235.95 119.094L1236.78 120.465L1165.17 161.858V185.707L1283.97 253.964V324.414L1283.42 324.688L1178.61 384.996Z" fill="url(#paint65_linear_1_2333)"/>
<path opacity="0.1" d="M1203.58 370.195H1201.93V338.671L1202.21 338.396L1243.64 314.548L1244.46 315.918L1203.58 339.493V370.195Z" fill="url(#paint66_linear_1_2333)"/>
<path opacity="0.1" d="M1418.4 336.751L1417.58 335.106L1665.59 192.013V154.732L1666.14 154.458L1769.3 94.9724L1770.12 96.343L1667.24 155.554V193.109H1666.97L1418.4 336.751Z" fill="url(#paint67_linear_1_2333)"/>
<path opacity="0.1" d="M1509.49 232.585H1507.84V187.08L1508.11 186.806L1700.16 76.0593L1700.99 77.7041L1509.49 187.902V232.585Z" fill="url(#paint68_linear_1_2333)"/>
<path opacity="0.1" d="M1358.31 336.203L1357.49 334.832L1482.32 262.737V246.838L1482.87 246.564L1547.34 209.283L1548.17 210.928L1483.97 247.661V263.56L1483.69 263.834L1358.31 336.203Z" fill="url(#paint69_linear_1_2333)"/>
<path opacity="0.1" d="M751.713 791.252L750.89 789.881L824.417 747.392V699.694L860.358 679.135L861.181 680.505L826.063 700.79V748.214L825.515 748.488L751.713 791.252Z" fill="url(#paint70_linear_1_2333)"/>
<path opacity="0.1" d="M866.392 531.38H817.008L816.734 531.105L766.252 502.048L767.075 500.677L817.557 529.735H866.392V531.38Z" fill="url(#paint71_linear_1_2333)"/>
<path opacity="0.1" d="M597.25 589.769H596.975L417.546 486.15L418.369 484.779L597.524 588.124H823.594V589.769H597.25Z" fill="url(#paint72_linear_1_2333)"/>
<path opacity="0.1" d="M1150.08 367.726H1148.43V280.28L1076 238.339L1076.83 236.969L1150.08 279.184V367.726Z" fill="url(#paint73_linear_1_2333)"/>
<path opacity="0.1" d="M1149.53 316.466L1148.71 315.095L1201.38 284.667V251.224L1084.51 184.063L1085.33 182.419L1203.03 250.402V285.764H1202.75L1149.53 316.466Z" fill="url(#paint74_linear_1_2333)"/>
<path opacity="0.1" d="M1608.53 644.594L1476.56 568.661H1364.08V567.016H1476.84H1477.11L1609.35 643.223L1608.53 644.594Z" fill="url(#paint75_linear_1_2333)"/>
<path opacity="0.1" d="M1623.62 521.236L1623.34 520.962L1587.4 500.402H1459V498.758H1587.68H1587.95L1623.89 519.591H1703.18V521.236H1623.62Z" fill="url(#paint76_linear_1_2333)"/>
<path opacity="0.1" d="M1413.19 494.922L1353.38 460.382H1308.39V458.737H1353.66H1353.93L1414.01 493.551L1413.19 494.922Z" fill="url(#paint77_linear_1_2333)"/>
<path opacity="0.1" d="M674.823 964.822L674 963.451L762.069 912.738V836.531L762.617 836.257L880.865 768L881.688 769.371L763.715 837.354V913.561L763.44 913.835L674.823 964.822Z" fill="url(#paint78_linear_1_2333)"/>
<g filter="url(#filter0_f_1_2333)">
<path d="M1078.06 186.438C1081.08 188.083 1085.74 188.083 1088.48 186.438C1091.5 184.793 1091.5 182.052 1088.48 180.407C1085.47 178.762 1080.8 178.762 1078.06 180.407C1075.31 182.052 1075.31 184.793 1078.06 186.438Z" fill="url(#paint79_linear_1_2333)"/>
</g>
<path opacity="0.1" d="M1078.06 186.438C1081.08 188.083 1085.74 188.083 1088.48 186.438C1091.5 184.793 1091.5 182.052 1088.48 180.407C1085.47 178.762 1080.8 178.762 1078.06 180.407C1075.31 182.052 1075.31 184.793 1078.06 186.438Z" fill="url(#paint80_linear_1_2333)"/>
<g filter="url(#filter1_f_1_2333)">
<path d="M982.058 229.438C985.076 231.083 989.74 231.083 992.483 229.438C995.501 227.793 995.501 225.052 992.483 223.407C989.465 221.762 984.801 221.762 982.058 223.407C979.314 225.052 979.314 227.793 982.058 229.438Z" fill="url(#paint81_linear_1_2333)"/>
</g>
<path d="M982.058 229.438C985.076 231.083 989.74 231.083 992.483 229.438C995.501 227.793 995.501 225.052 992.483 223.407C989.465 221.762 984.801 221.762 982.058 223.407C979.314 225.052 979.314 227.793 982.058 229.438Z" fill="url(#paint82_linear_1_2333)"/>
<g opacity="0.1">
<g filter="url(#filter2_f_1_2333)">
<path d="M788.058 436.438C791.076 438.083 795.74 438.083 798.483 436.438C801.501 434.793 801.501 432.052 798.483 430.407C795.465 428.762 790.801 428.762 788.058 430.407C785.314 432.052 785.314 434.793 788.058 436.438Z" fill="url(#paint83_linear_1_2333)"/>
</g>
<path d="M788.058 436.438C791.076 438.083 795.74 438.083 798.483 436.438C801.501 434.793 801.501 432.052 798.483 430.407C795.465 428.762 790.801 428.762 788.058 430.407C785.314 432.052 785.314 434.793 788.058 436.438Z" fill="url(#paint84_linear_1_2333)"/>
</g>
<g opacity="0.1">
<g filter="url(#filter3_f_1_2333)">
<path d="M717.058 397.438C720.076 399.083 724.74 399.083 727.483 397.438C730.501 395.793 730.501 393.052 727.483 391.407C724.465 389.762 719.801 389.762 717.058 391.407C714.314 393.052 714.314 395.793 717.058 397.438Z" fill="url(#paint85_linear_1_2333)"/>
</g>
<path d="M717.058 397.438C720.076 399.083 724.74 399.083 727.483 397.438C730.501 395.793 730.501 393.052 727.483 391.407C724.465 389.762 719.801 389.762 717.058 391.407C714.314 393.052 714.314 395.793 717.058 397.438Z" fill="url(#paint86_linear_1_2333)"/>
</g>
<g opacity="0.1">
<g filter="url(#filter4_f_1_2333)">
<path d="M857.058 376.438C860.076 378.083 864.74 378.083 867.483 376.438C870.501 374.793 870.501 372.052 867.483 370.407C864.465 368.762 859.801 368.762 857.058 370.407C854.314 372.052 854.314 374.793 857.058 376.438Z" fill="url(#paint87_linear_1_2333)"/>
</g>
<path d="M857.058 376.438C860.076 378.083 864.74 378.083 867.483 376.438C870.501 374.793 870.501 372.052 867.483 370.407C864.465 368.762 859.801 368.762 857.058 370.407C854.314 372.052 854.314 374.793 857.058 376.438Z" fill="url(#paint88_linear_1_2333)"/>
</g>
<g opacity="0.1">
<g filter="url(#filter5_f_1_2333)">
<path d="M762.058 504.438C765.076 506.083 769.74 506.083 772.483 504.438C775.501 502.793 775.501 500.052 772.483 498.407C769.465 496.762 764.801 496.762 762.058 498.407C759.314 500.052 759.314 502.793 762.058 504.438Z" fill="url(#paint89_linear_1_2333)"/>
</g>
<path d="M762.058 504.438C765.076 506.083 769.74 506.083 772.483 504.438C775.501 502.793 775.501 500.052 772.483 498.407C769.465 496.762 764.801 496.762 762.058 498.407C759.314 500.052 759.314 502.793 762.058 504.438Z" fill="url(#paint90_linear_1_2333)"/>
</g>
<g opacity="0.1">
<g filter="url(#filter6_f_1_2333)">
<path d="M1241.06 316.438C1244.08 318.083 1248.74 318.083 1251.48 316.438C1254.5 314.793 1254.5 312.052 1251.48 310.407C1248.47 308.762 1243.8 308.762 1241.06 310.407C1238.31 312.052 1238.31 314.793 1241.06 316.438Z" fill="url(#paint91_linear_1_2333)"/>
</g>
<path d="M1241.06 316.438C1244.08 318.083 1248.74 318.083 1251.48 316.438C1254.5 314.793 1254.5 312.052 1251.48 310.407C1248.47 308.762 1243.8 308.762 1241.06 310.407C1238.31 312.052 1238.31 314.793 1241.06 316.438Z" fill="url(#paint92_linear_1_2333)"/>
</g>
<g opacity="0.1">
<g filter="url(#filter7_f_1_2333)">
<path d="M1432.06 445.438C1435.08 447.083 1439.74 447.083 1442.48 445.438C1445.5 443.793 1445.5 441.052 1442.48 439.407C1439.47 437.762 1434.8 437.762 1432.06 439.407C1429.31 441.052 1429.31 443.793 1432.06 445.438Z" fill="url(#paint93_linear_1_2333)"/>
</g>
<path d="M1432.06 445.438C1435.08 447.083 1439.74 447.083 1442.48 445.438C1445.5 443.793 1445.5 441.052 1442.48 439.407C1439.47 437.762 1434.8 437.762 1432.06 439.407C1429.31 441.052 1429.31 443.793 1432.06 445.438Z" fill="url(#paint94_linear_1_2333)"/>
</g>
<g opacity="0.1">
<g filter="url(#filter8_f_1_2333)">
<path d="M1494.06 477.438C1497.08 479.083 1501.74 479.083 1504.48 477.438C1507.5 475.793 1507.5 473.052 1504.48 471.407C1501.47 469.762 1496.8 469.762 1494.06 471.407C1491.31 473.052 1491.31 475.793 1494.06 477.438Z" fill="url(#paint95_linear_1_2333)"/>
</g>
<path d="M1494.06 477.438C1497.08 479.083 1501.74 479.083 1504.48 477.438C1507.5 475.793 1507.5 473.052 1504.48 471.407C1501.47 469.762 1496.8 469.762 1494.06 471.407C1491.31 473.052 1491.31 475.793 1494.06 477.438Z" fill="url(#paint96_linear_1_2333)"/>
</g>
<g filter="url(#filter9_f_1_2333)">
<circle cx="1154.5" cy="517.674" r="298.5" fill="#6638A3"/>
</g>
<g filter="url(#filter10_f_1_2333)">
<circle cx="212.5" cy="292.674" r="316.5" fill="#6638A3"/>
</g>
<defs>
<filter id="filter0_f_1_2333" x="1066" y="169.174" width="34.7467" height="28.4978" filterUnits="userSpaceOnUse" color-interpolation-filters="sRGB">
<feFlood flood-opacity="0" result="BackgroundImageFix"/>
<feBlend mode="normal" in="SourceGraphic" in2="BackgroundImageFix" result="shape"/>
<feGaussianBlur stdDeviation="5" result="effect1_foregroundBlur_1_2333"/>
</filter>
<filter id="filter1_f_1_2333" x="970" y="212.174" width="34.7467" height="28.4978" filterUnits="userSpaceOnUse" color-interpolation-filters="sRGB">
<feFlood flood-opacity="0" result="BackgroundImageFix"/>
<feBlend mode="normal" in="SourceGraphic" in2="BackgroundImageFix" result="shape"/>
<feGaussianBlur stdDeviation="5" result="effect1_foregroundBlur_1_2333"/>
</filter>
<filter id="filter2_f_1_2333" x="776" y="419.174" width="34.7467" height="28.4978" filterUnits="userSpaceOnUse" color-interpolation-filters="sRGB">
<feFlood flood-opacity="0" result="BackgroundImageFix"/>
<feBlend mode="normal" in="SourceGraphic" in2="BackgroundImageFix" result="shape"/>
<feGaussianBlur stdDeviation="5" result="effect1_foregroundBlur_1_2333"/>
</filter>
<filter id="filter3_f_1_2333" x="705" y="380.174" width="34.7467" height="28.4978" filterUnits="userSpaceOnUse" color-interpolation-filters="sRGB">
<feFlood flood-opacity="0" result="BackgroundImageFix"/>
<feBlend mode="normal" in="SourceGraphic" in2="BackgroundImageFix" result="shape"/>
<feGaussianBlur stdDeviation="5" result="effect1_foregroundBlur_1_2333"/>
</filter>
<filter id="filter4_f_1_2333" x="845" y="359.174" width="34.7467" height="28.4978" filterUnits="userSpaceOnUse" color-interpolation-filters="sRGB">
<feFlood flood-opacity="0" result="BackgroundImageFix"/>
<feBlend mode="normal" in="SourceGraphic" in2="BackgroundImageFix" result="shape"/>
<feGaussianBlur stdDeviation="5" result="effect1_foregroundBlur_1_2333"/>
</filter>
<filter id="filter5_f_1_2333" x="750" y="487.174" width="34.7467" height="28.4979" filterUnits="userSpaceOnUse" color-interpolation-filters="sRGB">
<feFlood flood-opacity="0" result="BackgroundImageFix"/>
<feBlend mode="normal" in="SourceGraphic" in2="BackgroundImageFix" result="shape"/>
<feGaussianBlur stdDeviation="5" result="effect1_foregroundBlur_1_2333"/>
</filter>
<filter id="filter6_f_1_2333" x="1229" y="299.174" width="34.7467" height="28.4978" filterUnits="userSpaceOnUse" color-interpolation-filters="sRGB">
<feFlood flood-opacity="0" result="BackgroundImageFix"/>
<feBlend mode="normal" in="SourceGraphic" in2="BackgroundImageFix" result="shape"/>
<feGaussianBlur stdDeviation="5" result="effect1_foregroundBlur_1_2333"/>
</filter>
<filter id="filter7_f_1_2333" x="1420" y="428.174" width="34.7467" height="28.4978" filterUnits="userSpaceOnUse" color-interpolation-filters="sRGB">
<feFlood flood-opacity="0" result="BackgroundImageFix"/>
<feBlend mode="normal" in="SourceGraphic" in2="BackgroundImageFix" result="shape"/>
<feGaussianBlur stdDeviation="5" result="effect1_foregroundBlur_1_2333"/>
</filter>
<filter id="filter8_f_1_2333" x="1482" y="460.174" width="34.7467" height="28.4979" filterUnits="userSpaceOnUse" color-interpolation-filters="sRGB">
<feFlood flood-opacity="0" result="BackgroundImageFix"/>
<feBlend mode="normal" in="SourceGraphic" in2="BackgroundImageFix" result="shape"/>
<feGaussianBlur stdDeviation="5" result="effect1_foregroundBlur_1_2333"/>
</filter>
<filter id="filter9_f_1_2333" x="356" y="-280.826" width="1597" height="1597" filterUnits="userSpaceOnUse" color-interpolation-filters="sRGB">
<feFlood flood-opacity="0" result="BackgroundImageFix"/>
<feBlend mode="normal" in="SourceGraphic" in2="BackgroundImageFix" result="shape"/>
<feGaussianBlur stdDeviation="250" result="effect1_foregroundBlur_1_2333"/>
</filter>
<filter id="filter10_f_1_2333" x="-564" y="-483.826" width="1553" height="1553" filterUnits="userSpaceOnUse" color-interpolation-filters="sRGB">
<feFlood flood-opacity="0" result="BackgroundImageFix"/>
<feBlend mode="normal" in="SourceGraphic" in2="BackgroundImageFix" result="shape"/>
<feGaussianBlur stdDeviation="230" result="effect1_foregroundBlur_1_2333"/>
</filter>
<linearGradient id="paint0_linear_1_2333" x1="1200.29" y1="185.396" x2="1742.88" y2="182.388" gradientUnits="userSpaceOnUse">
<stop stop-color="#0069DB"/>
<stop offset="1" stop-color="#00AAFE"/>
</linearGradient>
<linearGradient id="paint1_linear_1_2333" x1="1375.32" y1="62.727" x2="1547.82" y2="62.1137" gradientUnits="userSpaceOnUse">
<stop stop-color="#0069DB"/>
<stop offset="1" stop-color="#00AAFE"/>
</linearGradient>
<linearGradient id="paint2_linear_1_2333" x1="1226.08" y1="317.487" x2="1990.35" y2="304.184" gradientUnits="userSpaceOnUse">
<stop stop-color="#0069DB"/>
<stop offset="1" stop-color="#00AAFE"/>
</linearGradient>
<linearGradient id="paint3_linear_1_2333" x1="505.067" y1="263.083" x2="1046.51" y2="258.831" gradientUnits="userSpaceOnUse">
<stop stop-color="#0069DB"/>
<stop offset="1" stop-color="#00AAFE"/>
</linearGradient>
<linearGradient id="paint4_linear_1_2333" x1="695.198" y1="244.447" x2="1073.77" y2="242.372" gradientUnits="userSpaceOnUse">
<stop stop-color="#0069DB"/>
<stop offset="1" stop-color="#00AAFE"/>
</linearGradient>
<linearGradient id="paint5_linear_1_2333" x1="936.354" y1="212.872" x2="1221.49" y2="211.785" gradientUnits="userSpaceOnUse">
<stop stop-color="#0069DB"/>
<stop offset="1" stop-color="#00AAFE"/>
</linearGradient>
<linearGradient id="paint6_linear_1_2333" x1="130.297" y1="621.018" x2="1030.86" y2="604.608" gradientUnits="userSpaceOnUse">
<stop stop-color="#0069DB"/>
<stop offset="1" stop-color="#00AAFE"/>
</linearGradient>
<linearGradient id="paint7_linear_1_2333" x1="537.989" y1="578.572" x2="995.831" y2="572.817" gradientUnits="userSpaceOnUse">
<stop stop-color="#0069DB"/>
<stop offset="1" stop-color="#00AAFE"/>
</linearGradient>
<linearGradient id="paint8_linear_1_2333" x1="591.763" y1="507.839" x2="904.76" y2="502.549" gradientUnits="userSpaceOnUse">
<stop stop-color="#0069DB"/>
<stop offset="1" stop-color="#00AAFE"/>
</linearGradient>
<linearGradient id="paint9_linear_1_2333" x1="516.041" y1="707.013" x2="597.628" y2="706.664" gradientUnits="userSpaceOnUse">
<stop stop-color="#0069DB"/>
<stop offset="1" stop-color="#00AAFE"/>
</linearGradient>
<linearGradient id="paint10_linear_1_2333" x1="1006.59" y1="132.425" x2="1188.38" y2="130.23" gradientUnits="userSpaceOnUse">
<stop stop-color="#0069DB"/>
<stop offset="1" stop-color="#00AAFE"/>
</linearGradient>
<linearGradient id="paint11_linear_1_2333" x1="986.563" y1="293.075" x2="1069" y2="292.844" gradientUnits="userSpaceOnUse">
<stop stop-color="#0069DB"/>
<stop offset="1" stop-color="#00AAFE"/>
</linearGradient>
<linearGradient id="paint12_linear_1_2333" x1="1220.04" y1="677.187" x2="1513.64" y2="675.887" gradientUnits="userSpaceOnUse">
<stop stop-color="#0069DB"/>
<stop offset="1" stop-color="#00AAFE"/>
</linearGradient>
<linearGradient id="paint13_linear_1_2333" x1="1196.17" y1="710.836" x2="1419.76" y2="710.172" gradientUnits="userSpaceOnUse">
<stop stop-color="#0069DB"/>
<stop offset="1" stop-color="#00AAFE"/>
</linearGradient>
<linearGradient id="paint14_linear_1_2333" x1="1301.25" y1="568.805" x2="1849.96" y2="561.089" gradientUnits="userSpaceOnUse">
<stop stop-color="#0069DB"/>
<stop offset="1" stop-color="#00AAFE"/>
</linearGradient>
<linearGradient id="paint15_linear_1_2333" x1="1257.9" y1="673.247" x2="1729.35" y2="670.257" gradientUnits="userSpaceOnUse">
<stop stop-color="#0069DB"/>
<stop offset="1" stop-color="#00AAFE"/>
</linearGradient>
<linearGradient id="paint16_linear_1_2333" x1="1252.42" y1="345.759" x2="1824.26" y2="337.119" gradientUnits="userSpaceOnUse">
<stop stop-color="#0069DB"/>
<stop offset="1" stop-color="#00AAFE"/>
</linearGradient>
<linearGradient id="paint17_linear_1_2333" x1="1414.29" y1="388.575" x2="1621.91" y2="382.772" gradientUnits="userSpaceOnUse">
<stop stop-color="#0069DB"/>
<stop offset="1" stop-color="#00AAFE"/>
</linearGradient>
<linearGradient id="paint18_linear_1_2333" x1="859.813" y1="759.635" x2="1080.3" y2="759.132" gradientUnits="userSpaceOnUse">
<stop stop-color="#0069DB"/>
<stop offset="1" stop-color="#00AAFE"/>
</linearGradient>
<linearGradient id="paint19_linear_1_2333" x1="956.109" y1="833.303" x2="1121.22" y2="830.552" gradientUnits="userSpaceOnUse">
<stop stop-color="#0069DB"/>
<stop offset="1" stop-color="#00AAFE"/>
</linearGradient>
<linearGradient id="paint20_linear_1_2333" x1="1014.82" y1="602.003" x2="1015.67" y2="603.469" gradientUnits="userSpaceOnUse">
<stop stop-color="#0069DB"/>
<stop offset="1" stop-color="#00AAFE"/>
</linearGradient>
<linearGradient id="paint21_linear_1_2333" x1="1164.62" y1="712.191" x2="1252.7" y2="712.077" gradientUnits="userSpaceOnUse">
<stop stop-color="#0069DB"/>
<stop offset="1" stop-color="#00AAFE"/>
</linearGradient>
<linearGradient id="paint22_linear_1_2333" x1="1204.95" y1="767.844" x2="1251.25" y2="767.76" gradientUnits="userSpaceOnUse">
<stop stop-color="#0069DB"/>
<stop offset="1" stop-color="#00AAFE"/>
</linearGradient>
<linearGradient id="paint23_linear_1_2333" x1="1275.74" y1="451.677" x2="1813.04" y2="440.76" gradientUnits="userSpaceOnUse">
<stop stop-color="#0069DB"/>
<stop offset="1" stop-color="#00AAFE"/>
</linearGradient>
<linearGradient id="paint24_linear_1_2333" x1="893.555" y1="625.736" x2="1125.03" y2="623.373" gradientUnits="userSpaceOnUse">
<stop stop-color="#0069DB"/>
<stop offset="1" stop-color="#00AAFE"/>
</linearGradient>
<linearGradient id="paint25_linear_1_2333" x1="1037.59" y1="647.191" x2="1182.98" y2="646.522" gradientUnits="userSpaceOnUse">
<stop stop-color="#0069DB"/>
<stop offset="1" stop-color="#00AAFE"/>
</linearGradient>
<linearGradient id="paint26_linear_1_2333" x1="1028.26" y1="672.199" x2="1147.09" y2="670.535" gradientUnits="userSpaceOnUse">
<stop stop-color="#0069DB"/>
<stop offset="1" stop-color="#00AAFE"/>
</linearGradient>
<linearGradient id="paint27_linear_1_2333" x1="1029.36" y1="705.2" x2="1172.77" y2="704.488" gradientUnits="userSpaceOnUse">
<stop stop-color="#0069DB"/>
<stop offset="1" stop-color="#00AAFE"/>
</linearGradient>
<linearGradient id="paint28_linear_1_2333" x1="1021.27" y1="690.172" x2="1036.44" y2="690.052" gradientUnits="userSpaceOnUse">
<stop stop-color="#0069DB"/>
<stop offset="1" stop-color="#00AAFE"/>
</linearGradient>
<linearGradient id="paint29_linear_1_2333" x1="1030.39" y1="715.119" x2="1045.78" y2="714.996" gradientUnits="userSpaceOnUse">
<stop stop-color="#0069DB"/>
<stop offset="1" stop-color="#00AAFE"/>
</linearGradient>
<linearGradient id="paint30_linear_1_2333" x1="1179.91" y1="700.591" x2="1195.3" y2="700.468" gradientUnits="userSpaceOnUse">
<stop stop-color="#0069DB"/>
<stop offset="1" stop-color="#00AAFE"/>
</linearGradient>
<linearGradient id="paint31_linear_1_2333" x1="1493.71" y1="475.26" x2="1508.88" y2="475.14" gradientUnits="userSpaceOnUse">
<stop stop-color="#0069DB"/>
<stop offset="1" stop-color="#00AAFE"/>
</linearGradient>
<linearGradient id="paint32_linear_1_2333" x1="1429.51" y1="444.284" x2="1444.68" y2="444.164" gradientUnits="userSpaceOnUse">
<stop stop-color="#0069DB"/>
<stop offset="1" stop-color="#00AAFE"/>
</linearGradient>
<linearGradient id="paint33_linear_1_2333" x1="1406.74" y1="494.448" x2="1421.92" y2="494.328" gradientUnits="userSpaceOnUse">
<stop stop-color="#0069DB"/>
<stop offset="1" stop-color="#00AAFE"/>
</linearGradient>
<linearGradient id="paint34_linear_1_2333" x1="743.688" y1="790.504" x2="759.073" y2="790.381" gradientUnits="userSpaceOnUse">
<stop stop-color="#0069DB"/>
<stop offset="1" stop-color="#00AAFE"/>
</linearGradient>
<linearGradient id="paint35_linear_1_2333" x1="1022.43" y1="767.476" x2="1037.82" y2="767.352" gradientUnits="userSpaceOnUse">
<stop stop-color="#0069DB"/>
<stop offset="1" stop-color="#00AAFE"/>
</linearGradient>
<linearGradient id="paint36_linear_1_2333" x1="1198.5" y1="823.398" x2="1213.68" y2="823.279" gradientUnits="userSpaceOnUse">
<stop stop-color="#0069DB"/>
<stop offset="1" stop-color="#00AAFE"/>
</linearGradient>
<linearGradient id="paint37_linear_1_2333" x1="886.08" y1="674.273" x2="901.465" y2="674.15" gradientUnits="userSpaceOnUse">
<stop stop-color="#0069DB"/>
<stop offset="1" stop-color="#00AAFE"/>
</linearGradient>
<linearGradient id="paint38_linear_1_2333" x1="588.06" y1="502.123" x2="603.233" y2="502.003" gradientUnits="userSpaceOnUse">
<stop stop-color="#0069DB"/>
<stop offset="1" stop-color="#00AAFE"/>
</linearGradient>
<linearGradient id="paint39_linear_1_2333" x1="714.264" y1="395.763" x2="729.437" y2="395.643" gradientUnits="userSpaceOnUse">
<stop stop-color="#0069DB"/>
<stop offset="1" stop-color="#00AAFE"/>
</linearGradient>
<linearGradient id="paint40_linear_1_2333" x1="785.596" y1="432.494" x2="800.769" y2="432.374" gradientUnits="userSpaceOnUse">
<stop stop-color="#0069DB"/>
<stop offset="1" stop-color="#00AAFE"/>
</linearGradient>
<linearGradient id="paint41_linear_1_2333" x1="853.982" y1="374.655" x2="869.368" y2="374.532" gradientUnits="userSpaceOnUse">
<stop stop-color="#0069DB"/>
<stop offset="1" stop-color="#00AAFE"/>
</linearGradient>
<linearGradient id="paint42_linear_1_2333" x1="979.908" y1="226.9" x2="995.293" y2="226.777" gradientUnits="userSpaceOnUse">
<stop stop-color="#0069DB"/>
<stop offset="1" stop-color="#00AAFE"/>
</linearGradient>
<linearGradient id="paint43_linear_1_2333" x1="497.04" y1="108.753" x2="512.425" y2="108.63" gradientUnits="userSpaceOnUse">
<stop stop-color="#0069DB"/>
<stop offset="1" stop-color="#00AAFE"/>
</linearGradient>
<linearGradient id="paint44_linear_1_2333" x1="688.27" y1="89.5645" x2="703.655" y2="89.4412" gradientUnits="userSpaceOnUse">
<stop stop-color="#0069DB"/>
<stop offset="1" stop-color="#00AAFE"/>
</linearGradient>
<linearGradient id="paint45_linear_1_2333" x1="1067.91" y1="237.043" x2="1083.08" y2="236.923" gradientUnits="userSpaceOnUse">
<stop stop-color="#0069DB"/>
<stop offset="1" stop-color="#00AAFE"/>
</linearGradient>
<linearGradient id="paint46_linear_1_2333" x1="1077.58" y1="183.316" x2="1092.97" y2="183.193" gradientUnits="userSpaceOnUse">
<stop stop-color="#0069DB"/>
<stop offset="1" stop-color="#00AAFE"/>
</linearGradient>
<linearGradient id="paint47_linear_1_2333" x1="1228.96" y1="119.719" x2="1244.13" y2="119.599" gradientUnits="userSpaceOnUse">
<stop stop-color="#0069DB"/>
<stop offset="1" stop-color="#00AAFE"/>
</linearGradient>
<linearGradient id="paint48_linear_1_2333" x1="1205.71" y1="45.4316" x2="1221.09" y2="45.3084" gradientUnits="userSpaceOnUse">
<stop stop-color="#0069DB"/>
<stop offset="1" stop-color="#00AAFE"/>
</linearGradient>
<linearGradient id="paint49_linear_1_2333" x1="884.092" y1="493.899" x2="899.265" y2="493.78" gradientUnits="userSpaceOnUse">
<stop stop-color="#0069DB"/>
<stop offset="1" stop-color="#00AAFE"/>
</linearGradient>
<linearGradient id="paint50_linear_1_2333" x1="1236.64" y1="315.445" x2="1251.81" y2="315.325" gradientUnits="userSpaceOnUse">
<stop stop-color="#0069DB"/>
<stop offset="1" stop-color="#00AAFE"/>
</linearGradient>
<linearGradient id="paint51_linear_1_2333" x1="759.26" y1="501.302" x2="774.433" y2="501.182" gradientUnits="userSpaceOnUse">
<stop stop-color="#0069DB"/>
<stop offset="1" stop-color="#00AAFE"/>
</linearGradient>
<linearGradient id="paint52_linear_1_2333" x1="509.112" y1="748.014" x2="524.497" y2="747.89" gradientUnits="userSpaceOnUse">
<stop stop-color="#0069DB"/>
<stop offset="1" stop-color="#00AAFE"/>
</linearGradient>
<linearGradient id="paint53_linear_1_2333" x1="408.63" y1="484.578" x2="423.803" y2="484.458" gradientUnits="userSpaceOnUse">
<stop stop-color="#0069DB"/>
<stop offset="1" stop-color="#00AAFE"/>
</linearGradient>
<linearGradient id="paint54_linear_1_2333" x1="530.991" y1="655.634" x2="546.165" y2="655.514" gradientUnits="userSpaceOnUse">
<stop stop-color="#0069DB"/>
<stop offset="1" stop-color="#00AAFE"/>
</linearGradient>
<linearGradient id="paint55_linear_1_2333" x1="123.368" y1="665.501" x2="138.753" y2="665.378" gradientUnits="userSpaceOnUse">
<stop stop-color="#0069DB"/>
<stop offset="1" stop-color="#00AAFE"/>
</linearGradient>
<linearGradient id="paint56_linear_1_2333" x1="935.395" y1="644.941" x2="950.568" y2="644.821" gradientUnits="userSpaceOnUse">
<stop stop-color="#0069DB"/>
<stop offset="1" stop-color="#00AAFE"/>
</linearGradient>
<linearGradient id="paint57_linear_1_2333" x1="1217.46" y1="682.351" x2="1218.31" y2="683.818" gradientUnits="userSpaceOnUse">
<stop stop-color="#0069DB"/>
<stop offset="1" stop-color="#00AAFE"/>
</linearGradient>
<linearGradient id="paint58_linear_1_2333" x1="890.266" y1="502.496" x2="959.98" y2="501.406" gradientUnits="userSpaceOnUse">
<stop stop-color="#0069DB"/>
<stop offset="1" stop-color="#00AAFE"/>
</linearGradient>
<linearGradient id="paint59_linear_1_2333" x1="721.262" y1="370.922" x2="999.747" y2="364.259" gradientUnits="userSpaceOnUse">
<stop stop-color="#0069DB"/>
<stop offset="1" stop-color="#00AAFE"/>
</linearGradient>
<linearGradient id="paint60_linear_1_2333" x1="793.967" y1="435.065" x2="953.445" y2="432.881" gradientUnits="userSpaceOnUse">
<stop stop-color="#0069DB"/>
<stop offset="1" stop-color="#00AAFE"/>
</linearGradient>
<linearGradient id="paint61_linear_1_2333" x1="860.906" y1="410.571" x2="927.531" y2="410.298" gradientUnits="userSpaceOnUse">
<stop stop-color="#0069DB"/>
<stop offset="1" stop-color="#00AAFE"/>
</linearGradient>
<linearGradient id="paint62_linear_1_2333" x1="1363.8" y1="496.811" x2="1505.5" y2="494.772" gradientUnits="userSpaceOnUse">
<stop stop-color="#0069DB"/>
<stop offset="1" stop-color="#00AAFE"/>
</linearGradient>
<linearGradient id="paint63_linear_1_2333" x1="418.918" y1="745.867" x2="1049.02" y2="741.834" gradientUnits="userSpaceOnUse">
<stop stop-color="#0069DB"/>
<stop offset="1" stop-color="#00AAFE"/>
</linearGradient>
<linearGradient id="paint64_linear_1_2333" x1="1296.59" y1="428.602" x2="1441.36" y2="425.828" gradientUnits="userSpaceOnUse">
<stop stop-color="#0069DB"/>
<stop offset="1" stop-color="#00AAFE"/>
</linearGradient>
<linearGradient id="paint65_linear_1_2333" x1="1163.52" y1="254.378" x2="1287.46" y2="254.122" gradientUnits="userSpaceOnUse">
<stop stop-color="#0069DB"/>
<stop offset="1" stop-color="#00AAFE"/>
</linearGradient>
<linearGradient id="paint66_linear_1_2333" x1="1201.93" y1="342.859" x2="1245.69" y2="342.707" gradientUnits="userSpaceOnUse">
<stop stop-color="#0069DB"/>
<stop offset="1" stop-color="#00AAFE"/>
</linearGradient>
<linearGradient id="paint67_linear_1_2333" x1="1417.58" y1="217.983" x2="1780.33" y2="215.574" gradientUnits="userSpaceOnUse">
<stop stop-color="#0069DB"/>
<stop offset="1" stop-color="#00AAFE"/>
</linearGradient>
<linearGradient id="paint68_linear_1_2333" x1="1507.84" y1="155.695" x2="1706.58" y2="154.579" gradientUnits="userSpaceOnUse">
<stop stop-color="#0069DB"/>
<stop offset="1" stop-color="#00AAFE"/>
</linearGradient>
<linearGradient id="paint69_linear_1_2333" x1="1357.49" y1="273.856" x2="1553.69" y2="272.514" gradientUnits="userSpaceOnUse">
<stop stop-color="#0069DB"/>
<stop offset="1" stop-color="#00AAFE"/>
</linearGradient>
<linearGradient id="paint70_linear_1_2333" x1="750.89" y1="736.177" x2="864.378" y2="735.668" gradientUnits="userSpaceOnUse">
<stop stop-color="#0069DB"/>
<stop offset="1" stop-color="#00AAFE"/>
</linearGradient>
<linearGradient id="paint71_linear_1_2333" x1="766.252" y1="516.298" x2="869.274" y2="514.768" gradientUnits="userSpaceOnUse">
<stop stop-color="#0069DB"/>
<stop offset="1" stop-color="#00AAFE"/>
</linearGradient>
<linearGradient id="paint72_linear_1_2333" x1="417.546" y1="538.195" x2="835.242" y2="530.84" gradientUnits="userSpaceOnUse">
<stop stop-color="#0069DB"/>
<stop offset="1" stop-color="#00AAFE"/>
</linearGradient>
<linearGradient id="paint73_linear_1_2333" x1="1076" y1="303.494" x2="1152.23" y2="303.298" gradientUnits="userSpaceOnUse">
<stop stop-color="#0069DB"/>
<stop offset="1" stop-color="#00AAFE"/>
</linearGradient>
<linearGradient id="paint74_linear_1_2333" x1="1084.51" y1="250.618" x2="1206.46" y2="250.127" gradientUnits="userSpaceOnUse">
<stop stop-color="#0069DB"/>
<stop offset="1" stop-color="#00AAFE"/>
</linearGradient>
<linearGradient id="paint75_linear_1_2333" x1="1364.08" y1="606.486" x2="1616.41" y2="602.853" gradientUnits="userSpaceOnUse">
<stop stop-color="#0069DB"/>
<stop offset="1" stop-color="#00AAFE"/>
</linearGradient>
<linearGradient id="paint76_linear_1_2333" x1="1459" y1="510.194" x2="1709.65" y2="497.797" gradientUnits="userSpaceOnUse">
<stop stop-color="#0069DB"/>
<stop offset="1" stop-color="#00AAFE"/>
</linearGradient>
<linearGradient id="paint77_linear_1_2333" x1="1308.39" y1="477.147" x2="1417.06" y2="475.702" gradientUnits="userSpaceOnUse">
<stop stop-color="#0069DB"/>
<stop offset="1" stop-color="#00AAFE"/>
</linearGradient>
<linearGradient id="paint78_linear_1_2333" x1="674" y1="868.137" x2="887.707" y2="867.111" gradientUnits="userSpaceOnUse">
<stop stop-color="#0069DB"/>
<stop offset="1" stop-color="#00AAFE"/>
</linearGradient>
<linearGradient id="paint79_linear_1_2333" x1="1076" y1="183.497" x2="1091.17" y2="183.377" gradientUnits="userSpaceOnUse">
<stop stop-color="#0069DB"/>
<stop offset="1" stop-color="#00AAFE"/>
</linearGradient>
<linearGradient id="paint80_linear_1_2333" x1="1076" y1="183.497" x2="1091.17" y2="183.377" gradientUnits="userSpaceOnUse">
<stop stop-color="#0069DB"/>
<stop offset="1" stop-color="#00AAFE"/>
</linearGradient>
<linearGradient id="paint81_linear_1_2333" x1="980" y1="226.497" x2="995.173" y2="226.377" gradientUnits="userSpaceOnUse">
<stop stop-color="#0069DB"/>
<stop offset="1" stop-color="#00AAFE"/>
</linearGradient>
<linearGradient id="paint82_linear_1_2333" x1="980" y1="226.497" x2="995.173" y2="226.377" gradientUnits="userSpaceOnUse">
<stop stop-color="#0069DB"/>
<stop offset="1" stop-color="#00AAFE"/>
</linearGradient>
<linearGradient id="paint83_linear_1_2333" x1="786" y1="433.497" x2="801.173" y2="433.377" gradientUnits="userSpaceOnUse">
<stop stop-color="#0069DB"/>
<stop offset="1" stop-color="#00AAFE"/>
</linearGradient>
<linearGradient id="paint84_linear_1_2333" x1="786" y1="433.497" x2="801.173" y2="433.377" gradientUnits="userSpaceOnUse">
<stop stop-color="#0069DB"/>
<stop offset="1" stop-color="#00AAFE"/>
</linearGradient>
<linearGradient id="paint85_linear_1_2333" x1="715" y1="394.497" x2="730.173" y2="394.377" gradientUnits="userSpaceOnUse">
<stop stop-color="#0069DB"/>
<stop offset="1" stop-color="#00AAFE"/>
</linearGradient>
<linearGradient id="paint86_linear_1_2333" x1="715" y1="394.497" x2="730.173" y2="394.377" gradientUnits="userSpaceOnUse">
<stop stop-color="#0069DB"/>
<stop offset="1" stop-color="#00AAFE"/>
</linearGradient>
<linearGradient id="paint87_linear_1_2333" x1="855" y1="373.497" x2="870.173" y2="373.377" gradientUnits="userSpaceOnUse">
<stop stop-color="#0069DB"/>
<stop offset="1" stop-color="#00AAFE"/>
</linearGradient>
<linearGradient id="paint88_linear_1_2333" x1="855" y1="373.497" x2="870.173" y2="373.377" gradientUnits="userSpaceOnUse">
<stop stop-color="#0069DB"/>
<stop offset="1" stop-color="#00AAFE"/>
</linearGradient>
<linearGradient id="paint89_linear_1_2333" x1="760" y1="501.497" x2="775.173" y2="501.377" gradientUnits="userSpaceOnUse">
<stop stop-color="#0069DB"/>
<stop offset="1" stop-color="#00AAFE"/>
</linearGradient>
<linearGradient id="paint90_linear_1_2333" x1="760" y1="501.497" x2="775.173" y2="501.377" gradientUnits="userSpaceOnUse">
<stop stop-color="#0069DB"/>
<stop offset="1" stop-color="#00AAFE"/>
</linearGradient>
<linearGradient id="paint91_linear_1_2333" x1="1239" y1="313.497" x2="1254.17" y2="313.377" gradientUnits="userSpaceOnUse">
<stop stop-color="#0069DB"/>
<stop offset="1" stop-color="#00AAFE"/>
</linearGradient>
<linearGradient id="paint92_linear_1_2333" x1="1239" y1="313.497" x2="1254.17" y2="313.377" gradientUnits="userSpaceOnUse">
<stop stop-color="#0069DB"/>
<stop offset="1" stop-color="#00AAFE"/>
</linearGradient>
<linearGradient id="paint93_linear_1_2333" x1="1430" y1="442.497" x2="1445.17" y2="442.377" gradientUnits="userSpaceOnUse">
<stop stop-color="#0069DB"/>
<stop offset="1" stop-color="#00AAFE"/>
</linearGradient>
<linearGradient id="paint94_linear_1_2333" x1="1430" y1="442.497" x2="1445.17" y2="442.377" gradientUnits="userSpaceOnUse">
<stop stop-color="#0069DB"/>
<stop offset="1" stop-color="#00AAFE"/>
</linearGradient>
<linearGradient id="paint95_linear_1_2333" x1="1492" y1="474.497" x2="1507.17" y2="474.377" gradientUnits="userSpaceOnUse">
<stop stop-color="#0069DB"/>
<stop offset="1" stop-color="#00AAFE"/>
</linearGradient>
<linearGradient id="paint96_linear_1_2333" x1="1492" y1="474.497" x2="1507.17" y2="474.377" gradientUnits="userSpaceOnUse">
<stop stop-color="#0069DB"/>
<stop offset="1" stop-color="#00AAFE"/>
</linearGradient>
</defs>
</svg>
