<svg width="1600" height="1084" viewBox="0 0 1600 1084" fill="none" xmlns="http://www.w3.org/2000/svg">
<path d="M1591.85 2.18765C1564.35 16.3838 1536.85 30.8206 1509.35 45.0168C1481.85 30.8206 1454.35 16.3838 1426.85 2.18765L1428.45 1.2252C1427.38 0.743973 1426.31 0.984587 1425.51 1.46581C1424.71 0.984587 1423.64 0.984587 1422.58 1.2252L1424.18 2.18765C1396.68 16.3838 1369.18 30.8206 1341.67 45.0168C1314.17 30.8206 1286.67 16.3838 1259.17 2.18765L1260.77 1.2252C1259.71 0.743973 1258.64 0.984587 1257.84 1.46581C1257.04 0.984587 1255.97 0.984587 1254.9 1.2252L1256.5 2.18765C1229 16.3838 1201.5 30.8206 1174 45.0168C1146.5 30.8206 1119 16.3838 1091.5 2.18765L1093.1 1.2252C1092.03 0.743973 1090.96 0.984587 1090.16 1.46581C1089.36 0.984587 1088.29 0.984587 1087.22 1.2252L1088.83 2.18765C1061.32 16.3838 1033.82 30.8206 1006.32 45.0168C978.822 30.8206 951.321 16.3838 923.82 2.18765L925.422 1.2252C924.354 0.743973 923.286 0.984587 922.485 1.46581C921.684 0.984587 920.616 0.984587 919.548 1.2252L921.15 2.18765C893.649 16.3838 866.148 30.8206 838.647 45.0168C811.146 30.8206 783.645 16.3838 756.144 2.18765L757.746 1.2252C756.678 0.743973 755.61 0.984587 754.809 1.46581C754.008 0.984587 752.94 0.984587 751.872 1.2252L753.474 2.18765C725.973 16.3838 698.472 30.8206 670.971 45.0168C643.47 30.8206 615.969 16.3838 588.468 2.18765L590.07 1.2252C589.002 0.743973 587.934 0.984587 587.133 1.46581C586.332 0.984587 585.264 0.984587 584.196 1.2252L585.798 2.18765C558.297 16.3838 530.796 30.8206 503.295 45.0168C475.794 30.8206 448.293 16.3838 420.792 2.18765L422.394 1.2252C421.326 0.743973 420.258 0.984587 419.457 1.46581C418.656 0.984587 417.588 0.984587 416.52 1.2252L418.122 2.18765C390.621 16.3838 363.12 30.8206 335.619 45.0168C307.851 30.8206 280.35 16.3838 252.849 2.18765L254.451 1.2252C253.383 0.743973 252.315 0.984587 251.514 1.46581C250.713 0.984587 249.645 0.743973 248.31 1.2252L249.912 2.18765C222.678 16.3838 195.177 30.8206 167.676 45.0168C140.175 30.8206 112.674 16.3838 85.173 2.18765L86.775 1.2252C85.707 0.743973 84.639 0.984587 83.838 1.46581C82.77 0.984587 81.969 0.743973 80.634 1.2252L82.236 2.18765C55.002 16.3838 27.501 30.58 0 45.0168V46.4605C27.501 60.6567 55.002 75.0935 82.503 89.2896C55.002 103.726 27.501 117.923 0 132.359V133.803C27.501 147.999 55.002 162.436 82.503 176.632C55.002 190.828 27.501 205.265 0 219.461V220.905C27.501 235.101 55.002 249.538 82.503 263.734C55.002 277.93 27.501 292.367 0 306.563V308.007C27.501 322.203 55.002 336.64 82.503 350.836C55.002 365.032 27.501 379.469 0 393.665V395.109C27.501 409.305 55.002 423.742 82.503 437.938C55.002 452.134 27.501 466.571 0 480.767V482.211C27.501 496.407 55.002 510.844 82.503 525.04C55.002 539.958 27.501 554.154 0 568.591V570.035C27.501 584.231 55.002 598.668 82.503 612.864C55.002 627.06 27.501 641.497 0 655.693V657.137C27.501 671.333 55.002 685.77 82.503 699.966C55.002 714.162 27.501 728.599 0 742.795V744.239C27.501 758.435 55.002 772.872 82.503 787.068C55.002 801.264 27.501 815.701 0 829.897V831.341C27.501 845.537 55.002 859.974 82.503 874.17C55.002 889.088 27.501 903.284 0 917.721V919.165C27.501 933.361 55.002 947.798 82.503 961.994C55.002 976.19 27.501 990.627 0 1004.82V1006.27C27.501 1020.46 55.002 1034.9 82.503 1049.1C60.342 1060.65 37.914 1072.19 15.753 1083.74C38.715 1074.12 61.41 1061.37 83.838 1049.58C106.266 1061.13 128.961 1073.88 151.923 1083.74C129.762 1072.19 107.334 1060.65 85.173 1049.1C112.674 1034.9 140.175 1020.46 167.676 1006.27C195.177 1020.46 222.678 1034.9 250.179 1049.1C228.018 1060.65 205.59 1072.19 183.429 1083.74C206.391 1074.12 229.086 1061.37 251.514 1049.58C273.942 1061.13 296.637 1073.88 319.599 1083.74C297.438 1072.19 275.01 1060.65 252.849 1049.1C280.35 1034.9 307.851 1020.46 335.352 1006.27C362.853 1020.46 390.354 1034.9 417.855 1049.1C395.694 1060.65 373.266 1072.19 351.105 1083.74C374.067 1074.12 396.762 1061.37 419.19 1049.58C441.618 1061.13 464.313 1073.88 487.275 1083.74C465.114 1072.19 442.686 1060.65 420.525 1049.1C448.026 1034.9 475.527 1020.46 503.028 1006.27C530.529 1020.46 558.03 1034.9 585.531 1049.1C563.37 1060.65 540.942 1072.19 518.781 1083.74C541.743 1074.12 564.438 1061.37 586.866 1049.58C609.294 1061.13 631.989 1073.88 654.951 1083.74C632.79 1072.19 610.362 1060.65 588.201 1049.1C615.702 1034.9 643.203 1020.46 670.704 1006.27C698.205 1020.46 725.706 1034.9 753.207 1049.1C731.046 1060.65 708.618 1072.19 686.457 1083.74C709.419 1074.12 732.114 1061.37 754.542 1049.58C776.97 1061.13 799.665 1073.88 822.627 1083.74C800.466 1072.19 778.038 1060.65 755.877 1049.1C783.378 1034.9 810.879 1020.46 838.38 1006.27C865.881 1020.46 893.382 1034.9 920.883 1049.1C898.722 1060.65 876.294 1072.19 854.133 1083.74C877.095 1074.12 899.79 1061.37 922.218 1049.58C944.646 1061.13 967.341 1073.88 990.303 1083.74C968.142 1072.19 945.714 1060.65 923.553 1049.1C951.054 1034.9 978.555 1020.46 1006.06 1006.27C1033.56 1020.46 1061.06 1034.9 1088.56 1049.1C1066.4 1060.65 1043.97 1072.19 1021.81 1083.74C1044.77 1074.12 1067.47 1061.37 1089.89 1049.58C1112.32 1061.13 1135.02 1073.88 1157.98 1083.74C1135.82 1072.19 1113.39 1060.65 1091.23 1049.1C1118.73 1034.9 1146.23 1020.46 1173.73 1006.27C1201.23 1020.46 1228.73 1034.9 1256.23 1049.1C1234.07 1060.65 1211.65 1072.19 1189.48 1083.74C1212.45 1074.12 1235.14 1061.37 1257.57 1049.58C1280 1061.13 1302.69 1073.88 1325.65 1083.74C1303.49 1072.19 1281.07 1060.65 1258.9 1049.1C1286.41 1034.9 1313.91 1020.46 1341.41 1006.27C1368.91 1020.46 1396.41 1034.9 1423.91 1049.1C1401.75 1060.65 1379.32 1072.19 1357.16 1083.74C1380.12 1074.12 1402.82 1061.37 1425.25 1049.82C1447.67 1061.37 1470.37 1074.12 1493.33 1083.74C1471.17 1072.19 1448.74 1060.65 1426.58 1049.1C1454.08 1034.9 1481.58 1020.46 1509.08 1006.27C1536.58 1020.46 1564.09 1034.9 1591.59 1049.1C1569.43 1060.65 1547 1072.19 1524.84 1083.74C1547.8 1074.12 1570.49 1061.37 1592.92 1049.82L1601.73 1054.39V1052.95L1594.26 1049.1L1601.73 1045.25V1043.8L1592.92 1048.37C1565.42 1034.18 1537.92 1019.74 1510.42 1005.54C1537.92 991.349 1565.42 976.912 1592.92 962.716L1601.73 967.287V965.844L1594.26 961.994L1601.73 958.144V956.7L1592.92 961.272C1565.42 947.076 1537.92 932.639 1510.42 918.443C1537.92 904.247 1565.42 889.81 1592.92 875.614L1601.73 880.185V878.742L1594.26 874.892L1601.73 871.042V869.598L1592.92 874.17C1565.42 859.974 1537.92 845.537 1510.42 831.341C1537.92 817.145 1565.42 802.708 1592.92 788.512L1601.73 793.083V791.64L1594.26 787.79L1601.73 783.94V782.496L1592.92 787.068C1565.42 772.872 1537.92 758.435 1510.42 744.239C1537.92 730.043 1565.42 715.606 1592.92 701.41L1601.73 705.981V704.538L1594.26 700.688L1601.73 696.838V695.394L1592.92 699.966C1565.42 685.77 1537.92 671.333 1510.42 657.137C1537.92 642.941 1565.42 628.504 1592.92 614.308L1601.73 618.879V616.954L1594.26 613.105L1601.73 609.255V607.811L1592.92 612.383C1565.42 598.187 1537.92 583.75 1510.42 569.554C1537.92 555.357 1565.42 540.921 1592.92 526.724L1601.73 531.296V529.852L1594.26 526.003L1601.73 522.153V520.709L1592.92 525.281C1565.42 511.085 1537.92 496.648 1510.42 482.452C1537.92 468.255 1565.42 453.819 1592.92 439.622L1601.73 444.194V442.75L1594.26 438.901L1601.73 435.051V433.607L1592.92 438.179C1565.42 423.983 1537.92 409.546 1510.42 395.35C1537.92 381.153 1565.42 366.717 1592.92 352.521L1601.73 357.092V355.648L1594.26 351.799L1601.73 347.949V346.505L1592.92 351.077C1565.42 336.881 1537.92 322.444 1510.42 308.248C1537.92 294.051 1565.42 279.615 1592.92 265.419L1601.73 269.99V268.546L1594.26 264.697L1601.73 260.847V259.403L1592.92 263.975C1565.42 249.779 1537.92 235.342 1510.42 221.146C1537.92 206.95 1565.42 192.513 1592.92 178.317L1601.73 182.888V181.445L1594.26 177.595L1601.73 173.745V172.301L1592.92 176.873C1565.42 162.677 1537.92 148.24 1510.42 134.044C1537.92 119.848 1565.42 105.411 1592.92 91.2145L1601.73 95.7862V94.3425L1594.26 90.4927L1601.73 86.6429V85.1992L1592.92 89.7709C1565.42 75.5747 1537.92 61.1379 1510.42 46.9417C1537.92 32.7455 1565.42 18.3087 1592.92 4.11256L1601.73 8.68421V6.03746L1594.26 2.18765L1595.86 1.2252C1594.79 0.743973 1593.72 0.984587 1592.92 1.46581C1592.12 0.984587 1591.05 0.984587 1589.98 1.2252L1591.85 2.18765ZM1384.13 24.3241L1425.51 2.90949C1453.01 17.1057 1480.51 31.5425 1508.02 45.7386C1480.51 59.9348 1453.01 74.3716 1425.51 88.5678C1398.01 74.3716 1370.51 59.9348 1343.01 45.7386L1384.13 24.3241ZM544.413 504.107L585.798 525.521C558.297 539.718 530.796 554.154 503.295 568.351C475.794 554.154 448.293 539.718 420.792 525.521C448.293 511.325 475.794 496.888 503.295 482.692L544.413 504.107ZM504.363 481.97C531.864 467.774 559.365 453.337 586.866 439.141C614.367 453.337 641.868 467.774 669.369 481.97C641.868 496.167 614.367 510.603 586.866 524.8C559.365 510.603 531.864 496.407 504.363 481.97ZM545.748 547.898L587.133 526.484C614.634 540.68 642.135 555.117 669.636 569.313C642.135 583.509 614.634 597.946 587.133 612.142C559.632 597.946 532.131 583.509 504.63 569.313L545.748 547.898ZM629.586 547.177L588.201 525.762C615.702 511.566 643.203 497.129 670.704 482.933C698.205 497.129 725.706 511.566 753.207 525.762C725.706 539.958 698.205 554.395 670.704 568.591L629.586 547.177ZM672.039 481.97C699.54 467.774 727.041 453.337 754.542 439.141C782.043 453.337 809.544 467.774 837.045 481.97C809.544 496.167 782.043 510.603 754.542 524.8C727.041 510.603 699.54 496.407 672.039 481.97ZM713.424 547.898L754.809 526.484C782.31 540.68 809.811 555.117 837.312 569.313C809.811 583.509 782.31 597.946 754.809 612.142C727.308 597.946 699.807 583.509 672.306 569.313L713.424 547.898ZM797.262 547.177L755.877 525.762C783.378 511.566 810.879 497.129 838.38 482.933C865.881 497.129 893.382 511.566 920.883 525.762C893.382 539.958 865.881 554.395 838.38 568.591L797.262 547.177ZM839.715 481.97C867.216 467.774 894.717 453.337 922.218 439.141C949.719 453.337 977.22 467.774 1004.72 481.97C977.22 496.167 949.719 510.603 922.218 524.8C894.717 510.603 867.216 496.407 839.715 481.97ZM881.1 547.898L922.485 526.484C949.986 540.68 977.487 555.117 1004.99 569.313C977.487 583.509 949.986 597.946 922.485 612.142C894.984 597.946 867.483 583.509 839.982 569.313L881.1 547.898ZM964.938 547.177L923.553 525.762C951.054 511.566 978.555 497.129 1006.06 482.933C1033.56 497.129 1061.06 511.566 1088.56 525.762C1061.06 539.958 1033.56 554.395 1006.06 568.591L964.938 547.177ZM1048.78 547.898L1090.16 526.484C1117.66 540.68 1145.16 555.117 1172.66 569.313C1145.16 583.509 1117.66 597.946 1090.16 612.142C1062.66 597.946 1035.16 583.509 1007.66 569.313L1048.78 547.898ZM1048.78 503.626L1007.39 482.211C1034.89 468.015 1062.39 453.578 1089.89 439.382C1117.4 453.578 1144.9 468.015 1172.4 482.211C1144.9 496.407 1117.4 510.844 1089.89 525.04L1048.78 503.626ZM1048.78 416.283L1007.39 394.868C1034.89 380.672 1062.39 366.235 1089.89 352.039C1117.4 366.235 1144.9 380.672 1172.4 394.868C1144.9 409.065 1117.4 423.501 1089.89 437.698L1048.78 416.283ZM1047.44 417.005L1088.83 438.419C1061.32 452.616 1033.82 467.052 1006.32 481.249C978.822 467.052 951.321 452.616 923.82 438.419C951.321 424.223 978.822 409.786 1006.32 395.59L1047.44 417.005ZM963.603 416.283L922.218 437.698C894.717 423.501 867.216 409.065 839.715 394.868C867.216 380.672 894.717 366.235 922.218 352.039C949.719 366.235 977.22 380.672 1004.72 394.868L963.603 416.283ZM879.765 417.005L921.15 438.419C893.649 452.616 866.148 467.052 838.647 481.249C811.146 467.052 783.645 452.616 756.144 438.419C783.645 424.223 811.146 409.786 838.647 395.59L879.765 417.005ZM795.927 416.283L754.542 437.698C727.041 423.501 699.54 409.065 672.039 394.868C699.54 380.672 727.041 366.235 754.542 352.039C782.043 366.235 809.544 380.672 837.045 394.868L795.927 416.283ZM712.089 417.005L753.474 438.419C725.973 452.616 698.472 467.052 670.971 481.249C643.47 467.052 615.969 452.616 588.468 438.419C615.969 424.223 643.47 409.786 670.971 395.59L712.089 417.005ZM628.251 416.283L586.866 437.698C559.365 423.501 531.864 409.065 504.363 394.868C531.864 380.672 559.365 366.235 586.866 352.039C614.367 366.235 641.868 380.672 669.369 394.868L628.251 416.283ZM544.413 417.005L585.798 438.419C558.297 452.616 530.796 467.052 503.295 481.249C475.794 467.052 448.293 452.616 420.792 438.419C448.293 424.223 475.794 409.786 503.295 395.59L544.413 417.005ZM460.308 416.283L418.923 437.698C391.422 423.501 363.921 409.065 336.42 394.868C363.921 380.672 391.422 366.235 418.923 352.039C446.424 366.235 473.925 380.672 501.426 394.868L460.308 416.283ZM460.308 460.556L501.693 481.97C474.192 496.167 446.691 510.603 419.19 524.8C391.689 510.603 364.188 496.167 336.687 481.97C364.188 467.774 391.689 453.337 419.19 439.141L460.308 460.556ZM460.575 547.898L501.96 569.313C474.459 583.509 446.958 597.946 419.457 612.142C391.956 597.946 364.455 583.509 336.954 569.313C364.455 555.117 391.956 540.68 419.457 526.484L460.575 547.898ZM460.575 635L501.96 656.415C474.459 670.611 446.958 685.048 419.457 699.244C391.956 685.048 364.455 670.611 336.954 656.415C364.455 642.219 391.956 627.782 419.457 613.586L460.575 635ZM461.91 634.519L420.525 613.105C448.026 598.908 475.527 584.472 503.028 570.276C530.529 584.472 558.03 598.908 585.531 613.105C558.03 627.301 530.529 641.738 503.028 655.934L461.91 634.519ZM545.748 635L587.133 613.586C614.634 627.782 642.135 642.219 669.636 656.415C642.135 670.611 614.634 685.048 587.133 699.244C559.632 685.048 532.131 670.611 504.63 656.415L545.748 635ZM629.586 634.519L588.201 613.105C615.702 598.908 643.203 584.472 670.704 570.276C698.205 584.472 725.706 598.908 753.207 613.105C725.706 627.301 698.205 641.738 670.704 655.934L629.586 634.519ZM713.424 635L754.809 613.586C782.31 627.782 809.811 642.219 837.312 656.415C809.811 670.611 782.31 685.048 754.809 699.244C727.308 685.048 699.807 670.611 672.306 656.415L713.424 635ZM797.262 634.519L755.877 613.105C783.378 598.908 810.879 584.472 838.38 570.276C865.881 584.472 893.382 598.908 920.883 613.105C893.382 627.301 865.881 641.738 838.38 655.934L797.262 634.519ZM881.1 635L922.485 613.586C949.986 627.782 977.487 642.219 1004.99 656.415C977.487 670.611 949.986 685.048 922.485 699.244C894.984 685.048 867.483 670.611 839.982 656.415L881.1 635ZM964.938 634.519L923.553 613.105C951.054 598.908 978.555 584.472 1006.06 570.276C1033.56 584.472 1061.06 598.908 1088.56 613.105C1061.06 627.301 1033.56 641.738 1006.06 655.934L964.938 634.519ZM1048.78 635L1090.16 613.586C1117.66 627.782 1145.16 642.219 1172.66 656.415C1145.16 670.611 1117.66 685.048 1090.16 699.244C1062.66 685.048 1035.16 670.611 1007.66 656.415L1048.78 635ZM1132.61 634.519L1091.23 613.105C1118.73 598.908 1146.23 584.472 1173.73 570.276C1201.23 584.472 1228.73 598.908 1256.23 613.105C1228.73 627.301 1201.23 641.738 1173.73 655.934L1132.61 634.519ZM1132.61 547.177L1091.23 525.762C1118.73 511.566 1146.23 497.129 1173.73 482.933C1201.23 497.129 1228.73 511.566 1256.23 525.762C1228.73 539.958 1201.23 554.395 1173.73 568.591L1132.61 547.177ZM1132.61 459.834L1091.23 438.419C1118.73 424.223 1146.23 409.786 1173.73 395.59C1201.23 409.786 1228.73 424.223 1256.23 438.419C1228.73 452.616 1201.23 467.052 1173.73 481.249L1132.61 459.834ZM1132.61 372.732L1091.23 351.317C1118.73 337.121 1146.23 322.684 1173.73 308.488C1201.23 322.684 1228.73 337.121 1256.23 351.317C1228.73 365.514 1201.23 379.95 1173.73 394.147L1132.61 372.732ZM1131.28 328.94L1089.89 350.355C1062.39 336.159 1034.89 321.722 1007.39 307.526C1034.89 293.33 1062.39 278.893 1089.89 264.697C1117.4 278.893 1144.9 293.33 1172.4 307.526L1131.28 328.94ZM1047.44 329.662L1088.83 351.077C1061.32 365.273 1033.82 379.71 1006.32 393.906C978.822 379.71 951.321 365.273 923.82 351.077C951.321 336.881 978.822 322.444 1006.32 308.248L1047.44 329.662ZM963.603 328.94L922.218 350.355C894.717 336.159 867.216 321.722 839.715 307.526C867.216 293.33 894.717 278.893 922.218 264.697C949.719 278.893 977.22 293.33 1004.72 307.526L963.603 328.94ZM879.765 329.662L921.15 351.077C893.649 365.273 866.148 379.71 838.647 393.906C811.146 379.71 783.645 365.273 756.144 351.077C783.645 336.881 811.146 322.444 838.647 308.248L879.765 329.662ZM795.927 328.94L754.542 350.355C727.041 336.159 699.54 321.722 672.039 307.526C699.54 293.33 727.041 278.893 754.542 264.697C782.043 278.893 809.544 293.33 837.045 307.526L795.927 328.94ZM712.089 329.662L753.474 351.077C725.973 365.273 698.472 379.71 670.971 393.906C643.47 379.71 615.969 365.273 588.468 351.077C615.969 336.881 643.47 322.444 670.971 308.248L712.089 329.662ZM628.251 328.94L586.866 350.355C559.365 336.159 531.864 321.722 504.363 307.526C531.864 293.33 559.365 278.893 586.866 264.697C614.367 278.893 641.868 293.33 669.369 307.526L628.251 328.94ZM544.413 329.662L585.798 351.077C558.297 365.273 530.796 379.71 503.295 393.906C475.794 379.71 448.293 365.273 420.792 351.077C448.293 336.881 475.794 322.444 503.295 308.248L544.413 329.662ZM460.308 328.94L418.923 350.355C391.422 336.159 363.921 321.722 336.42 307.526C363.921 293.33 391.422 278.893 418.923 264.697C446.424 278.893 473.925 293.33 501.426 307.526L460.308 328.94ZM376.47 329.662L417.855 351.077C390.354 365.273 362.853 379.71 335.352 393.906C307.851 379.71 280.35 365.273 252.849 351.077C280.35 336.881 307.851 322.444 335.352 308.248L376.47 329.662ZM376.47 417.005L417.855 438.419C390.354 452.616 362.853 467.052 335.352 481.249C307.851 467.052 280.35 452.616 252.849 438.419C280.35 424.223 307.851 409.786 335.352 395.59L376.47 417.005ZM376.47 504.107L417.855 525.521C390.354 539.718 362.853 554.154 335.352 568.351C307.851 554.395 280.35 539.958 252.849 525.762C280.35 511.566 307.851 497.129 335.352 482.933L376.47 504.107ZM376.47 591.449L417.855 612.864C390.354 627.06 362.853 641.497 335.352 655.693C307.851 641.497 280.35 627.06 252.849 612.864C280.35 598.668 307.851 584.231 335.352 570.035L376.47 591.449ZM376.47 678.792L417.855 700.207C390.354 714.403 362.853 728.84 335.352 743.036C307.851 728.84 280.35 714.403 252.849 700.207C280.35 686.01 307.851 671.574 335.352 657.377L376.47 678.792ZM377.805 722.343L419.19 700.928C446.691 715.125 474.192 729.561 501.693 743.758C474.192 757.954 446.691 772.391 419.19 786.587C391.689 772.391 364.188 757.954 336.687 743.758L377.805 722.343ZM461.91 721.621L420.525 700.207C448.026 686.01 475.527 671.574 503.028 657.377C530.529 671.574 558.03 686.01 585.531 700.207C558.03 714.403 530.529 728.84 503.028 743.036L461.91 721.621ZM545.748 722.343L587.133 700.928C614.634 715.125 642.135 729.561 669.636 743.758C642.135 757.954 614.634 772.391 587.133 786.587C559.632 772.391 532.131 757.954 504.63 743.758L545.748 722.343ZM629.586 721.621L588.201 700.207C615.702 686.01 643.203 671.574 670.704 657.377C698.205 671.574 725.706 686.01 753.207 700.207C725.706 714.403 698.205 728.84 670.704 743.036L629.586 721.621ZM713.424 722.343L754.809 700.928C782.31 715.125 809.811 729.561 837.312 743.758C809.811 757.954 782.31 772.391 754.809 786.587C727.308 772.391 699.807 757.954 672.306 743.758L713.424 722.343ZM797.262 721.621L755.877 700.207C783.378 686.01 810.879 671.574 838.38 657.377C865.881 671.574 893.382 686.01 920.883 700.207C893.382 714.403 865.881 728.84 838.38 743.036L797.262 721.621ZM881.1 722.343L922.485 700.928C949.986 715.125 977.487 729.561 1004.99 743.758C977.487 757.954 949.986 772.391 922.485 786.587C894.984 772.391 867.483 757.954 839.982 743.758L881.1 722.343ZM964.938 721.621L923.553 700.207C951.054 686.01 978.555 671.574 1006.06 657.377C1033.56 671.574 1061.06 686.01 1088.56 700.207C1061.06 714.403 1033.56 728.84 1006.06 743.036L964.938 721.621ZM1048.78 722.343L1090.16 700.928C1117.66 715.125 1145.16 729.561 1172.66 743.758C1145.16 757.954 1117.66 772.391 1090.16 786.587C1062.66 772.391 1035.16 757.954 1007.66 743.758L1048.78 722.343ZM1132.61 721.621L1091.23 700.207C1118.73 686.01 1146.23 671.574 1173.73 657.377C1201.23 671.574 1228.73 686.01 1256.23 700.207C1228.73 714.403 1201.23 728.84 1173.73 743.036L1132.61 721.621ZM1216.45 722.343L1257.84 700.928C1285.34 715.125 1312.84 729.561 1340.34 743.758C1312.84 757.954 1285.34 772.391 1257.84 786.587C1230.34 772.391 1202.83 757.954 1175.33 743.758L1216.45 722.343ZM1216.45 678.07L1175.07 656.656C1202.57 642.459 1230.07 628.023 1257.57 613.826C1285.07 628.023 1312.57 642.459 1340.07 656.656C1312.57 670.852 1285.07 685.289 1257.57 699.485L1216.45 678.07ZM1216.45 590.728L1175.07 569.313C1202.57 555.117 1230.07 540.68 1257.57 526.484C1285.07 540.68 1312.57 555.117 1340.07 569.313C1312.57 583.509 1285.07 597.946 1257.57 612.142L1216.45 590.728ZM1216.45 503.626L1175.07 482.211C1202.57 468.015 1230.07 453.578 1257.57 439.382C1285.07 453.578 1312.57 468.015 1340.07 482.211C1312.57 496.407 1285.07 510.844 1257.57 525.04L1216.45 503.626ZM1216.45 416.283L1175.07 394.868C1202.57 380.672 1230.07 366.235 1257.57 352.039C1285.07 366.235 1312.57 380.672 1340.07 394.868C1312.57 409.065 1285.07 423.501 1257.57 437.698L1216.45 416.283ZM1216.45 328.94L1175.07 307.526C1202.57 293.33 1230.07 278.893 1257.57 264.697C1285.07 278.893 1312.57 293.33 1340.07 307.526C1312.57 321.722 1285.07 336.159 1257.57 350.355L1216.45 328.94ZM1216.45 241.838L1175.07 220.424C1202.57 206.228 1230.07 191.791 1257.57 177.595C1285.07 191.791 1312.57 206.228 1340.07 220.424C1312.57 234.62 1285.07 249.057 1257.57 263.253L1216.45 241.838ZM1215.12 242.56L1256.5 263.975C1229 278.171 1201.5 292.608 1174 306.804C1146.5 292.608 1119 278.171 1091.5 263.975C1119 249.779 1146.5 235.342 1174 221.146L1215.12 242.56ZM1131.28 241.838L1089.89 263.253C1062.39 249.057 1034.89 234.62 1007.39 220.424C1034.89 206.228 1062.39 191.791 1089.89 177.595C1117.4 191.791 1144.9 206.228 1172.4 220.424L1131.28 241.838ZM1047.44 242.56L1088.83 263.975C1061.32 278.171 1033.82 292.608 1006.32 306.804C978.822 292.608 951.321 278.171 923.82 263.975C951.321 249.779 978.822 235.342 1006.32 221.146L1047.44 242.56ZM963.603 241.838L922.218 263.253C894.717 249.057 867.216 234.62 839.715 220.424C867.216 206.228 894.717 191.791 922.218 177.595C949.719 191.791 977.22 206.228 1004.72 220.424L963.603 241.838ZM879.765 242.56L921.15 263.975C893.649 278.171 866.148 292.608 838.647 306.804C811.146 292.608 783.645 278.171 756.144 263.975C783.645 249.779 811.146 235.342 838.647 221.146L879.765 242.56ZM795.927 241.838L754.542 263.253C727.041 249.057 699.54 234.62 672.039 220.424C699.54 206.228 727.041 191.791 754.542 177.595C782.043 191.791 809.544 206.228 837.045 220.424L795.927 241.838ZM712.089 242.56L753.474 263.975C725.973 278.171 698.472 292.608 670.971 306.804C643.47 292.608 615.969 278.171 588.468 263.975C615.969 249.779 643.47 235.342 670.971 221.146L712.089 242.56ZM628.251 241.838L586.866 263.253C559.365 249.057 531.864 234.62 504.363 220.424C531.864 206.228 559.365 191.791 586.866 177.595C614.367 191.791 641.868 206.228 669.369 220.424L628.251 241.838ZM544.413 242.32L585.798 263.734C558.297 277.93 530.796 292.367 503.295 306.563C475.794 292.367 448.293 277.93 420.792 263.734C448.293 249.538 475.794 235.101 503.295 220.905L544.413 242.32ZM460.308 241.838L419.19 263.253C391.689 249.057 364.188 234.62 336.687 220.424C364.188 206.228 391.689 191.791 419.19 177.595C446.691 191.791 474.192 206.228 501.693 220.424L460.308 241.838ZM376.47 242.32L417.855 263.734C390.354 277.93 362.853 292.367 335.352 306.563C307.851 292.367 280.35 277.93 252.849 263.734C280.35 249.538 307.851 235.101 335.352 220.905L376.47 242.32ZM292.632 241.838L251.514 263.253C224.013 248.816 196.512 234.62 169.011 220.183C196.512 205.987 224.013 191.55 251.514 177.354C279.015 191.55 306.516 205.987 334.017 220.183L292.632 241.838ZM292.632 286.111L334.017 307.526C306.516 321.722 279.015 336.159 251.514 350.355C224.013 336.159 196.512 321.722 169.011 307.526C196.512 293.33 224.013 278.893 251.514 264.697L292.632 286.111ZM292.632 373.213L334.017 394.628C306.516 408.824 279.015 423.261 251.514 437.457C224.013 423.261 196.512 408.824 169.011 394.628C196.512 380.432 224.013 365.995 251.514 351.799L292.632 373.213ZM292.632 460.556L334.017 481.97C306.516 496.167 279.015 510.603 251.514 524.8C224.013 510.603 196.512 496.167 169.011 481.97C196.512 467.774 224.013 453.337 251.514 439.141L292.632 460.556ZM292.632 547.898L334.017 569.313C306.516 583.509 279.015 597.946 251.514 612.142C224.013 597.946 196.512 583.509 169.011 569.313C196.512 555.117 224.013 540.68 251.514 526.484L292.632 547.898ZM292.632 635L334.017 656.415C306.516 670.611 279.015 685.048 251.514 699.244C224.013 685.048 196.512 670.611 169.011 656.415C196.512 642.219 224.013 627.782 251.514 613.586L292.632 635ZM292.632 722.343L334.017 743.758C306.516 757.954 279.015 772.391 251.514 786.587C224.013 772.391 196.512 757.954 169.011 743.758C196.512 729.561 224.013 715.125 251.514 700.928L292.632 722.343ZM292.632 809.686L334.017 831.1C306.516 845.296 279.015 859.733 251.514 873.929C224.013 859.733 196.512 845.296 169.011 831.1C196.512 816.904 224.013 802.467 251.514 788.271L292.632 809.686ZM293.967 808.964L252.582 787.549C280.083 773.353 307.584 758.916 335.085 744.72C362.586 758.916 390.087 773.353 417.588 787.549C390.087 801.745 362.586 816.182 335.085 830.378L293.967 808.964ZM377.805 809.686L419.19 788.271C446.691 802.467 474.192 816.904 501.693 831.1C474.192 845.296 446.691 859.733 419.19 873.929C391.689 859.733 364.188 845.296 336.687 831.1L377.805 809.686ZM461.91 808.964L420.525 787.549C448.026 773.353 475.527 758.916 503.028 744.72C530.529 758.916 558.03 773.353 585.531 787.549C558.03 801.745 530.529 816.182 503.028 830.378L461.91 808.964ZM545.748 809.686L587.133 788.271C614.634 802.467 642.135 816.904 669.636 831.1C642.135 845.296 614.634 859.733 587.133 873.929C559.632 859.733 532.131 845.296 504.63 831.1L545.748 809.686ZM629.586 808.964L588.201 787.549C615.702 773.353 643.203 758.916 670.704 744.72C698.205 758.916 725.706 773.353 753.207 787.549C725.706 801.745 698.205 816.182 670.704 830.378L629.586 808.964ZM713.424 809.686L754.809 788.271C782.31 802.467 809.811 816.904 837.312 831.1C809.811 845.296 782.31 859.733 754.809 873.929C727.308 859.733 699.807 845.296 672.306 831.1L713.424 809.686ZM797.262 808.964L755.877 787.549C783.378 773.353 810.879 758.916 838.38 744.72C865.881 758.916 893.382 773.353 920.883 787.549C893.382 801.745 865.881 816.182 838.38 830.378L797.262 808.964ZM881.1 809.686L922.485 788.271C949.986 802.467 977.487 816.904 1004.99 831.1C977.487 845.296 949.986 859.733 922.485 873.929C894.984 859.733 867.483 845.296 839.982 831.1L881.1 809.686ZM964.938 808.964L923.553 787.549C951.054 773.353 978.555 758.916 1006.06 744.72C1033.56 758.916 1061.06 773.353 1088.56 787.549C1061.06 801.745 1033.56 816.182 1006.06 830.378L964.938 808.964ZM1048.78 809.686L1090.16 788.271C1117.66 802.467 1145.16 816.904 1172.66 831.1C1145.16 845.296 1117.66 859.733 1090.16 873.929C1062.66 859.733 1035.16 845.296 1007.66 831.1L1048.78 809.686ZM1132.61 808.964L1091.23 787.549C1118.73 773.353 1146.23 758.916 1173.73 744.72C1201.23 758.916 1228.73 773.353 1256.23 787.549C1228.73 801.745 1201.23 816.182 1173.73 830.378L1132.61 808.964ZM1216.45 809.686L1257.84 788.271C1285.34 802.467 1312.84 816.904 1340.34 831.1C1312.84 845.296 1285.34 859.733 1257.84 873.929C1230.34 859.733 1202.83 845.296 1175.33 831.1L1216.45 809.686ZM1300.29 808.964L1258.9 787.549C1286.41 773.353 1313.91 758.916 1341.41 744.72C1368.91 758.916 1396.41 773.353 1423.91 787.549C1396.41 801.745 1368.91 816.182 1341.41 830.378L1300.29 808.964ZM1300.29 721.621L1258.9 700.207C1286.41 686.01 1313.91 671.574 1341.41 657.377C1368.91 671.574 1396.41 686.01 1423.91 700.207C1396.41 714.403 1368.91 728.84 1341.41 743.036L1300.29 721.621ZM1300.29 634.519L1258.9 613.105C1286.41 598.908 1313.91 584.472 1341.41 570.276C1368.91 584.472 1396.41 598.908 1423.91 613.105C1396.41 627.301 1368.91 641.738 1341.41 655.934L1300.29 634.519ZM1300.29 547.177L1258.9 525.762C1286.41 511.566 1313.91 497.129 1341.41 482.933C1368.91 497.129 1396.41 511.566 1423.91 525.762C1396.41 539.958 1368.91 554.395 1341.41 568.591L1300.29 547.177ZM1300.29 459.834L1258.9 438.419C1286.41 424.223 1313.91 409.786 1341.41 395.59C1368.91 409.786 1396.41 424.223 1423.91 438.419C1396.41 452.616 1368.91 467.052 1341.41 481.249L1300.29 459.834ZM1300.29 372.732L1258.9 351.317C1286.41 337.121 1313.91 322.684 1341.41 308.488C1368.91 322.684 1396.41 337.121 1423.91 351.317C1396.41 365.514 1368.91 379.95 1341.41 394.147L1300.29 372.732ZM1300.29 285.389L1258.9 263.975C1286.41 249.779 1313.91 235.342 1341.41 221.146C1368.91 235.342 1396.41 249.779 1423.91 263.975C1396.41 278.171 1368.91 292.608 1341.41 306.804L1300.29 285.389ZM1300.29 198.047L1259.17 176.632C1286.67 162.436 1314.17 147.999 1341.67 133.803C1369.18 147.999 1396.68 162.436 1424.18 176.632C1396.68 190.828 1369.18 205.265 1341.67 219.461L1300.29 198.047ZM1298.95 154.496L1257.57 175.91C1230.07 161.714 1202.57 147.277 1175.07 133.081C1202.57 118.885 1230.07 104.448 1257.57 90.2521C1285.07 104.448 1312.57 118.885 1340.07 133.081L1298.95 154.496ZM1215.12 155.218L1256.5 176.632C1229 191.069 1201.5 205.265 1174 219.702C1146.5 205.265 1119 191.069 1091.5 176.632C1119 162.436 1146.5 147.999 1174 133.803L1215.12 155.218ZM1131.28 154.496L1089.89 175.91C1062.39 161.714 1034.89 147.277 1007.39 133.081C1034.89 118.885 1062.39 104.448 1089.89 90.2521C1117.4 104.448 1144.9 118.885 1172.4 133.081L1131.28 154.496ZM1047.44 155.218L1088.83 176.632C1061.32 190.828 1033.82 205.265 1006.32 219.461C978.555 205.265 951.054 191.069 923.553 176.632C951.054 162.436 978.555 147.999 1006.06 133.803L1047.44 155.218ZM963.603 154.496L922.218 175.91C894.717 161.714 867.216 147.277 839.715 133.081C867.216 118.885 894.717 104.448 922.218 90.2521C949.719 104.448 977.22 118.885 1004.72 133.081L963.603 154.496ZM879.765 155.218L921.15 176.632C893.382 191.069 865.881 205.265 838.38 219.702C810.879 205.265 783.378 191.069 755.877 176.632C783.378 162.436 810.879 147.999 838.38 133.803L879.765 155.218ZM795.927 154.496L754.542 175.91C727.041 161.714 699.54 147.277 672.039 133.081C699.54 118.644 727.041 104.448 754.542 90.0115C782.043 104.208 809.544 118.644 837.045 132.841L795.927 154.496ZM712.089 155.218L753.474 176.632C725.973 190.828 698.472 205.265 670.971 219.461C643.203 205.265 615.702 191.069 588.201 176.632C615.702 162.436 643.203 147.999 670.704 133.803L712.089 155.218ZM628.251 154.496L586.866 175.91C559.365 161.714 531.864 147.277 504.363 133.081C531.864 118.885 559.365 104.448 586.866 90.2521C614.367 104.448 641.868 118.885 669.369 133.081L628.251 154.496ZM544.413 155.218L585.798 176.632C558.03 191.069 530.529 205.265 503.028 219.461C475.527 205.265 448.026 191.069 420.525 176.632C448.026 162.436 475.527 147.999 503.028 133.803L544.413 155.218ZM460.308 154.496L419.19 175.91C391.689 161.714 364.188 147.277 336.687 133.081C364.188 118.644 391.689 104.448 419.19 90.0115C446.691 104.208 474.192 118.644 501.693 132.841L460.308 154.496ZM376.47 155.218L417.855 176.632C390.354 190.828 362.853 205.265 335.352 219.461C307.851 205.265 280.35 191.069 252.849 176.632C280.35 162.436 307.851 147.999 335.352 133.803L376.47 155.218ZM292.632 154.496L251.247 175.91C223.746 161.714 196.245 147.277 168.744 133.081C196.512 118.644 224.013 104.448 251.514 90.0115C279.015 104.208 306.516 118.644 334.017 132.841L292.632 154.496ZM208.794 155.218L250.179 176.632C222.678 191.069 195.177 205.265 167.676 219.461C140.175 205.265 112.674 191.069 85.173 176.632C112.674 162.436 140.175 147.999 167.676 133.803L208.794 155.218ZM208.794 242.32L250.179 263.734C222.678 277.93 195.177 292.367 167.676 306.563C140.175 292.367 112.674 277.93 85.173 263.734C112.674 249.538 140.175 235.101 167.676 220.905L208.794 242.32ZM208.794 329.662L250.179 351.077C222.678 365.273 195.177 379.71 167.676 393.906C140.175 379.71 112.674 365.273 85.173 351.077C112.674 336.881 140.175 322.444 167.676 308.248L208.794 329.662ZM208.794 417.005L250.179 438.419C222.678 452.616 195.177 467.052 167.676 481.249C140.175 467.052 112.674 452.616 85.173 438.419C112.674 424.223 140.175 409.786 167.676 395.59L208.794 417.005ZM208.794 504.107L250.179 525.521C222.678 539.958 195.177 554.395 167.676 568.591C140.175 554.395 112.674 539.958 85.173 525.762C112.674 511.566 140.175 497.129 167.676 482.933L208.794 504.107ZM208.794 591.449L250.179 612.864C222.678 627.06 195.177 641.497 167.676 655.693C140.175 641.497 112.674 627.06 85.173 612.864C112.674 598.668 140.175 584.231 167.676 570.035L208.794 591.449ZM208.794 678.792L250.179 700.207C222.678 714.403 195.177 728.84 167.676 743.036C140.175 728.84 112.674 714.403 85.173 700.207C112.674 686.01 140.175 671.574 167.676 657.377L208.794 678.792ZM208.794 765.894L250.179 787.309C222.678 801.505 195.177 815.942 167.676 830.138C140.175 815.942 112.674 801.505 85.173 787.309C112.674 773.112 140.175 758.676 167.676 744.479L208.794 765.894ZM208.794 853.237L250.179 874.651C222.678 889.088 195.177 903.284 167.676 917.721C140.175 903.525 112.674 889.088 85.173 874.892C112.674 860.696 140.175 846.259 167.676 832.063L208.794 853.237ZM210.129 896.788L251.514 875.373C279.015 889.569 306.516 904.006 334.017 918.202C306.516 932.398 279.015 946.835 251.514 961.031C224.013 946.835 196.512 932.398 169.011 918.202L210.129 896.788ZM293.967 896.306L252.582 874.892C280.083 860.696 307.584 846.259 335.085 832.063C362.586 846.259 390.087 860.696 417.588 874.892C390.087 889.088 362.586 903.525 335.085 917.721L293.967 896.306ZM377.805 896.788L419.19 875.373C446.691 889.569 474.192 904.006 501.693 918.202C474.192 932.398 446.691 946.835 419.19 961.031C391.689 946.835 364.188 932.398 336.687 918.202L377.805 896.788ZM461.91 896.306L420.525 874.892C448.026 860.696 475.527 846.259 503.028 832.063C530.529 846.259 558.03 860.696 585.531 874.892C558.03 889.088 530.529 903.525 503.028 917.721L461.91 896.306ZM545.748 896.788L587.133 875.373C614.634 889.569 642.135 904.006 669.636 918.202C642.135 932.398 614.634 946.835 587.133 961.031C559.632 946.835 532.131 932.398 504.63 918.202L545.748 896.788ZM629.586 896.306L588.201 874.892C615.702 860.696 643.203 846.259 670.704 832.063C698.205 846.259 725.706 860.696 753.207 874.892C725.706 889.088 698.205 903.525 670.704 917.721L629.586 896.306ZM713.424 896.788L754.809 875.373C782.31 889.569 809.811 904.006 837.312 918.202C809.811 932.398 782.31 946.835 754.809 961.031C727.308 946.835 699.807 932.398 672.306 918.202L713.424 896.788ZM797.262 896.306L755.877 874.892C783.378 860.696 810.879 846.259 838.38 832.063C865.881 846.259 893.382 860.696 920.883 874.892C893.382 889.088 865.881 903.525 838.38 917.721L797.262 896.306ZM881.1 896.788L922.485 875.373C949.986 889.569 977.487 904.006 1004.99 918.202C977.487 932.398 949.986 946.835 922.485 961.031C894.984 946.835 867.483 932.398 839.982 918.202L881.1 896.788ZM964.938 896.306L923.553 874.892C951.054 860.696 978.555 846.259 1006.06 832.063C1033.56 846.259 1061.06 860.696 1088.56 874.892C1061.06 889.088 1033.56 903.525 1006.06 917.721L964.938 896.306ZM1048.78 896.788L1090.16 875.373C1117.66 889.569 1145.16 904.006 1172.66 918.202C1145.16 932.398 1117.66 946.835 1090.16 961.031C1062.66 946.835 1035.16 932.398 1007.66 918.202L1048.78 896.788ZM1132.61 896.306L1091.23 874.892C1118.73 860.696 1146.23 846.259 1173.73 832.063C1201.23 846.259 1228.73 860.696 1256.23 874.892C1228.73 889.088 1201.23 903.525 1173.73 917.721L1132.61 896.306ZM1216.45 896.788L1257.84 875.373C1285.34 889.569 1312.84 904.006 1340.34 918.202C1312.84 932.398 1285.34 946.835 1257.84 961.031C1230.34 946.835 1202.83 932.398 1175.33 918.202L1216.45 896.788ZM1300.29 896.306L1258.9 874.892C1286.41 860.696 1313.91 846.259 1341.41 832.063C1368.91 846.259 1396.41 860.696 1423.91 874.892C1396.41 889.088 1368.91 903.525 1341.41 917.721L1300.29 896.306ZM1384.13 896.788L1425.51 875.373C1453.01 889.569 1480.51 904.006 1508.02 918.202C1480.51 932.398 1453.01 946.835 1425.51 961.031C1398.01 946.835 1370.51 932.398 1343.01 918.202L1384.13 896.788ZM1384.13 852.515L1343.01 831.1C1370.51 816.904 1398.01 802.467 1425.51 788.271C1453.01 802.467 1480.51 816.904 1508.02 831.1C1480.51 845.296 1453.01 859.733 1425.51 873.929L1384.13 852.515ZM1384.13 765.413L1342.74 743.998C1370.24 729.802 1397.74 715.365 1425.25 701.169C1452.75 715.365 1480.25 729.802 1507.75 743.998C1480.25 758.194 1452.75 772.631 1425.25 786.827L1384.13 765.413ZM1384.13 678.07L1342.74 656.656C1370.24 642.459 1397.74 628.023 1425.25 613.826C1452.75 628.023 1480.25 642.459 1507.75 656.656C1480.25 670.852 1452.75 685.289 1425.25 699.485L1384.13 678.07ZM1384.13 590.728L1342.74 569.313C1370.24 555.117 1397.74 540.68 1425.25 526.484C1452.75 540.68 1480.25 555.117 1507.75 569.313C1480.25 583.509 1452.75 597.946 1425.25 612.142L1384.13 590.728ZM1384.13 503.626L1342.74 482.211C1370.24 468.015 1397.74 453.578 1425.25 439.382C1452.75 453.578 1480.25 468.015 1507.75 482.211C1480.25 496.407 1452.75 510.844 1425.25 525.04L1384.13 503.626ZM1384.13 416.283L1342.74 394.868C1370.24 380.672 1397.74 366.235 1425.25 352.039C1452.75 366.235 1480.25 380.672 1507.75 394.868C1480.25 409.065 1452.75 423.501 1425.25 437.698L1384.13 416.283ZM1384.13 328.94L1342.74 307.526C1370.24 293.33 1397.74 278.893 1425.25 264.697C1452.75 278.893 1480.25 293.33 1507.75 307.526C1480.25 321.722 1452.75 336.159 1425.25 350.355L1384.13 328.94ZM1384.13 241.838L1343.01 220.183C1370.51 205.987 1398.01 191.55 1425.51 177.354C1453.01 191.55 1480.51 205.987 1508.02 220.183C1480.51 234.379 1453.01 248.816 1425.51 263.012L1384.13 241.838ZM1384.13 154.496L1343.01 133.081C1370.51 118.885 1398.01 104.448 1425.51 90.2521C1453.01 104.448 1480.51 118.885 1508.02 133.081C1480.51 147.277 1453.01 161.714 1425.51 175.91L1384.13 154.496ZM1382.79 67.8751L1424.18 89.2896C1396.68 103.486 1369.18 117.923 1341.67 132.119C1314.17 117.923 1286.67 103.486 1259.17 89.2896C1286.67 75.0935 1314.17 60.6567 1341.67 46.4605L1382.79 67.8751ZM1216.45 24.3241L1257.84 2.90949C1285.34 17.1057 1312.84 31.5425 1340.34 45.7386C1312.84 59.9348 1285.34 74.3716 1257.84 88.5678C1230.34 74.3716 1202.83 59.9348 1175.33 45.7386L1216.45 24.3241ZM1215.12 67.8751L1256.5 89.2896C1229 103.486 1201.5 117.923 1174 132.119C1146.5 117.923 1119 103.486 1091.5 89.2896C1119 75.0935 1146.5 60.6567 1174 46.4605L1215.12 67.8751ZM1048.78 24.3241L1090.16 2.90949C1117.66 17.1057 1145.16 31.5425 1172.66 45.7386C1145.16 59.9348 1117.66 74.3716 1090.16 88.5678C1062.66 74.3716 1035.16 59.9348 1007.66 45.7386L1048.78 24.3241ZM1047.44 67.8751L1088.83 89.2896C1061.32 103.486 1033.82 117.923 1006.32 132.119C978.822 117.923 951.321 103.486 923.82 89.2896C951.321 75.0935 978.822 60.6567 1006.32 46.4605L1047.44 67.8751ZM881.1 24.3241L922.485 2.90949C949.986 17.1057 977.487 31.5425 1004.99 45.7386C977.487 59.9348 949.986 74.3716 922.485 88.5678C894.984 74.3716 867.483 59.9348 839.982 45.7386L881.1 24.3241ZM879.765 67.8751L921.15 89.2896C893.649 103.486 866.148 117.923 838.647 132.119C811.146 117.923 783.645 103.486 756.144 89.2896C783.645 75.0935 811.146 60.6567 838.647 46.4605L879.765 67.8751ZM713.424 24.3241L754.809 2.90949C782.31 17.1057 809.811 31.5425 837.312 45.7386C809.811 59.9348 782.31 74.3716 754.809 88.5678C727.308 74.3716 699.807 59.9348 672.306 45.7386L713.424 24.3241ZM712.089 67.8751L753.474 89.2896C725.973 103.486 698.472 117.923 670.971 132.119C643.47 117.923 615.969 103.486 588.468 89.2896C615.969 75.0935 643.47 60.6567 670.971 46.4605L712.089 67.8751ZM545.748 24.3241L587.133 2.90949C614.634 17.1057 642.135 31.5425 669.636 45.7386C642.135 59.9348 614.634 74.3716 587.133 88.5678C559.632 74.3716 532.131 59.9348 504.63 45.7386L545.748 24.3241ZM544.413 67.8751L585.798 89.2896C558.297 103.486 530.796 117.923 503.295 132.119C475.794 117.923 448.293 103.486 420.792 89.2896C448.293 75.0935 475.794 60.6567 503.295 46.4605L544.413 67.8751ZM377.805 24.3241L419.19 2.90949C446.691 17.1057 474.192 31.5425 501.693 45.7386C474.192 59.9348 446.691 74.3716 419.19 88.5678C391.689 74.3716 364.188 59.9348 336.687 45.7386L377.805 24.3241ZM376.47 67.8751L417.855 89.2896C390.354 103.486 362.853 117.923 335.352 132.119C307.851 117.923 280.35 103.486 252.849 89.2896C280.35 75.0935 307.851 60.6567 335.352 46.4605L376.47 67.8751ZM210.129 24.3241L251.514 2.90949C279.015 17.1057 306.516 31.5425 334.017 45.7386C306.516 59.9348 279.015 74.3716 251.514 88.5678C224.013 74.3716 196.512 59.9348 169.011 45.7386L210.129 24.3241ZM208.794 67.8751L250.179 89.2896C222.678 103.486 195.177 117.923 167.676 132.119C140.175 117.923 112.674 103.486 85.173 89.2896C112.674 75.0935 140.175 60.6567 167.676 46.4605L208.794 67.8751ZM42.453 67.1532L1.335 45.7386C28.836 31.5425 56.337 17.1057 83.838 2.90949C111.339 17.1057 138.84 31.5425 166.341 45.7386C138.84 60.1754 111.339 74.3716 83.838 88.5678L42.453 67.1532ZM42.453 154.496L1.335 133.081C28.836 118.644 56.337 104.448 83.838 90.0115C111.339 104.448 138.84 118.644 166.341 133.081C138.84 147.277 111.339 161.714 83.838 175.91L42.453 154.496ZM42.453 241.838L1.335 220.183C28.836 205.987 56.337 191.55 83.838 177.354C111.339 191.55 138.84 205.987 166.341 220.183C138.84 234.62 111.339 248.816 83.838 263.253L42.453 241.838ZM42.453 328.94L1.068 307.526C28.569 293.33 56.07 278.893 83.571 264.697C111.072 278.893 138.573 293.33 166.074 307.526C138.573 321.722 111.072 336.159 83.571 350.355L42.453 328.94ZM42.453 416.283L1.068 394.868C28.569 380.672 56.07 366.235 83.571 352.039C111.072 366.235 138.573 380.672 166.074 394.868C138.573 409.065 111.072 423.501 83.571 437.698L42.453 416.283ZM42.453 503.626L1.068 482.211C28.569 468.015 56.07 453.578 83.571 439.382C111.339 453.337 138.84 467.774 166.341 481.97C138.84 496.167 111.339 510.603 83.838 524.8L42.453 503.626ZM42.453 590.728L1.068 569.313C28.569 555.117 56.07 540.68 83.571 526.484C111.072 540.68 138.573 555.117 166.074 569.313C138.84 583.75 111.339 597.946 83.838 612.142L42.453 590.728ZM42.453 678.07L1.068 656.656C28.569 642.459 56.07 628.023 83.571 613.826C111.072 628.023 138.573 642.459 166.074 656.656C138.573 670.852 111.072 685.289 83.571 699.485L42.453 678.07ZM42.453 765.413L1.068 743.998C28.569 729.802 56.07 715.365 83.571 701.169C111.072 715.365 138.573 729.802 166.074 743.998C138.573 758.194 111.072 772.631 83.571 786.827L42.453 765.413ZM42.453 852.515L1.335 831.1C28.836 816.904 56.337 802.467 83.838 788.271C111.339 802.467 138.84 816.904 166.341 831.1C138.84 845.296 111.339 859.733 83.838 873.929L42.453 852.515ZM42.453 939.857L1.068 918.443C28.569 904.247 56.07 889.81 83.571 875.614C111.072 889.81 138.573 904.247 166.074 918.443C138.573 932.639 111.072 947.076 83.571 961.272L42.453 939.857ZM124.956 1027.2L83.571 1048.61C56.07 1034.42 28.569 1019.98 1.068 1005.79C28.569 991.589 56.07 977.152 83.571 962.956C111.072 977.152 138.573 991.589 166.074 1005.79L124.956 1027.2ZM126.291 983.408L84.906 961.994C112.407 947.798 139.908 933.361 167.409 919.165C194.91 933.361 222.411 947.798 249.912 961.994C222.411 976.19 194.91 990.627 167.409 1004.82L126.291 983.408ZM292.632 1027.2L251.247 1048.61C223.746 1034.42 196.245 1019.98 168.744 1005.79C196.245 991.589 223.746 977.152 251.247 962.956C278.748 977.152 306.249 991.589 333.75 1005.79L292.632 1027.2ZM293.967 983.408L252.582 961.994C280.083 947.798 307.584 933.361 335.085 919.165C362.586 933.361 390.087 947.798 417.588 961.994C390.087 976.19 362.586 990.627 335.085 1004.82L293.967 983.408ZM460.575 1027.2L419.19 1048.61C391.689 1034.42 364.188 1019.98 336.687 1005.79C364.188 991.589 391.689 977.152 419.19 962.956C446.691 977.152 474.192 991.589 501.693 1005.79L460.575 1027.2ZM461.91 983.408L420.525 961.994C448.026 947.798 475.527 933.361 503.028 919.165C530.529 933.361 558.03 947.798 585.531 961.994C558.03 976.19 530.529 990.627 503.028 1004.82L461.91 983.408ZM628.251 1027.2L586.866 1048.61C559.365 1034.42 531.864 1019.98 504.363 1005.79C531.864 991.589 559.365 977.152 586.866 962.956C614.367 977.152 641.868 991.589 669.369 1005.79L628.251 1027.2ZM629.586 983.408L588.201 961.994C615.702 947.798 643.203 933.361 670.704 919.165C698.205 933.361 725.706 947.798 753.207 961.994C725.706 976.19 698.205 990.627 670.704 1004.82L629.586 983.408ZM795.927 1027.2L754.542 1048.61C727.041 1034.42 699.54 1019.98 672.039 1005.79C699.54 991.589 727.041 977.152 754.542 962.956C782.043 977.152 809.544 991.589 837.045 1005.79L795.927 1027.2ZM797.262 983.408L755.877 961.994C783.378 947.798 810.879 933.361 838.38 919.165C865.881 933.361 893.382 947.798 920.883 961.994C893.382 976.19 865.881 990.627 838.38 1004.82L797.262 983.408ZM963.603 1027.2L922.218 1048.61C894.717 1034.42 867.216 1019.98 839.715 1005.79C867.216 991.589 894.717 977.152 922.218 962.956C949.719 977.152 977.22 991.589 1004.72 1005.79L963.603 1027.2ZM964.938 983.408L923.553 961.994C951.054 947.798 978.555 933.361 1006.06 919.165C1033.56 933.361 1061.06 947.798 1088.56 961.994C1061.06 976.19 1033.56 990.627 1006.06 1004.82L964.938 983.408ZM1131.28 1027.2L1089.89 1048.61C1062.39 1034.42 1034.89 1019.98 1007.39 1005.79C1034.89 991.589 1062.39 977.152 1089.89 962.956C1117.4 977.152 1144.9 991.589 1172.4 1005.79L1131.28 1027.2ZM1132.61 983.408L1091.23 961.994C1118.73 947.798 1146.23 933.361 1173.73 919.165C1201.23 933.361 1228.73 947.798 1256.23 961.994C1228.73 976.19 1201.23 990.627 1173.73 1004.82L1132.61 983.408ZM1298.95 1027.2L1257.57 1048.61C1230.07 1034.42 1202.57 1019.98 1175.07 1005.79C1202.57 991.589 1230.07 977.152 1257.57 962.956C1285.07 977.152 1312.57 991.589 1340.07 1005.79L1298.95 1027.2ZM1300.29 983.408L1258.9 961.994C1286.41 947.798 1313.91 933.361 1341.41 919.165C1368.91 933.361 1396.41 947.798 1423.91 961.994C1396.41 976.19 1368.91 990.627 1341.41 1004.82L1300.29 983.408ZM1466.63 1027.2L1425.25 1048.61C1397.74 1034.42 1370.24 1019.98 1342.74 1005.79C1370.24 991.589 1397.74 977.152 1425.25 962.956C1452.75 977.152 1480.25 991.589 1507.75 1005.79L1466.63 1027.2ZM1550.74 940.579L1592.12 961.994C1564.62 976.19 1537.12 990.627 1509.62 1004.82C1482.12 990.627 1454.62 976.19 1427.11 961.994C1454.62 947.798 1482.12 933.361 1509.62 919.165L1550.74 940.579ZM1550.74 853.237L1592.12 874.651C1564.62 888.847 1537.12 903.284 1509.62 917.48C1482.12 903.284 1454.62 888.847 1427.11 874.651C1454.62 860.455 1482.12 846.018 1509.62 831.822L1550.74 853.237ZM1550.47 766.135L1591.85 787.549C1564.35 801.745 1536.85 816.182 1509.35 830.378C1481.85 816.182 1454.35 801.745 1426.85 787.549C1454.35 773.353 1481.85 758.916 1509.35 744.72L1550.47 766.135ZM1550.47 678.792L1591.85 700.207C1564.35 714.403 1536.85 728.84 1509.35 743.036C1481.85 728.84 1454.35 714.403 1426.85 700.207C1454.35 686.01 1481.85 671.574 1509.35 657.377L1550.47 678.792ZM1550.47 591.449L1591.85 612.864C1564.35 627.06 1536.85 641.497 1509.35 655.693C1481.85 641.497 1454.35 627.06 1426.85 612.864C1454.35 598.668 1481.85 584.231 1509.35 570.035L1550.47 591.449ZM1550.47 504.347L1591.85 525.762C1564.35 539.958 1536.85 554.395 1509.35 568.591C1481.85 554.395 1454.35 539.958 1426.85 525.762C1454.35 511.566 1481.85 497.129 1509.35 482.933L1550.47 504.347ZM1550.47 417.005L1591.85 438.419C1564.35 452.616 1536.85 467.052 1509.35 481.249C1481.85 467.052 1454.35 452.616 1426.85 438.419C1454.35 424.223 1481.85 409.786 1509.35 395.59L1550.47 417.005ZM1550.47 329.662L1591.85 351.077C1564.35 365.273 1536.85 379.71 1509.35 393.906C1481.85 379.71 1454.35 365.273 1426.85 351.077C1454.35 336.881 1481.85 322.444 1509.35 308.248L1550.47 329.662ZM1550.47 242.56L1591.85 263.975C1564.35 278.171 1536.85 292.608 1509.35 306.804C1481.85 292.608 1454.35 278.171 1426.85 263.975C1454.35 249.779 1481.85 235.342 1509.35 221.146L1550.47 242.56ZM1550.47 155.218L1591.85 176.632C1564.35 190.828 1536.85 205.265 1509.35 219.461C1481.85 205.265 1454.35 191.069 1426.85 176.632C1454.35 162.436 1481.85 147.999 1509.35 133.803L1550.47 155.218ZM1550.47 67.8751L1591.85 89.2896C1564.35 103.486 1536.85 117.923 1509.35 132.119C1481.85 117.923 1454.35 103.486 1426.85 89.2896C1454.35 75.0935 1481.85 60.6567 1509.35 46.4605L1550.47 67.8751Z" fill="url(#paint0_linear_1_133)"/>
<defs>
<linearGradient id="paint0_linear_1_133" x1="732" y1="1106.5" x2="759.531" y2="1.44922" gradientUnits="userSpaceOnUse">
<stop stop-color="#0069DB" stop-opacity="0.2"/>
<stop offset="1" stop-color="#00AAFE" stop-opacity="0.2"/>
</linearGradient>
</defs>
</svg>
