<svg width="51" height="62" viewBox="0 0 51 62" fill="none" xmlns="http://www.w3.org/2000/svg">
<path d="M22.6693 0.133747C19.5837 0.456902 16.8452 1.27125 13.9781 2.70606C8.91259 5.25253 4.99129 9.24672 2.53565 14.3526C-1.65565 23.0778 -0.588536 33.3412 5.27414 40.9676C6.28982 42.2861 7.45978 43.54 8.57832 44.5224L9.60686 45.4143V48.0383V50.6623H8.51404C7.58835 50.6623 7.38264 50.7011 7.16408 50.9208C6.66266 51.425 6.79123 51.6318 9.51686 54.3851C12.2168 57.1125 12.6668 57.4873 13.0525 57.2676C13.1682 57.203 14.5053 55.8974 16.0095 54.3721C18.4266 51.9291 18.748 51.5542 18.6709 51.2828C18.5166 50.7657 18.2466 50.6623 17.0381 50.6623H15.9067V47.2369C15.9067 45.3496 15.9324 43.8114 15.9709 43.8114C16.0095 43.8114 16.3181 43.9536 16.6524 44.1216C17.6038 44.5999 19.7765 45.3367 21.2294 45.6469C22.3479 45.8925 22.9136 45.9313 25.2921 45.9313C27.6577 45.9313 28.2363 45.8925 29.3548 45.6469C30.9233 45.3109 32.3633 44.8326 33.6361 44.2509C34.1632 44.0053 34.6389 43.8114 34.6904 43.8114C34.7546 43.8114 34.8061 45.3496 34.8061 47.2369V50.6623H33.7132C32.7233 50.6623 32.5819 50.6882 32.299 50.9725C32.1062 51.1664 32.0162 51.3732 32.0547 51.5284C32.0933 51.6705 33.3918 53.0537 34.9346 54.6048C37.3903 57.0608 37.776 57.3969 38.046 57.3193C38.2002 57.2676 39.5759 56.0008 41.0802 54.4885C43.2529 52.3039 43.8058 51.6835 43.8058 51.412C43.8058 50.8562 43.3944 50.6623 42.173 50.6623H41.1059V47.9737V45.2979L42.0701 44.4577C43.1244 43.54 44.3072 42.2732 45.31 40.9676C51.1727 33.3412 52.2398 23.0778 48.0485 14.3526C46.4543 11.0435 44.3586 8.32896 41.5559 5.96346C36.3617 1.58148 29.3805 -0.577194 22.6693 0.133747ZM27.7091 1.55563C36.0403 2.46046 43.1629 7.50168 46.7628 15.0118C48.6399 18.9285 49.437 23.1295 49.0899 27.24C48.5885 33.0956 46.3514 38.0463 42.3401 42.2215L41.1187 43.4883L41.1059 39.6104C41.1059 36.3142 41.0802 35.6808 40.9002 35.4352C40.6945 35.125 40.3345 35.0733 39.9359 35.2801C39.7045 35.4094 39.6916 35.642 39.6916 43.5917C39.6916 49.7833 39.7302 51.8127 39.8459 51.9291C39.9359 52.0196 40.283 52.0842 40.6173 52.0842C40.9516 52.0842 41.2344 52.123 41.2344 52.1876C41.2344 52.2393 40.4887 53.0407 39.5631 53.9585L37.8917 55.6389L36.2203 53.9585C35.3075 53.0407 34.5489 52.2393 34.5489 52.1876C34.5489 52.123 34.8189 52.0842 35.1532 52.0842C36.2846 52.0842 36.2203 52.472 36.2203 45.6986C36.2203 40.5023 36.1946 39.7009 36.0146 39.4424C35.7832 39.1063 35.3718 39.0804 35.0375 39.3777C34.8446 39.5458 34.8061 39.7914 34.8061 40.8513V42.131L33.6232 42.6998C32.1576 43.3978 30.4348 43.9795 28.9305 44.2897C27.3877 44.5999 23.1321 44.5999 21.6279 44.2897C20.1622 43.9795 18.3366 43.359 17.0638 42.7385L15.9709 42.1956L15.9067 40.7996C15.8552 39.7526 15.7909 39.3777 15.6495 39.2872C15.341 39.0933 15.0324 39.1321 14.7496 39.4165C14.5053 39.6621 14.4924 39.8431 14.4924 45.5952C14.4924 52.3815 14.441 52.0842 15.5338 52.0842C15.8809 52.0842 16.1638 52.123 16.1638 52.1876C16.1638 52.2393 15.4181 53.0407 14.4924 53.9585L12.821 55.6389L11.1497 53.9585C10.224 53.0407 9.47829 52.2393 9.47829 52.1876C9.47829 52.123 9.76114 52.0842 10.0954 52.0842C10.4297 52.0842 10.7768 52.0196 10.8668 51.9291C10.9825 51.8127 11.0211 49.7833 11.0211 43.5917C11.0211 35.642 11.0082 35.4094 10.7768 35.2801C10.6354 35.2155 10.4168 35.1509 10.2754 35.1509C9.70971 35.1509 9.67114 35.3577 9.60686 39.5328L9.54257 43.4883L8.29547 42.2344C6.37982 40.3213 4.96558 38.3048 3.7699 35.7972C-0.254261 27.3822 0.967129 17.4549 6.90694 10.1386C7.93548 8.87186 10.0311 6.90708 11.3811 5.93761C16.1767 2.51217 22.0522 0.935169 27.7091 1.55563Z" fill="url(#paint0_linear_33_3)"/>
<path d="M23.428 5.0014C18.7233 5.45105 14.4321 7.46804 11.0328 10.834C9.28788 12.5683 8.44775 13.6347 7.49128 15.3433C5.70761 18.5551 4.90625 21.6127 4.90625 25.2998C4.90625 28.396 5.28108 30.413 6.35387 33.098C6.90965 34.4726 7.1423 34.7424 7.69809 34.614C8.27972 34.4598 8.30557 34.0358 7.80149 32.8411C6.30217 29.3081 5.88856 25.1842 6.66407 21.5099C7.86611 15.8058 11.7049 10.9111 16.9913 8.29026C25.5736 4.05072 36.043 6.85138 41.4069 14.8166C44.5477 19.4929 45.4525 25.3255 43.8756 30.7341C43.7076 31.2994 43.3715 32.2629 43.113 32.8411C42.609 34.0358 42.6348 34.4598 43.2164 34.614C43.7722 34.7424 44.0049 34.4726 44.5607 33.098C45.7239 30.1946 46.0729 28.1133 45.9695 24.6575C45.879 21.253 45.3879 19.3002 43.8627 16.2298C40.1403 8.68852 31.9328 4.17919 23.428 5.0014Z" fill="url(#paint1_linear_33_3)"/>
<path d="M22.5655 47.4569C22.3223 47.7024 22.3095 47.8833 22.3095 51.5268V55.3383H21.1189C19.8387 55.3383 19.6211 55.4288 19.6211 55.9844C19.6211 56.2428 20.2228 56.9275 22.4119 59.124C24.1786 60.907 25.2795 61.9277 25.4459 61.9277C25.6124 61.9277 26.7133 60.907 28.4928 59.1111C30.6563 56.9275 31.2708 56.2298 31.2708 55.9714C31.2708 55.4288 31.0531 55.3383 29.773 55.3383H28.5824L28.5568 51.4364L28.5184 47.5344L28.1855 47.3406C27.8783 47.1726 27.8143 47.1726 27.507 47.3664L27.1742 47.5861V51.979C27.1742 56.359 27.1742 56.359 27.4558 56.5528C27.6094 56.6691 28.0063 56.7596 28.3264 56.7596H28.9024L27.2382 58.4392C26.3293 59.3566 25.5227 60.1189 25.4459 60.1189C25.3691 60.1189 24.5626 59.3566 23.6537 58.4392L21.9894 56.7596H22.5655C22.8856 56.7596 23.2824 56.6691 23.436 56.5528C23.7177 56.359 23.7177 56.359 23.7177 51.979C23.7177 47.599 23.7177 47.599 23.436 47.4052C23.052 47.1339 22.8728 47.1468 22.5655 47.4569Z" fill="url(#paint2_linear_33_3)"/>
<path d="M21.2239 12.6503C20.6857 12.777 20.063 13.273 19.7992 13.8112C19.6303 14.1172 19.5881 14.4233 19.5881 15.1515V16.1013L18.67 16.1435C17.393 16.2068 16.7176 16.5762 16.2849 17.4415C15.8839 18.2436 15.9367 19.0984 16.4221 19.8371C16.8232 20.4492 17.4669 20.7975 18.269 20.8713L18.9022 20.9241L18.9338 24.7972L18.9549 28.6808H18.5222C17.4986 28.6808 16.6754 29.1979 16.2533 30.0949C16.1161 30.3904 16 30.802 16 31.0131C16 31.8679 16.5593 32.786 17.3192 33.1976C17.5091 33.3031 18.0157 33.3876 18.5856 33.4298L19.5354 33.4825L19.5881 34.559C19.6409 35.5299 19.6725 35.6671 19.9575 36.0786C20.9389 37.4611 23.0074 37.2501 23.7145 35.6987C23.8517 35.3927 23.915 35.0233 23.915 34.3479V33.4298H24.4954H25.0758V34.3479C25.0758 35.4349 25.2658 35.952 25.8462 36.4586C26.8488 37.3345 28.4001 37.1234 29.0966 35.9942C29.3077 35.6671 29.3605 35.4032 29.4027 34.5484L29.4555 33.5036L30.1942 33.3242C31.3023 33.0604 32.1043 32.6172 32.8958 31.8468C34.6055 30.1688 35.0276 27.7099 33.9934 25.557L33.624 24.7866L33.9406 24.164C34.9221 22.2327 34.7216 20.0376 33.4024 18.3174C33.1491 17.9797 32.6742 17.5048 32.3576 17.2727C31.545 16.6606 31.0807 16.4706 29.6982 16.1751L29.4027 16.1224V15.162C29.4027 14.0539 29.2655 13.674 28.664 13.1252C27.7142 12.2704 26.2261 12.4709 25.4452 13.5685C25.1603 13.98 25.1286 14.1067 25.0969 15.067L25.0547 16.1224H24.4954H23.9361L23.8939 15.0776C23.8622 14.1067 23.8411 13.9906 23.5456 13.5685C23.0074 12.8086 22.0998 12.4498 21.2239 12.6503ZM22.2687 14.3494C22.3953 14.5288 22.4375 14.8771 22.4375 15.8163C22.4375 16.9033 22.4586 17.0722 22.6591 17.3254L22.8702 17.5998H24.4743C26.5955 17.5998 26.5533 17.6315 26.5533 15.8585C26.5533 14.3811 26.6588 14.1172 27.2287 14.1172C27.8197 14.1172 27.9041 14.3177 27.9463 15.8374C27.9885 17.4943 28.0202 17.5365 29.2444 17.6315C30.7852 17.7476 32.0516 18.6129 32.7059 20.006C33.0119 20.6392 33.0436 20.8186 33.0436 21.6628C33.0436 22.4649 33.0014 22.7076 32.7586 23.2142C32.6003 23.5519 32.3576 23.9846 32.2099 24.1745C31.8405 24.6494 31.8616 24.9449 32.3048 25.557C32.8325 26.2957 33.0436 27.0028 33.033 27.9948C33.033 29.0924 32.7375 29.8522 32.0305 30.6331C31.3234 31.393 30.4053 31.8573 29.4344 31.9206C28.0308 32.0156 27.9252 32.1634 27.9252 34.0208C27.9252 35.1289 27.9147 35.2238 27.6931 35.3716C27.3659 35.6038 27.081 35.5826 26.796 35.3083C26.5639 35.0972 26.5533 35.0022 26.5533 33.7886C26.5533 31.9523 26.6166 32.0051 24.4954 32.0051C22.3742 32.0051 22.4375 31.9418 22.4375 33.8097C22.4375 35.0128 22.4164 35.1289 22.2053 35.3294C21.9415 35.5721 21.6144 35.6038 21.3189 35.3927C21.1395 35.2555 21.1078 35.0655 21.0656 33.8097C21.0023 31.9629 21.0445 32.0156 19.3982 31.9734C18.0684 31.9418 17.773 31.8573 17.5935 31.4563C17.4036 31.0447 17.4564 30.7914 17.7835 30.4643C18.079 30.1688 18.1423 30.1582 19.0077 30.1582C19.8308 30.1582 19.9364 30.1371 20.1686 29.8944L20.4324 29.6411V24.8922C20.4324 22.2222 20.3902 20.0376 20.3374 19.8899C20.2108 19.5522 19.7359 19.3939 18.8388 19.3939C17.9735 19.3939 17.8257 19.3411 17.6358 18.9612C17.4036 18.518 17.4458 18.2541 17.7835 17.9059C18.0896 17.5998 18.1001 17.5998 19.3665 17.5998C20.6012 17.5998 20.6329 17.5998 20.844 17.3254C21.0445 17.0722 21.0656 16.9033 21.0656 15.7741C21.0656 14.7399 21.0972 14.4655 21.245 14.3072C21.4877 14.0328 22.0681 14.0539 22.2687 14.3494Z" fill="#FFB32C"/>
<path d="M22.6909 19.5415C22.5115 19.6259 22.3321 19.7631 22.2899 19.8687C22.2582 19.9636 22.2266 20.7973 22.2266 21.7155C22.2266 23.1929 22.2477 23.404 22.4271 23.6256L22.6276 23.8789L25.5509 23.9106C27.3977 23.9317 28.6852 23.9 29.0334 23.8261C30.7009 23.4779 31.3974 21.4728 30.2787 20.238C29.5928 19.4676 29.5083 19.4465 26.0785 19.4149C23.6513 19.3938 22.9547 19.4254 22.6909 19.5415ZM28.8435 20.9768C29.5189 21.2195 29.5189 22.106 28.854 22.3381C28.6535 22.412 27.5454 22.4542 26.1207 22.4542H23.704V21.7366C23.704 21.3356 23.7357 20.9768 23.7779 20.9451C23.894 20.829 28.4952 20.8607 28.8435 20.9768Z" fill="#FFB32C"/>
<path d="M22.4482 26.0002C22.2477 26.264 22.2266 26.4118 22.2266 27.9631C22.2266 29.5989 22.2371 29.6411 22.4904 29.8944L22.7437 30.1582H25.8463C27.9148 30.1582 29.0651 30.116 29.3078 30.0316C29.8672 29.8522 30.226 29.5567 30.532 29.029C31.1019 28.0475 30.8064 26.7811 29.846 26.0952L29.3817 25.7786L26.0258 25.7469L22.6698 25.7153L22.4482 26.0002ZM29.0968 27.3932C29.2551 27.5304 29.3289 27.7098 29.3289 27.942C29.3289 28.1742 29.2551 28.3536 29.0968 28.4908C28.8751 28.6596 28.6219 28.6807 26.279 28.6807H23.704V27.942V27.2033H26.279C28.6219 27.2033 28.8751 27.2244 29.0968 27.3932Z" fill="#FFB32C"/>
<g filter="url(#filter0_f_33_3)">
<path d="M21.2239 12.6503C20.6857 12.777 20.063 13.273 19.7992 13.8112C19.6303 14.1172 19.5881 14.4233 19.5881 15.1515V16.1013L18.67 16.1435C17.393 16.2068 16.7176 16.5762 16.2849 17.4415C15.8839 18.2436 15.9367 19.0984 16.4221 19.8371C16.8232 20.4492 17.4669 20.7975 18.269 20.8713L18.9022 20.9241L18.9338 24.7972L18.9549 28.6808H18.5222C17.4986 28.6808 16.6754 29.1979 16.2533 30.0949C16.1161 30.3904 16 30.802 16 31.0131C16 31.8679 16.5593 32.786 17.3192 33.1976C17.5091 33.3031 18.0157 33.3876 18.5856 33.4298L19.5354 33.4825L19.5881 34.559C19.6409 35.5299 19.6725 35.6671 19.9575 36.0786C20.9389 37.4611 23.0074 37.2501 23.7145 35.6987C23.8517 35.3927 23.915 35.0233 23.915 34.3479V33.4298H24.4954H25.0758V34.3479C25.0758 35.4349 25.2658 35.952 25.8462 36.4586C26.8488 37.3345 28.4001 37.1234 29.0966 35.9942C29.3077 35.6671 29.3605 35.4032 29.4027 34.5484L29.4555 33.5036L30.1942 33.3242C31.3023 33.0604 32.1043 32.6172 32.8958 31.8468C34.6055 30.1688 35.0276 27.7099 33.9934 25.557L33.624 24.7866L33.9406 24.164C34.9221 22.2327 34.7216 20.0376 33.4024 18.3174C33.1491 17.9797 32.6742 17.5048 32.3576 17.2727C31.545 16.6606 31.0807 16.4706 29.6982 16.1751L29.4027 16.1224V15.162C29.4027 14.0539 29.2655 13.674 28.664 13.1252C27.7142 12.2704 26.2261 12.4709 25.4452 13.5685C25.1603 13.98 25.1286 14.1067 25.0969 15.067L25.0547 16.1224H24.4954H23.9361L23.8939 15.0776C23.8622 14.1067 23.8411 13.9906 23.5456 13.5685C23.0074 12.8086 22.0998 12.4498 21.2239 12.6503ZM22.2687 14.3494C22.3953 14.5288 22.4375 14.8771 22.4375 15.8163C22.4375 16.9033 22.4586 17.0722 22.6591 17.3254L22.8702 17.5998H24.4743C26.5955 17.5998 26.5533 17.6315 26.5533 15.8585C26.5533 14.3811 26.6588 14.1172 27.2287 14.1172C27.8197 14.1172 27.9041 14.3177 27.9463 15.8374C27.9885 17.4943 28.0202 17.5365 29.2444 17.6315C30.7852 17.7476 32.0516 18.6129 32.7059 20.006C33.0119 20.6392 33.0436 20.8186 33.0436 21.6628C33.0436 22.4649 33.0014 22.7076 32.7586 23.2142C32.6003 23.5519 32.3576 23.9846 32.2099 24.1745C31.8405 24.6494 31.8616 24.9449 32.3048 25.557C32.8325 26.2957 33.0436 27.0028 33.033 27.9948C33.033 29.0924 32.7375 29.8522 32.0305 30.6331C31.3234 31.393 30.4053 31.8573 29.4344 31.9206C28.0308 32.0156 27.9252 32.1634 27.9252 34.0208C27.9252 35.1289 27.9147 35.2238 27.6931 35.3716C27.3659 35.6038 27.081 35.5826 26.796 35.3083C26.5639 35.0972 26.5533 35.0022 26.5533 33.7886C26.5533 31.9523 26.6166 32.0051 24.4954 32.0051C22.3742 32.0051 22.4375 31.9418 22.4375 33.8097C22.4375 35.0128 22.4164 35.1289 22.2053 35.3294C21.9415 35.5721 21.6144 35.6038 21.3189 35.3927C21.1395 35.2555 21.1078 35.0655 21.0656 33.8097C21.0023 31.9629 21.0445 32.0156 19.3982 31.9734C18.0684 31.9418 17.773 31.8573 17.5935 31.4563C17.4036 31.0447 17.4564 30.7914 17.7835 30.4643C18.079 30.1688 18.1423 30.1582 19.0077 30.1582C19.8308 30.1582 19.9364 30.1371 20.1686 29.8944L20.4324 29.6411V24.8922C20.4324 22.2222 20.3902 20.0376 20.3374 19.8899C20.2108 19.5522 19.7359 19.3939 18.8388 19.3939C17.9735 19.3939 17.8257 19.3411 17.6358 18.9612C17.4036 18.518 17.4458 18.2541 17.7835 17.9059C18.0896 17.5998 18.1001 17.5998 19.3665 17.5998C20.6012 17.5998 20.6329 17.5998 20.844 17.3254C21.0445 17.0722 21.0656 16.9033 21.0656 15.7741C21.0656 14.7399 21.0972 14.4655 21.245 14.3072C21.4877 14.0328 22.0681 14.0539 22.2687 14.3494Z" fill="#FFB32C"/>
<path d="M22.6909 19.5415C22.5115 19.6259 22.3321 19.7631 22.2899 19.8687C22.2582 19.9636 22.2266 20.7973 22.2266 21.7155C22.2266 23.1929 22.2477 23.404 22.4271 23.6256L22.6276 23.8789L25.5509 23.9106C27.3977 23.9317 28.6852 23.9 29.0334 23.8261C30.7009 23.4779 31.3974 21.4728 30.2787 20.238C29.5928 19.4676 29.5083 19.4465 26.0785 19.4149C23.6513 19.3938 22.9547 19.4254 22.6909 19.5415ZM28.8435 20.9768C29.5189 21.2195 29.5189 22.106 28.854 22.3381C28.6535 22.412 27.5454 22.4542 26.1207 22.4542H23.704V21.7366C23.704 21.3356 23.7357 20.9768 23.7779 20.9451C23.894 20.829 28.4952 20.8607 28.8435 20.9768Z" fill="#FFB32C"/>
<path d="M22.4482 26.0002C22.2477 26.264 22.2266 26.4118 22.2266 27.9631C22.2266 29.5989 22.2371 29.6411 22.4904 29.8944L22.7437 30.1582H25.8463C27.9148 30.1582 29.0651 30.116 29.3078 30.0316C29.8672 29.8522 30.226 29.5567 30.532 29.029C31.1019 28.0475 30.8064 26.7811 29.846 26.0952L29.3817 25.7786L26.0258 25.7469L22.6698 25.7153L22.4482 26.0002ZM29.0968 27.3932C29.2551 27.5304 29.3289 27.7098 29.3289 27.942C29.3289 28.1742 29.2551 28.3536 29.0968 28.4908C28.8751 28.6596 28.6219 28.6807 26.279 28.6807H23.704V27.942V27.2033H26.279C28.6219 27.2033 28.8751 27.2244 29.0968 27.3932Z" fill="#FFB32C"/>
</g>
<defs>
<filter id="filter0_f_33_3" x="6" y="2.59485" width="38.5564" height="44.4052" filterUnits="userSpaceOnUse" color-interpolation-filters="sRGB">
<feFlood flood-opacity="0" result="BackgroundImageFix"/>
<feBlend mode="normal" in="SourceGraphic" in2="BackgroundImageFix" result="shape"/>
<feGaussianBlur stdDeviation="5" result="effect1_foregroundBlur_33_3"/>
</filter>
<linearGradient id="paint0_linear_33_3" x1="1.36241e-07" y1="11.5667" x2="54.4163" y2="11.5667" gradientUnits="userSpaceOnUse">
<stop stop-color="#6096FD"/>
<stop offset="1" stop-color="#FA798D"/>
</linearGradient>
<linearGradient id="paint1_linear_33_3" x1="4.90625" y1="10.9049" x2="49.0989" y2="10.9049" gradientUnits="userSpaceOnUse">
<stop stop-color="#6096FD"/>
<stop offset="1" stop-color="#FA798D"/>
</linearGradient>
<linearGradient id="paint2_linear_33_3" x1="19.6211" y1="50.1812" x2="32.1533" y2="50.1812" gradientUnits="userSpaceOnUse">
<stop stop-color="#6096FD"/>
<stop offset="1" stop-color="#FA798D"/>
</linearGradient>
</defs>
</svg>
