<svg width="53" height="60" viewBox="0 0 53 60" fill="none" xmlns="http://www.w3.org/2000/svg">
<path d="M23.9063 19.1486C23.716 19.2877 23.6959 19.4094 23.6759 20.3833L23.6458 21.4615L23.0048 21.6093C20.9412 22.105 19.3986 23.3571 18.8477 24.9918C18.6474 25.6005 18.6373 26.8092 18.8377 27.4787C19.058 28.2004 19.4487 28.783 20.1599 29.4352C21.2518 30.4438 22.2435 30.8438 25.5591 31.609C28.2136 32.2264 28.5141 32.322 28.9148 32.722C29.1953 33.0003 29.2253 33.0698 29.1853 33.4524C29.0951 34.2263 28.3138 34.8176 27.1518 34.9915C26.3004 35.1219 25.7494 35.1132 25.0482 34.9567C23.726 34.6524 23.165 34.0698 22.6942 32.5046C22.6141 32.2177 22.5239 32.122 22.3336 32.0786C21.9429 31.9916 18.4771 32.3046 18.2166 32.4438C17.9462 32.5916 17.9361 32.7742 18.1465 33.6785C18.7175 36.0871 20.3703 37.7132 22.9747 38.3914L23.6959 38.5827V39.6522C23.6959 40.8087 23.7761 41 24.2368 41C24.7277 41 24.7978 40.7913 24.7978 39.3305C24.7978 37.7479 24.8278 37.8001 23.6959 37.574C21.392 37.1045 19.9295 35.861 19.3285 33.8524C19.2183 33.4524 19.2083 33.3046 19.2884 33.2611C19.3586 33.2263 19.8193 33.1655 20.3302 33.1394C20.8311 33.1046 21.3419 33.0524 21.4521 33.0264C21.6324 32.9916 21.6925 33.0437 21.7927 33.322C22.0231 33.9394 22.4939 34.6524 22.9046 35.0089C24.357 36.2697 27.6226 36.3828 29.2554 35.2263C30.3873 34.4176 30.6177 32.9481 29.7562 32.0612C29.2754 31.5742 28.3739 31.2612 25.8997 30.696C22.0932 29.8265 20.9312 29.2352 20.1199 27.7309C19.8694 27.27 19.8394 27.1222 19.8394 26.2527C19.8394 25.3223 19.8494 25.2788 20.22 24.6353C20.8611 23.5049 22.0832 22.7571 23.7961 22.4441C24.2469 22.3658 24.5975 22.2528 24.6676 22.1658C24.7577 22.0615 24.7978 21.6789 24.7978 20.9833V19.9572H25.9998H27.2019V21.0007C27.2019 22.2093 27.272 22.3224 28.0133 22.4267C29.2754 22.5919 30.5676 23.1919 31.2488 23.9136C31.6895 24.3745 32.1803 25.2614 32.2705 25.7483L32.3306 26.1048L31.8598 26.157C31.5993 26.1918 30.9883 26.2179 30.5075 26.2179C29.636 26.2179 29.626 26.2179 29.5759 25.9744C29.4657 25.557 28.9148 24.8353 28.4841 24.5658C27.3521 23.8527 25.0182 23.7658 23.5256 24.3832C22.8645 24.6614 22.574 24.9049 22.3436 25.3657C21.9429 26.2092 22.4037 27.1657 23.4455 27.6265C24.0465 27.8961 24.7778 28.1048 26.8112 28.5656C28.9849 29.0613 30.0567 29.4004 30.8781 29.8612C32.2805 30.6525 32.9917 31.9394 32.8815 33.522C32.7713 35.2263 31.5693 36.6871 29.8263 37.261C29.5158 37.3653 28.8547 37.5306 28.3538 37.6175C27.7829 37.7218 27.4022 37.8349 27.3321 37.9305C27.2419 38.0349 27.2019 38.4696 27.2019 39.3914C27.2019 40.5565 27.2219 40.7304 27.3822 40.8522C27.5925 41.0174 27.873 41.0435 28.1034 40.913C28.2236 40.8522 28.2637 40.5826 28.3038 39.7305L28.3538 38.6349L29.1051 38.4696C31.5593 37.9305 33.2421 36.548 33.8131 34.6002C34.314 32.9046 33.7831 30.9482 32.5209 29.8004C31.5292 28.9048 30.2971 28.3743 27.863 27.8178C25.3387 27.2352 24.7477 27.0787 24.1667 26.8526C22.9847 26.3918 23.0048 25.6353 24.2168 25.1657C24.6776 24.9918 24.898 24.9571 25.8496 24.9658C27.1318 24.9658 27.7027 25.131 28.1335 25.6179C28.3739 25.9049 28.7044 26.6179 28.7044 26.87C28.7044 26.9396 28.8046 27.0526 28.9348 27.1222C29.1151 27.2178 29.4958 27.2265 31.1586 27.157C33.0218 27.0787 33.172 27.0613 33.3423 26.8874C33.5026 26.7309 33.5226 26.6179 33.4625 26.2179C33.2021 24.3049 32.1102 22.8789 30.2971 22.0963C29.8163 21.8876 29.1652 21.6615 28.8647 21.6006L28.3038 21.4963V20.3833C28.3038 18.9225 28.444 19.0007 25.9898 19.0007C24.357 19.0007 24.0966 19.0181 23.9063 19.1486Z" fill="#FFB32C"/>
<g filter="url(#filter0_f_1_3751)">
<path d="M23.9063 19.1486C23.716 19.2877 23.6959 19.4094 23.6759 20.3833L23.6458 21.4615L23.0048 21.6093C20.9412 22.105 19.3986 23.3571 18.8477 24.9918C18.6474 25.6005 18.6373 26.8092 18.8377 27.4787C19.058 28.2004 19.4487 28.783 20.1599 29.4352C21.2518 30.4438 22.2435 30.8438 25.5591 31.609C28.2136 32.2264 28.5141 32.322 28.9148 32.722C29.1953 33.0003 29.2253 33.0698 29.1853 33.4524C29.0951 34.2263 28.3138 34.8176 27.1518 34.9915C26.3004 35.1219 25.7494 35.1132 25.0482 34.9567C23.726 34.6524 23.165 34.0698 22.6942 32.5046C22.6141 32.2177 22.5239 32.122 22.3336 32.0786C21.9429 31.9916 18.4771 32.3046 18.2166 32.4438C17.9462 32.5916 17.9361 32.7742 18.1465 33.6785C18.7175 36.0871 20.3703 37.7132 22.9747 38.3914L23.6959 38.5827V39.6522C23.6959 40.8087 23.7761 41 24.2368 41C24.7277 41 24.7978 40.7913 24.7978 39.3305C24.7978 37.7479 24.8278 37.8001 23.6959 37.574C21.392 37.1045 19.9295 35.861 19.3285 33.8524C19.2183 33.4524 19.2083 33.3046 19.2884 33.2611C19.3586 33.2263 19.8193 33.1655 20.3302 33.1394C20.8311 33.1046 21.3419 33.0524 21.4521 33.0264C21.6324 32.9916 21.6925 33.0437 21.7927 33.322C22.0231 33.9394 22.4939 34.6524 22.9046 35.0089C24.357 36.2697 27.6226 36.3828 29.2554 35.2263C30.3873 34.4176 30.6177 32.9481 29.7562 32.0612C29.2754 31.5742 28.3739 31.2612 25.8997 30.696C22.0932 29.8265 20.9312 29.2352 20.1199 27.7309C19.8694 27.27 19.8394 27.1222 19.8394 26.2527C19.8394 25.3223 19.8494 25.2788 20.22 24.6353C20.8611 23.5049 22.0832 22.7571 23.7961 22.4441C24.2469 22.3658 24.5975 22.2528 24.6676 22.1658C24.7577 22.0615 24.7978 21.6789 24.7978 20.9833V19.9572H25.9998H27.2019V21.0007C27.2019 22.2093 27.272 22.3224 28.0133 22.4267C29.2754 22.5919 30.5676 23.1919 31.2488 23.9136C31.6895 24.3745 32.1803 25.2614 32.2705 25.7483L32.3306 26.1048L31.8598 26.157C31.5993 26.1918 30.9883 26.2179 30.5075 26.2179C29.636 26.2179 29.626 26.2179 29.5759 25.9744C29.4657 25.557 28.9148 24.8353 28.4841 24.5658C27.3521 23.8527 25.0182 23.7658 23.5256 24.3832C22.8645 24.6614 22.574 24.9049 22.3436 25.3657C21.9429 26.2092 22.4037 27.1657 23.4455 27.6265C24.0465 27.8961 24.7778 28.1048 26.8112 28.5656C28.9849 29.0613 30.0567 29.4004 30.8781 29.8612C32.2805 30.6525 32.9917 31.9394 32.8815 33.522C32.7713 35.2263 31.5693 36.6871 29.8263 37.261C29.5158 37.3653 28.8547 37.5306 28.3538 37.6175C27.7829 37.7218 27.4022 37.8349 27.3321 37.9305C27.2419 38.0349 27.2019 38.4696 27.2019 39.3914C27.2019 40.5565 27.2219 40.7304 27.3822 40.8522C27.5925 41.0174 27.873 41.0435 28.1034 40.913C28.2236 40.8522 28.2637 40.5826 28.3038 39.7305L28.3538 38.6349L29.1051 38.4696C31.5593 37.9305 33.2421 36.548 33.8131 34.6002C34.314 32.9046 33.7831 30.9482 32.5209 29.8004C31.5292 28.9048 30.2971 28.3743 27.863 27.8178C25.3387 27.2352 24.7477 27.0787 24.1667 26.8526C22.9847 26.3918 23.0048 25.6353 24.2168 25.1657C24.6776 24.9918 24.898 24.9571 25.8496 24.9658C27.1318 24.9658 27.7027 25.131 28.1335 25.6179C28.3739 25.9049 28.7044 26.6179 28.7044 26.87C28.7044 26.9396 28.8046 27.0526 28.9348 27.1222C29.1151 27.2178 29.4958 27.2265 31.1586 27.157C33.0218 27.0787 33.172 27.0613 33.3423 26.8874C33.5026 26.7309 33.5226 26.6179 33.4625 26.2179C33.2021 24.3049 32.1102 22.8789 30.2971 22.0963C29.8163 21.8876 29.1652 21.6615 28.8647 21.6006L28.3038 21.4963V20.3833C28.3038 18.9225 28.444 19.0007 25.9898 19.0007C24.357 19.0007 24.0966 19.0181 23.9063 19.1486Z" fill="#FFB32C"/>
</g>
<path d="M13.475 0.622608L13.4749 0.622482C13.9859 0.336029 14.7889 0.572536 15.0855 1.14098L15.0876 1.145C15.202 1.3594 15.2505 1.53577 15.2505 3.25477V5.20316V5.69822L15.7455 5.70314L21.614 5.76147H21.6142C27.6952 5.81983 28.8058 5.89054 31.1098 6.35819L31.1107 6.35838C35.482 7.23719 39.608 9.43005 42.9251 12.6441L42.9256 12.6446C44.96 14.6105 46.3631 16.5369 47.7048 19.1516C51.4616 26.5407 50.9817 35.7542 46.4929 42.7334L13.475 0.622608ZM13.475 0.622608L13.4644 0.628235C13.4658 0.627491 13.4634 0.629036 13.4564 0.633518C13.4392 0.644608 13.3943 0.673664 13.3102 0.730434C13.2057 0.800987 13.0617 0.899876 12.8821 1.02449C12.5231 1.27348 12.0263 1.62188 11.4274 2.04451C10.2297 2.88959 8.62636 4.0294 6.90608 5.25983L6.90589 5.25997C3.60349 7.61967 1.97449 8.78679 1.16404 9.47638C0.755366 9.82411 0.609318 10.0068 0.550674 10.1181C0.507524 10.2 0.5 10.2556 0.5 10.4767C0.5 10.6613 0.514663 10.76 0.547932 10.8459C0.581248 10.9319 0.650044 11.0471 0.82565 11.2252C1.19577 11.6006 1.90725 12.1288 3.31125 13.1257L3.31331 13.1272C3.85484 13.5159 4.37881 13.8913 4.82961 14.2143C5.57775 14.7504 6.12434 15.142 6.21518 15.2102L6.21521 15.2101L6.2209 15.2145L6.47758 15.4128L6.85037 15.7009L6.58497 16.0902L6.23558 16.6026C6.23555 16.6026 6.23551 16.6027 6.23548 16.6028C5.59224 17.5507 4.6735 19.2828 4.14626 20.5091C-0.354054 31.0646 3.40347 43.4545 13.0518 49.8563L13.0524 49.8566C16.1192 51.8974 20.0081 53.2838 23.9129 53.7426C24.4798 53.7982 27.5733 53.8914 30.8413 53.9264L36.7561 53.9847L37.2511 53.9896V54.4847V56.4331C37.2511 57.5694 37.2816 58.1308 37.3808 58.4655C37.424 58.6116 37.4756 58.6941 37.5358 58.7588C37.6034 58.8316 37.704 58.9059 37.8845 59.0083L37.8845 59.0082L37.8909 59.012C38.2845 59.243 38.6473 59.2532 38.9933 59.0871C39.0007 59.0823 39.0122 59.0748 39.029 59.0637C39.0603 59.0429 39.1024 59.0145 39.1553 58.9785C39.261 58.9065 39.406 58.8067 39.5862 58.6817C39.9465 58.4319 40.4446 58.0837 41.0442 57.6619C42.2432 56.8184 43.8462 55.6817 45.5599 54.4518L45.5608 54.4512C48.8808 52.0797 50.5183 50.9069 51.333 50.2131C51.7437 49.8633 51.8907 49.679 51.9499 49.566C51.994 49.4819 52.0016 49.4239 52.0016 49.1995C52.0016 49.02 51.9866 48.9243 51.9535 48.8407C51.9198 48.7557 51.8501 48.6409 51.6728 48.4624C51.3003 48.0872 50.5877 47.5585 49.1896 46.5615L49.1883 46.5606C48.6466 46.1718 48.1224 45.7962 47.6715 45.4732C46.9236 44.9373 46.3773 44.5458 46.2864 44.4777L46.2834 44.4754L46.0384 44.2887L45.6707 44.0086L45.9212 43.6201L46.4926 42.7338L13.475 0.622608ZM33.5526 15.3038C33.5612 15.3428 33.5714 15.3897 33.5786 15.4341C33.5844 15.4698 33.5964 15.5487 33.587 15.6363C33.5787 15.7139 33.5305 15.9706 33.2564 16.0795C33.0473 16.1626 32.8655 16.0837 32.8262 16.0666L32.8247 16.066C32.7129 16.0176 32.5949 15.9283 32.5017 15.8559C32.3922 15.7709 32.2492 15.6537 32.07 15.5063L32.0684 15.5049C31.0149 14.6307 29.7247 13.8911 28.4885 13.4568L28.4836 13.4551C27.5319 13.1095 26.932 12.9333 25.7678 12.8373C24.5726 12.7388 22.8005 12.7267 19.5073 12.7267C16.6782 12.7267 15.2206 12.7297 14.4129 12.7599C14.0074 12.7751 13.7909 12.7964 13.6567 12.8215C13.5435 12.8427 13.4909 12.8656 13.4088 12.9066C13.141 13.0429 13.0037 13.1884 12.9127 13.4099C12.8073 13.6663 12.7504 14.0591 12.7504 14.7235V15.8318V16.8016L11.9604 16.2391L8.27359 13.614L8.27231 13.6131C7.2611 12.8883 6.34167 12.2149 5.67663 11.7128C5.34482 11.4623 5.07264 11.2517 4.88311 11.0976C4.7896 11.0215 4.70919 10.9536 4.65025 10.8988C4.62259 10.8732 4.58791 10.8397 4.55726 10.8036C4.54351 10.7874 4.51567 10.7535 4.49011 10.708C4.47739 10.6853 4.45576 10.6432 4.44067 10.587C4.42673 10.535 4.40591 10.4249 4.44914 10.2952L4.44897 10.2952L4.45359 10.2825C4.47985 10.2102 4.51701 10.1611 4.52682 10.1481L4.52707 10.1478C4.54243 10.1275 4.55659 10.1118 4.56517 10.1026C4.58265 10.0839 4.59972 10.0679 4.61135 10.0573C4.63589 10.035 4.66504 10.0105 4.69447 9.98645C4.75478 9.93716 4.83784 9.87219 4.93777 9.79558C5.13872 9.64152 5.42119 9.43024 5.7567 9.18223C6.42841 8.68572 7.32011 8.03659 8.21435 7.39201C9.10855 6.74746 10.007 6.10624 10.6921 5.62565C11.0342 5.38564 11.3254 5.18417 11.5368 5.04203C11.6419 4.97138 11.7312 4.91276 11.7988 4.87074C11.8317 4.85026 11.8657 4.82981 11.8966 4.81308C11.9114 4.80511 11.9335 4.79351 11.959 4.78256C11.9716 4.77714 11.9923 4.76869 12.018 4.76085C12.0282 4.75774 12.0508 4.75095 12.0821 4.74561C12.3104 4.70401 12.4746 4.82784 12.5418 4.89931C12.606 4.96766 12.6365 5.03793 12.6475 5.06448C12.6733 5.12669 12.686 5.18792 12.6925 5.22233C12.7075 5.30178 12.7179 5.40005 12.7256 5.50024C12.7414 5.70645 12.7504 5.98246 12.7504 6.27653C12.7504 7.09584 12.8005 7.31681 12.928 7.56392L12.9298 7.56732C12.9396 7.58674 12.9488 7.60498 12.9575 7.62213C13.0725 7.84946 13.0899 7.88376 13.1349 7.92039C13.173 7.95142 13.2887 8.02065 13.7171 8.07446C14.5182 8.17508 16.0516 8.18976 19.2161 8.22007C19.4352 8.22217 19.6621 8.22435 19.8971 8.22663L19.898 8.22664C25.9882 8.29611 26.3972 8.30389 27.354 8.5718C29.0066 9.03101 30.369 9.82784 31.4156 10.9667C32.4612 12.1045 33.1696 13.5598 33.5526 15.3038ZM33.5526 15.3038C33.5525 15.3037 33.5525 15.3035 33.5524 15.3033L33.0644 15.4118L33.5527 15.3046C33.5527 15.3043 33.5526 15.3041 33.5526 15.3038ZM45.4695 39.4259C45.0458 40.2733 44.6602 40.9654 44.354 41.4353C44.2035 41.6665 44.0588 41.8646 43.9282 42.0018C43.8668 42.0662 43.7798 42.1484 43.6726 42.2051C43.5764 42.2559 43.3024 42.3624 43.0458 42.1608L43.0401 42.1563L43.035 42.1521C43.0369 42.1537 43.0367 42.1536 43.0336 42.1512C43.0286 42.1475 43.016 42.138 42.9918 42.1202C42.9581 42.0955 42.9115 42.0617 42.8529 42.0194C42.7359 41.9349 42.5744 41.8191 42.3798 41.6799C42.2215 41.5666 42.041 41.4377 41.8452 41.2978C41.5613 41.095 41.2452 40.8692 40.9178 40.6348C40.025 40.0005 39.5241 39.6544 39.1884 39.46C38.8766 39.2795 38.751 39.2552 38.6047 39.2445L38.6047 39.2446L38.599 39.2441C38.1016 39.2019 37.6241 39.4676 37.4183 39.8713L37.4183 39.8714L37.414 39.8795C37.2997 40.0938 37.2511 40.2698 37.2511 42.001V43.961V44.461H36.7511H32.0377C26.9393 44.461 26.0889 44.3978 24.5354 43.7714L24.5354 43.7714C22.2993 42.8695 20.2718 40.8447 19.4036 38.6254C19.2308 38.1883 19.0591 37.9262 18.8822 37.7654C18.7167 37.615 18.5155 37.5246 18.2178 37.493L18.2178 37.4931L18.2085 37.492C17.7757 37.4378 17.2755 37.6921 17.0268 38.1268C16.7596 38.6136 16.5214 39.5291 16.3866 40.6034C16.2533 41.6657 16.2299 42.811 16.3511 43.7199L16.3511 43.7202C16.5627 45.3126 17.2814 47.2566 18.1261 48.5713C18.1492 48.6046 18.1777 48.648 18.2019 48.6948C18.2151 48.7204 18.2334 48.7592 18.2478 48.8067C18.2607 48.8494 18.2816 48.935 18.2668 49.041C18.2493 49.1655 18.1837 49.2985 18.0561 49.3903C17.9457 49.4696 17.834 49.4853 17.7754 49.4887C17.6655 49.4952 17.5699 49.4673 17.5289 49.4549C17.3491 49.4003 17.0304 49.2465 16.5674 49.0178L16.5645 49.0164C10.4679 45.9561 6.21866 40.1372 5.02582 33.2426L5.02563 33.2415C4.89601 32.4823 4.82605 31.1888 4.81581 29.9326C4.80559 28.6806 4.85409 27.4012 4.97848 26.6709C5.34819 24.347 6.02867 22.2451 7.03189 20.2506L7.03198 20.2505C7.45592 19.4085 7.84174 18.719 8.14798 18.2504C8.29851 18.0201 8.44312 17.8224 8.57372 17.6856C8.63506 17.6213 8.72208 17.5393 8.82927 17.4826C8.92533 17.4319 9.19932 17.3255 9.45586 17.5271L9.46151 17.5315L9.46702 17.5361C9.46542 17.5348 9.46492 17.5343 9.46591 17.5351C9.46846 17.5369 9.48087 17.5464 9.50978 17.5676C9.54347 17.5923 9.59007 17.6262 9.64867 17.6685C9.76569 17.7529 9.92718 17.8687 10.1218 18.008C10.2798 18.1209 10.4598 18.2495 10.655 18.389C10.9394 18.5922 11.2561 18.8185 11.5843 19.0534C12.4768 19.6875 12.9776 20.0335 13.3132 20.2278C13.6251 20.4083 13.7506 20.4326 13.8969 20.4433L13.8969 20.4433L13.9026 20.4438C14.4 20.4859 14.8775 20.2203 15.0834 19.8165L15.0833 19.8165L15.0876 19.8083C15.2019 19.5941 15.2505 19.4184 15.2505 17.6752V15.7152V15.2106L15.755 15.2152L20.9232 15.2618H20.9235L21.2521 15.2646C23.7628 15.2859 25.0698 15.2969 25.921 15.3763C26.8409 15.462 27.2647 15.6322 28.021 15.936L28.0578 15.9508C28.058 15.9508 28.0582 15.9509 28.0584 15.951C30.208 16.8086 32.2437 18.8839 33.0979 21.0622C33.2707 21.4995 33.4427 21.7622 33.619 21.9234C33.7838 22.0741 33.9824 22.1636 34.2729 22.1949L34.2785 22.1955C34.6574 22.2407 34.9059 22.1609 35.1051 21.9894C35.3271 21.7982 35.5446 21.4443 35.7372 20.8278L35.7377 20.8263C36.5507 18.2536 36.3408 14.902 35.1852 12.2767C34.9622 11.7749 34.7355 11.2627 34.6873 11.1376C34.6641 11.079 34.6251 10.9506 34.671 10.7958C34.7301 10.597 34.8831 10.4963 34.9944 10.4572C35.0897 10.4237 35.1728 10.4256 35.2099 10.4276C35.2544 10.4301 35.2933 10.4372 35.3212 10.4433C35.4224 10.4654 35.5389 10.5112 35.6408 10.5548C35.8607 10.6489 36.1614 10.799 36.4851 10.9719C37.1328 11.318 37.9253 11.7837 38.4386 12.1442L38.4389 12.1445C41.4537 14.2655 43.6672 16.7763 45.2925 19.9313L45.2927 19.9316C48.4789 26.125 48.5536 33.3289 45.4695 39.4259ZM45.4695 39.4259C45.4698 39.4255 45.47 39.425 45.4703 39.4245L45.0231 39.2009L45.4692 39.4266C45.4693 39.4264 45.4694 39.4262 45.4695 39.4259ZM17.8192 48.4979C17.8281 48.5006 17.8271 48.4997 17.8183 48.4976C17.8186 48.4977 17.8189 48.4978 17.8192 48.4979ZM33.3827 51.4571C33.1697 51.4547 32.9491 51.4522 32.7208 51.4495C32.7206 51.4495 32.7204 51.4495 32.7202 51.4495L32.4147 51.4465C29.1341 51.4138 27.4503 51.397 26.3914 51.2834C25.8325 51.2234 25.4273 51.1349 25.0418 50.9971C24.6902 50.8714 24.3651 50.7075 23.9806 50.5138C23.9548 50.5008 23.9289 50.4877 23.9026 50.4745L23.9019 50.4742C21.5445 49.2831 19.5682 46.8691 19.0539 44.5231L19.0538 44.5229L18.9721 44.1495L18.6695 42.7659L19.7737 43.6529L20.4854 44.2246L20.4854 44.2246L20.4887 44.2272C21.5317 45.0796 22.8114 45.8082 24.0134 46.2311L24.0134 46.2311L24.018 46.2328C24.9697 46.5784 25.5696 46.7546 26.7338 46.8505C27.929 46.9491 29.7012 46.9611 32.9944 46.9611C35.8234 46.9611 37.281 46.9581 38.0888 46.9279C38.4943 46.9128 38.7107 46.8914 38.8449 46.8663C38.958 46.8451 39.0107 46.8223 39.0927 46.7814C39.3605 46.645 39.4979 46.4995 39.5889 46.278C39.6943 46.0216 39.7512 45.6288 39.7512 44.9644V43.856V42.8866L40.5411 43.4486L44.2629 46.0971L44.2636 46.0976C45.286 46.8278 46.213 47.5004 46.8823 47.9954C47.2165 48.2426 47.4888 48.4472 47.6772 48.5932C47.7705 48.6655 47.8479 48.7271 47.9031 48.7736C47.9291 48.7956 47.9591 48.8217 47.9851 48.8475C47.9957 48.8579 48.0215 48.8838 48.0471 48.9183C48.0578 48.9328 48.0881 48.9744 48.1121 49.0343L48.1122 49.0346C48.1244 49.065 48.2108 49.2803 48.0642 49.5002C48.0408 49.5352 48.0193 49.5585 48.0136 49.5646L48.0129 49.5653C48.0001 49.5792 47.9887 49.5901 47.9818 49.5966C47.9675 49.6099 47.9534 49.622 47.9428 49.6308C47.9206 49.6494 47.8932 49.6711 47.8637 49.6939C47.8037 49.7405 47.7202 49.8035 47.6183 49.8793C47.4137 50.0315 47.126 50.2419 46.7839 50.4903C46.0993 50.9873 45.1918 51.6396 44.2842 52.2883C43.3765 52.9369 42.4676 53.5827 41.7801 54.0665C41.4366 54.3083 41.1471 54.5104 40.9404 54.6526C40.8375 54.7234 40.7527 54.7808 40.6913 54.8213C40.6613 54.8411 40.6327 54.8595 40.6089 54.874C40.5978 54.8807 40.5812 54.8906 40.563 54.9001C40.5546 54.9046 40.5376 54.9133 40.5161 54.9222C40.5054 54.9267 40.4866 54.9341 40.4625 54.9411C40.4452 54.9462 40.3917 54.9613 40.3212 54.9613C40.0853 54.9613 39.9528 54.8092 39.9129 54.756C39.8665 54.6942 39.8437 54.635 39.8343 54.6089C39.8134 54.5506 39.8029 54.4934 39.7971 54.458C39.7843 54.379 39.7758 54.2813 39.7697 54.1812C39.7571 53.9758 39.7512 53.7019 39.7512 53.4113C39.7512 52.592 39.7011 52.371 39.5736 52.1239L39.5718 52.1205L39.5574 52.0921C39.4318 51.844 39.4124 51.8057 39.365 51.767C39.3258 51.7351 39.2101 51.666 38.7887 51.6117C37.9985 51.5098 36.4904 51.4926 33.3827 51.4571Z" stroke="url(#paint0_linear_1_3751)"/>
<defs>
<filter id="filter0_f_1_3751" x="8" y="9" width="36" height="42" filterUnits="userSpaceOnUse" color-interpolation-filters="sRGB">
<feFlood flood-opacity="0" result="BackgroundImageFix"/>
<feBlend mode="normal" in="SourceGraphic" in2="BackgroundImageFix" result="shape"/>
<feGaussianBlur stdDeviation="5" result="effect1_foregroundBlur_1_3751"/>
</filter>
<linearGradient id="paint0_linear_1_3751" x1="1.41405e-07" y1="12.0448" x2="56.479" y2="12.0448" gradientUnits="userSpaceOnUse">
<stop stop-color="#6096FD"/>
<stop offset="1" stop-color="#FA798D"/>
</linearGradient>
</defs>
</svg>
