<svg width="50" height="50" viewBox="0 0 50 52" fill="none" xmlns="http://www.w3.org/2000/svg">
<path d="M23.4896 2.0218C20.4479 2.45993 18.3333 3.22144 16.1354 4.68186C14.8229 5.55811 12.7604 7.62357 11.8854 8.93795C10.6562 10.7948 9.82292 12.8602 9.41667 15.0509C9.13542 16.5635 9.15625 19.3591 9.45833 20.7883C9.58333 21.3516 9.66667 21.8314 9.65625 21.8419C9.64583 21.8523 8.30208 22.2904 6.67708 22.812C5.04167 23.344 3.65625 23.8134 3.58333 23.876C3.42708 24.0012 0 34.245 0 34.5684C0 34.9961 0.34375 35.2256 1.66667 35.695C2.38542 35.9454 3.05208 36.1853 3.15625 36.227C3.32292 36.3001 3.33333 36.5817 3.33333 40.1389C3.33333 43.6439 3.35417 43.9986 3.52083 44.1968C3.64583 44.3428 6.92708 45.5737 14.1667 48.1816C19.9271 50.2575 24.75 51.9788 24.8958 51.9996C25.2812 52.0622 46.25 44.4784 46.4896 44.1968C46.6458 43.9986 46.6667 43.6439 46.6667 40.1284C46.6667 38.0108 46.6771 36.2792 46.6979 36.2792C46.7188 36.2792 47.3854 36.0393 48.1771 35.7576C49.6979 35.2152 50 35.0065 50 34.5162C50 34.1511 46.6771 24.1785 46.4792 23.9386C46.3854 23.8343 45.3125 23.4379 44.0208 23.0206C39.9271 21.7167 40.3854 21.9044 40.4479 21.5289C40.8021 19.2757 40.8542 18.6289 40.7917 17.2415C40.625 13.2149 39.1458 9.73075 36.4167 6.88293C33.3958 3.75344 29.7188 2.11568 25.4167 2.01137C24.5312 1.99051 23.6667 2.00094 23.4896 2.0218ZM27.5938 3.88906C31.9375 4.72359 35.6146 7.48796 37.6146 11.4102C40.0625 16.2401 39.5208 22.1026 36.2292 26.4109C35.6771 27.1307 35.6667 27.1411 34.6875 27.4749C34.1458 27.6523 32.8854 28.0904 31.9062 28.4346L30.1042 29.0605L29.8333 28.4451C29.6771 28.1112 29.5 27.8296 29.4167 27.8296C29.3438 27.8296 29.0625 27.9235 28.7812 28.0487C28.5104 28.1634 27.9167 28.3512 27.4583 28.4555C27.0104 28.5702 26.6146 28.6745 26.5938 28.7058C26.5625 28.7371 26.5938 29.071 26.6562 29.4569C26.7292 29.8429 26.7396 30.1871 26.6979 30.2289C26.6562 30.2706 26.2604 30.4271 25.8229 30.5731L25.0208 30.8339L24.125 30.5209C23.4271 30.2706 23.2396 30.1663 23.2708 30.0307C23.3021 29.9368 23.3542 29.5925 23.3958 29.2692C23.4583 28.7058 23.4479 28.6745 23.2188 28.6224C22.1562 28.4033 21.7396 28.2886 21.1667 28.0799L20.5208 27.84L20.2083 28.4555L19.8958 29.071L18.2604 28.4868C17.3542 28.1738 16.1042 27.7357 15.4688 27.5271L14.3229 27.1307L13.7708 26.4109C10.8021 22.5303 10.0521 17.4084 11.7812 12.8081C13.625 7.89479 18.0833 4.40021 23.3542 3.73258C24.375 3.6074 26.5208 3.69086 27.5938 3.88906ZM10.4583 24.0742C10.5625 24.335 10.8333 24.8879 11.0625 25.3156C11.2917 25.7433 11.4167 26.0666 11.3438 26.0354C11.2604 26.0041 10.2708 25.6702 9.14583 25.2738C8.01042 24.8879 7.08333 24.5332 7.08333 24.4915C7.08333 24.3976 10.1458 23.4587 10.2188 23.5422C10.25 23.5735 10.3646 23.8134 10.4583 24.0742ZM41.5104 23.9803C42.2812 24.2307 42.9167 24.4602 42.9167 24.4915C42.9167 24.5541 38.7812 26.0562 38.6146 26.0562C38.5833 26.0562 38.75 25.6702 39 25.1904C39.2396 24.721 39.5208 24.1264 39.625 23.8864C39.7396 23.5631 39.8438 23.4483 39.9479 23.49C40.0312 23.5213 40.7396 23.7404 41.5104 23.9803ZM8.92708 27.0368C11.1458 27.8087 15.4271 29.29 18.4271 30.3227C21.4271 31.3555 23.9062 32.2317 23.9271 32.2526C23.9792 32.3047 21.2083 40.7439 21.1146 40.8274C21.0625 40.89 2.17708 34.1094 2.04167 33.9842C1.94792 33.8904 4.65625 25.639 4.79167 25.639C4.83333 25.639 6.69792 26.2648 8.92708 27.0368ZM46.6562 29.7386C47.4062 31.9814 48.0208 33.8799 48.0208 33.9321C48.0208 33.9947 47.5417 34.2137 46.9583 34.4224C46.3646 34.631 42.1354 36.154 37.5521 37.8022C32.9688 39.44 29.1458 40.8169 29.0521 40.8378C28.9062 40.8795 28.625 40.1389 27.4479 36.5921C26.6667 34.2346 26.0417 32.2943 26.0521 32.2735C26.1042 32.2317 45.1354 25.6598 45.2292 25.6494C45.2604 25.639 45.9062 27.4853 46.6562 29.7386ZM13.4375 39.9407C17.875 41.5367 21.6042 42.8511 21.7292 42.8511C22.2188 42.8511 22.375 42.5486 23.2708 39.8781L24.1458 37.2702L24.1562 43.623L24.1667 49.9655L23.9375 49.9029C23.8021 49.8716 19.5 48.3277 14.375 46.4709L5.05208 43.1015L5.02083 39.9928C5 37.0511 5.01042 36.8842 5.17708 36.9572C5.28125 36.9885 9 38.3342 13.4375 39.9407ZM44.9271 43.0702C44.8333 43.1536 26.0625 49.9446 25.9167 49.9446C25.875 49.9446 25.8333 47.0968 25.8438 43.6022L25.8542 37.2702L26.6771 39.8259C27.5521 42.4964 27.7396 42.8511 28.2708 42.8511C28.4062 42.8511 32.2083 41.5159 36.7292 39.8885L44.9479 36.9259L44.9792 39.9615C44.9896 41.6306 44.9688 43.0284 44.9271 43.0702Z" fill="url(#paint0_linear_33_2)"/>
<path d="M23.8659 5.37012L23.1992 5.41184L23.2721 6.03774C23.3867 7.22694 23.2305 7.12263 24.9805 7.10176L26.5117 7.09133L26.6263 6.31939C26.6992 5.90213 26.7201 5.52659 26.6784 5.4953C26.5951 5.40141 24.6888 5.31796 23.8659 5.37012Z" fill="url(#paint1_linear_33_2)"/>
<path d="M18.8424 6.99779C18.4154 7.24815 17.7695 7.66541 17.4154 7.94706L16.7695 8.43735L17.3008 9.06325C17.6029 9.39706 17.8529 9.67871 17.8737 9.67871C17.8945 9.67871 18.207 9.44922 18.582 9.17799C18.9466 8.89634 19.5195 8.53123 19.832 8.36433C20.1549 8.19742 20.4154 8.03052 20.4154 7.97836C20.4154 7.81145 19.8008 6.54923 19.7174 6.54923C19.6654 6.54923 19.2799 6.74743 18.8424 6.99779Z" fill="url(#paint2_linear_33_2)"/>
<path d="M29.8034 7.23838C29.6263 7.61392 29.4805 7.94773 29.4805 7.95816C29.4805 7.97903 29.793 8.16679 30.1784 8.37543C30.5742 8.59449 31.1576 8.97003 31.4805 9.22039L32.0742 9.66895L32.5951 9.06391C32.8867 8.7301 33.1263 8.42758 33.1263 8.39629C33.1263 8.20852 30.543 6.5499 30.2409 6.5499C30.1784 6.5499 29.9805 6.86284 29.8034 7.23838Z" fill="url(#paint3_linear_33_2)"/>
<path d="M14.0425 11.848C13.5634 12.7242 13.0009 14.1533 13.0634 14.3203C13.1259 14.4767 14.4696 14.8418 14.5738 14.7271C14.6155 14.6749 14.7405 14.3933 14.8446 14.1116C14.9384 13.8195 15.2092 13.2354 15.428 12.8181C15.6467 12.3904 15.8134 12.0253 15.803 12.0253C15.105 11.5454 14.48 11.1386 14.4592 11.1386C14.4384 11.1386 14.2613 11.4516 14.0425 11.848Z" fill="url(#paint4_linear_33_2)"/>
<path d="M34.7915 11.5156C34.479 11.7346 34.1978 11.9224 34.1665 11.9433C34.1457 11.9641 34.2603 12.2249 34.4269 12.5274C34.5936 12.83 34.8748 13.4454 35.0623 13.9044C35.2394 14.3634 35.4269 14.7285 35.479 14.7285C35.5311 14.7181 35.8957 14.6346 36.2811 14.5303C37.1144 14.3113 37.104 14.3843 36.479 12.9343C36.0728 11.9954 35.5728 11.14 35.4373 11.14C35.3957 11.14 35.104 11.3069 34.7915 11.5156Z" fill="url(#paint5_linear_33_2)"/>
<path d="M35.7912 18.6713C35.7495 19.1512 35.6557 19.8396 35.562 20.2047C35.4787 20.5803 35.4474 20.9141 35.4891 20.9454C35.6037 21.0497 36.9682 21.4044 37.0203 21.3522C37.1245 21.2479 37.4162 19.5476 37.4682 18.7235L37.5307 17.8159H36.6974H35.8641L35.7912 18.6713Z" fill="url(#paint6_linear_33_2)"/>
<path d="M12.5312 18.7751C12.5833 19.547 12.8646 21.1952 12.9792 21.3725C13.0104 21.4351 14.4375 21.0804 14.5625 20.9866C14.5833 20.9761 14.5312 20.6423 14.4479 20.2459C14.3542 19.8599 14.25 19.1715 14.2083 18.7229L14.1354 17.9197H13.3021H12.4688L12.5312 18.7751Z" fill="url(#paint7_linear_33_2)"/>
<path d="M15.2619 24.1787C14.9181 24.4082 14.5952 24.6064 14.5327 24.6273C14.3869 24.6794 15.1994 25.733 16.0639 26.6197L16.7723 27.3604L17.3452 26.7449L17.9181 26.1294L17.1889 25.3679C16.7931 24.9507 16.3452 24.4186 16.1889 24.1787C16.0327 23.9492 15.9077 23.7614 15.8973 23.7614C15.8973 23.7614 15.6056 23.9492 15.2619 24.1787Z" fill="url(#paint8_linear_33_2)"/>
<path d="M33.8138 24.1787C33.6576 24.4186 33.2096 24.9402 32.8138 25.3575L32.1055 26.1086L32.668 26.7345L33.2305 27.3604L34.0013 26.5675C34.418 26.1294 34.9388 25.5244 35.1367 25.2219L35.5117 24.6586L34.8451 24.21C34.4805 23.9596 34.1576 23.7614 34.1367 23.7614C34.1055 23.7614 33.9701 23.9492 33.8138 24.1787Z" fill="url(#paint9_linear_33_2)"/>
<path d="M22.5146 11.0297C22.1525 11.1149 21.7336 11.4486 21.5561 11.8108C21.4425 12.0167 21.4141 12.2226 21.4141 12.7125V13.3515L20.7964 13.3799C19.9372 13.4225 19.4828 13.671 19.1917 14.2532C18.9219 14.7928 18.9574 15.368 19.284 15.865C19.5538 16.2768 19.9869 16.5111 20.5265 16.5608L20.9526 16.5963L20.9739 19.2021L20.9881 21.815H20.697C20.0082 21.815 19.4544 22.1629 19.1704 22.7664C19.0781 22.9652 19 23.2421 19 23.3841C19 23.9592 19.3763 24.577 19.8875 24.8539C20.0153 24.9249 20.3561 24.9817 20.7396 25.0101L21.3786 25.0456L21.4141 25.7698C21.4496 26.423 21.4709 26.5153 21.6626 26.7922C22.3229 27.7224 23.7145 27.5804 24.1903 26.5366C24.2826 26.3307 24.3252 26.0822 24.3252 25.6278V25.0101H24.7157H25.1062V25.6278C25.1062 26.3591 25.234 26.707 25.6245 27.0478C26.299 27.6372 27.3428 27.4951 27.8114 26.7354C27.9534 26.5153 27.9889 26.3378 28.0173 25.7627L28.0528 25.0598L28.5498 24.9391C29.2953 24.7616 29.8349 24.4634 30.3675 23.945C31.5177 22.8161 31.8017 21.1617 31.1059 19.7133L30.8574 19.195L31.0704 18.7761C31.7307 17.4767 31.5958 15.9999 30.7083 14.8426C30.5379 14.6153 30.2184 14.2958 30.0053 14.1396C29.4586 13.7278 29.1462 13.6 28.2161 13.4012L28.0173 13.3657V12.7196C28.0173 11.9741 27.925 11.7185 27.5203 11.3492C26.8812 10.7741 25.8801 10.909 25.3547 11.6475C25.163 11.9244 25.1417 12.0096 25.1204 12.6557L25.092 13.3657H24.7157H24.3394L24.311 12.6628C24.2897 12.0096 24.2755 11.9315 24.0767 11.6475C23.7145 11.1362 23.1039 10.8948 22.5146 11.0297ZM23.2175 12.1729C23.3027 12.2936 23.3311 12.5279 23.3311 13.1598C23.3311 13.8911 23.3453 14.0047 23.4802 14.1751L23.6222 14.3597H24.7015C26.1286 14.3597 26.1002 14.381 26.1002 13.1882C26.1002 12.1942 26.1712 12.0167 26.5546 12.0167C26.9523 12.0167 27.0091 12.1516 27.0375 13.174C27.0659 14.2887 27.0872 14.3171 27.9108 14.381C28.9474 14.4591 29.7994 15.0414 30.2397 15.9786C30.4456 16.4046 30.4669 16.5253 30.4669 17.0933C30.4669 17.6329 30.4385 17.7962 30.2752 18.1371C30.1687 18.3643 30.0053 18.6554 29.9059 18.7832C29.6574 19.1027 29.6716 19.3015 29.9698 19.7133C30.3249 20.2103 30.4669 20.686 30.4598 21.3535C30.4598 22.0919 30.261 22.6031 29.7852 23.1285C29.3095 23.6397 28.6918 23.9521 28.0386 23.9947C27.0943 24.0586 27.0233 24.158 27.0233 25.4077C27.0233 26.1532 27.0162 26.2171 26.867 26.3165C26.6469 26.4727 26.4552 26.4585 26.2635 26.2739C26.1073 26.1319 26.1002 26.068 26.1002 25.2515C26.1002 24.016 26.1428 24.0515 24.7157 24.0515C23.2885 24.0515 23.3311 24.0089 23.3311 25.2657C23.3311 26.0751 23.3169 26.1532 23.1749 26.2881C22.9974 26.4514 22.7773 26.4727 22.5785 26.3307C22.4578 26.2384 22.4365 26.1106 22.4081 25.2657C22.3655 24.0231 22.3939 24.0586 21.2863 24.0302C20.3916 24.0089 20.1928 23.9521 20.0721 23.6823C19.9443 23.4054 19.9798 23.235 20.1999 23.0149C20.3987 22.8161 20.4413 22.809 21.0236 22.809C21.5774 22.809 21.6484 22.7948 21.8046 22.6315L21.9821 22.4611V19.266C21.9821 17.4696 21.9537 15.9999 21.9182 15.9005C21.833 15.6733 21.5135 15.5668 20.91 15.5668C20.3277 15.5668 20.2283 15.5313 20.1005 15.2757C19.9443 14.9775 19.9727 14.7999 20.1999 14.5656C20.4058 14.3597 20.4129 14.3597 21.265 14.3597C22.0957 14.3597 22.117 14.3597 22.259 14.1751C22.3939 14.0047 22.4081 13.8911 22.4081 13.1314C22.4081 12.4356 22.4294 12.251 22.5288 12.1445C22.6921 11.9599 23.0826 11.9741 23.2175 12.1729Z" fill="#FFB32C"/>
<path d="M23.5019 15.6656C23.3812 15.7224 23.2605 15.8147 23.2321 15.8857C23.2108 15.9496 23.1895 16.5105 23.1895 17.1282C23.1895 18.1222 23.2037 18.2642 23.3244 18.4134L23.4593 18.5838L25.426 18.6051C26.6686 18.6193 27.5348 18.598 27.7691 18.5483C28.8909 18.3139 29.3595 16.9649 28.6069 16.1342C28.1454 15.6159 28.0886 15.6017 25.781 15.5804C24.148 15.5662 23.6794 15.5875 23.5019 15.6656ZM27.6413 16.6312C28.0957 16.7945 28.0957 17.3909 27.6484 17.5471C27.5135 17.5968 26.768 17.6252 25.8094 17.6252H24.1835V17.1424C24.1835 16.8726 24.2048 16.6312 24.2332 16.6099C24.3113 16.5318 27.407 16.5531 27.6413 16.6312Z" fill="#FFB32C"/>
<path d="M23.3386 20.0111C23.2037 20.1886 23.1895 20.288 23.1895 21.3317C23.1895 22.4323 23.1966 22.4607 23.367 22.6311L23.5374 22.8086H25.6248C27.0165 22.8086 27.7904 22.7802 27.9537 22.7234C28.33 22.6027 28.5714 22.4039 28.7773 22.0489C29.1607 21.3885 28.9619 20.5365 28.3158 20.075L28.0034 19.862L25.7455 19.8407L23.4877 19.8194L23.3386 20.0111ZM27.8117 20.9483C27.9182 21.0406 27.9679 21.1613 27.9679 21.3175C27.9679 21.4738 27.9182 21.5945 27.8117 21.6868C27.6626 21.8004 27.4922 21.8146 25.9159 21.8146H24.1835V21.3175V20.8205H25.9159C27.4922 20.8205 27.6626 20.8347 27.8117 20.9483Z" fill="#FFB32C"/>
<g filter="url(#filter0_f_33_2)">
<path d="M22.5146 11.0297C22.1525 11.1149 21.7336 11.4486 21.5561 11.8108C21.4425 12.0167 21.4141 12.2226 21.4141 12.7125V13.3515L20.7964 13.3799C19.9372 13.4225 19.4828 13.671 19.1917 14.2532C18.9219 14.7928 18.9574 15.368 19.284 15.865C19.5538 16.2768 19.9869 16.5111 20.5265 16.5608L20.9526 16.5963L20.9739 19.2021L20.9881 21.815H20.697C20.0082 21.815 19.4544 22.1629 19.1704 22.7664C19.0781 22.9652 19 23.2421 19 23.3841C19 23.9592 19.3763 24.577 19.8875 24.8539C20.0153 24.9249 20.3561 24.9817 20.7396 25.0101L21.3786 25.0456L21.4141 25.7698C21.4496 26.423 21.4709 26.5153 21.6626 26.7922C22.3229 27.7224 23.7145 27.5804 24.1903 26.5366C24.2826 26.3307 24.3252 26.0822 24.3252 25.6278V25.0101H24.7157H25.1062V25.6278C25.1062 26.3591 25.234 26.707 25.6245 27.0478C26.299 27.6372 27.3428 27.4951 27.8114 26.7354C27.9534 26.5153 27.9889 26.3378 28.0173 25.7627L28.0528 25.0598L28.5498 24.9391C29.2953 24.7616 29.8349 24.4634 30.3675 23.945C31.5177 22.8161 31.8017 21.1617 31.1059 19.7133L30.8574 19.195L31.0704 18.7761C31.7307 17.4767 31.5958 15.9999 30.7083 14.8426C30.5379 14.6153 30.2184 14.2958 30.0053 14.1396C29.4586 13.7278 29.1462 13.6 28.2161 13.4012L28.0173 13.3657V12.7196C28.0173 11.9741 27.925 11.7185 27.5203 11.3492C26.8812 10.7741 25.8801 10.909 25.3547 11.6475C25.163 11.9244 25.1417 12.0096 25.1204 12.6557L25.092 13.3657H24.7157H24.3394L24.311 12.6628C24.2897 12.0096 24.2755 11.9315 24.0767 11.6475C23.7145 11.1362 23.1039 10.8948 22.5146 11.0297ZM23.2175 12.1729C23.3027 12.2936 23.3311 12.5279 23.3311 13.1598C23.3311 13.8911 23.3453 14.0047 23.4802 14.1751L23.6222 14.3597H24.7015C26.1286 14.3597 26.1002 14.381 26.1002 13.1882C26.1002 12.1942 26.1712 12.0167 26.5546 12.0167C26.9523 12.0167 27.0091 12.1516 27.0375 13.174C27.0659 14.2887 27.0872 14.3171 27.9108 14.381C28.9474 14.4591 29.7994 15.0414 30.2397 15.9786C30.4456 16.4046 30.4669 16.5253 30.4669 17.0933C30.4669 17.6329 30.4385 17.7962 30.2752 18.1371C30.1687 18.3643 30.0053 18.6554 29.9059 18.7832C29.6574 19.1027 29.6716 19.3015 29.9698 19.7133C30.3249 20.2103 30.4669 20.686 30.4598 21.3535C30.4598 22.0919 30.261 22.6031 29.7852 23.1285C29.3095 23.6397 28.6918 23.9521 28.0386 23.9947C27.0943 24.0586 27.0233 24.158 27.0233 25.4077C27.0233 26.1532 27.0162 26.2171 26.867 26.3165C26.6469 26.4727 26.4552 26.4585 26.2635 26.2739C26.1073 26.1319 26.1002 26.068 26.1002 25.2515C26.1002 24.016 26.1428 24.0515 24.7157 24.0515C23.2885 24.0515 23.3311 24.0089 23.3311 25.2657C23.3311 26.0751 23.3169 26.1532 23.1749 26.2881C22.9974 26.4514 22.7773 26.4727 22.5785 26.3307C22.4578 26.2384 22.4365 26.1106 22.4081 25.2657C22.3655 24.0231 22.3939 24.0586 21.2863 24.0302C20.3916 24.0089 20.1928 23.9521 20.0721 23.6823C19.9443 23.4054 19.9798 23.235 20.1999 23.0149C20.3987 22.8161 20.4413 22.809 21.0236 22.809C21.5774 22.809 21.6484 22.7948 21.8046 22.6315L21.9821 22.4611V19.266C21.9821 17.4696 21.9537 15.9999 21.9182 15.9005C21.833 15.6733 21.5135 15.5668 20.91 15.5668C20.3277 15.5668 20.2283 15.5313 20.1005 15.2757C19.9443 14.9775 19.9727 14.7999 20.1999 14.5656C20.4058 14.3597 20.4129 14.3597 21.265 14.3597C22.0957 14.3597 22.117 14.3597 22.259 14.1751C22.3939 14.0047 22.4081 13.8911 22.4081 13.1314C22.4081 12.4356 22.4294 12.251 22.5288 12.1445C22.6921 11.9599 23.0826 11.9741 23.2175 12.1729Z" fill="#FFB32C"/>
<path d="M23.5019 15.6656C23.3812 15.7224 23.2605 15.8147 23.2321 15.8857C23.2108 15.9496 23.1895 16.5105 23.1895 17.1282C23.1895 18.1222 23.2037 18.2642 23.3244 18.4134L23.4593 18.5838L25.426 18.6051C26.6686 18.6193 27.5348 18.598 27.7691 18.5483C28.8909 18.3139 29.3595 16.9649 28.6069 16.1342C28.1454 15.6159 28.0886 15.6017 25.781 15.5804C24.148 15.5662 23.6794 15.5875 23.5019 15.6656ZM27.6413 16.6312C28.0957 16.7945 28.0957 17.3909 27.6484 17.5471C27.5135 17.5968 26.768 17.6252 25.8094 17.6252H24.1835V17.1424C24.1835 16.8726 24.2048 16.6312 24.2332 16.6099C24.3113 16.5318 27.407 16.5531 27.6413 16.6312Z" fill="#FFB32C"/>
<path d="M23.3386 20.0111C23.2037 20.1886 23.1895 20.288 23.1895 21.3317C23.1895 22.4323 23.1966 22.4607 23.367 22.6311L23.5374 22.8086H25.6248C27.0165 22.8086 27.7904 22.7802 27.9537 22.7234C28.33 22.6027 28.5714 22.4039 28.7773 22.0489C29.1607 21.3885 28.9619 20.5365 28.3158 20.075L28.0034 19.862L25.7455 19.8407L23.4877 19.8194L23.3386 20.0111ZM27.8117 20.9483C27.9182 21.0406 27.9679 21.1613 27.9679 21.3175C27.9679 21.4738 27.9182 21.5945 27.8117 21.6868C27.6626 21.8004 27.4922 21.8146 25.9159 21.8146H24.1835V21.3175V20.8205H25.9159C27.4922 20.8205 27.6626 20.8347 27.8117 20.9483Z" fill="#FFB32C"/>
</g>
<defs>
<filter id="filter0_f_33_2" x="9" y="0.992432" width="32.4847" height="36.4197" filterUnits="userSpaceOnUse" color-interpolation-filters="sRGB">
<feFlood flood-opacity="0" result="BackgroundImageFix"/>
<feBlend mode="normal" in="SourceGraphic" in2="BackgroundImageFix" result="shape"/>
<feGaussianBlur stdDeviation="5" result="effect1_foregroundBlur_33_2"/>
</filter>
<linearGradient id="paint0_linear_33_2" x1="1.34668e-07" y1="12.0877" x2="53.7879" y2="12.0877" gradientUnits="userSpaceOnUse">
<stop stop-color="#6096FD"/>
<stop offset="1" stop-color="#FA798D"/>
</linearGradient>
<linearGradient id="paint1_linear_33_2" x1="23.1992" y1="5.70897" x2="26.9648" y2="5.70897" gradientUnits="userSpaceOnUse">
<stop stop-color="#6096FD"/>
<stop offset="1" stop-color="#FA798D"/>
</linearGradient>
<linearGradient id="paint2_linear_33_2" x1="16.7695" y1="7.18062" x2="20.6916" y2="7.18062" gradientUnits="userSpaceOnUse">
<stop stop-color="#6096FD"/>
<stop offset="1" stop-color="#FA798D"/>
</linearGradient>
<linearGradient id="paint3_linear_33_2" x1="29.4805" y1="7.17918" x2="33.4025" y2="7.17918" gradientUnits="userSpaceOnUse">
<stop stop-color="#6096FD"/>
<stop offset="1" stop-color="#FA798D"/>
</linearGradient>
<linearGradient id="paint4_linear_33_2" x1="13.0586" y1="11.867" x2="16.0114" y2="11.867" gradientUnits="userSpaceOnUse">
<stop stop-color="#6096FD"/>
<stop offset="1" stop-color="#FA798D"/>
</linearGradient>
<linearGradient id="paint5_linear_33_2" x1="34.1641" y1="11.864" x2="37.1387" y2="11.864" gradientUnits="userSpaceOnUse">
<stop stop-color="#6096FD"/>
<stop offset="1" stop-color="#FA798D"/>
</linearGradient>
<linearGradient id="paint6_linear_33_2" x1="35.4707" y1="18.5304" x2="37.6868" y2="18.5304" gradientUnits="userSpaceOnUse">
<stop stop-color="#6096FD"/>
<stop offset="1" stop-color="#FA798D"/>
</linearGradient>
<linearGradient id="paint7_linear_33_2" x1="12.4688" y1="18.6178" x2="14.7261" y2="18.6178" gradientUnits="userSpaceOnUse">
<stop stop-color="#6096FD"/>
<stop offset="1" stop-color="#FA798D"/>
</linearGradient>
<linearGradient id="paint8_linear_33_2" x1="14.5156" y1="24.4875" x2="18.1759" y2="24.4875" gradientUnits="userSpaceOnUse">
<stop stop-color="#6096FD"/>
<stop offset="1" stop-color="#FA798D"/>
</linearGradient>
<linearGradient id="paint9_linear_33_2" x1="32.1055" y1="24.4875" x2="35.7698" y2="24.4875" gradientUnits="userSpaceOnUse">
<stop stop-color="#6096FD"/>
<stop offset="1" stop-color="#FA798D"/>
</linearGradient>
</defs>
</svg>
