<svg width="51" height="63" viewBox="0 0 51 63" fill="none" xmlns="http://www.w3.org/2000/svg">
<path d="M24.5362 1.46907L24.5366 1.46876C24.8414 1.22837 25.1232 1.0106 25.3319 0.853848C25.3553 0.836269 25.3776 0.819576 25.3988 0.803799C25.42 0.819611 25.4423 0.836308 25.4656 0.853848C25.6751 1.01124 25.9596 1.22939 26.2689 1.46994C26.2693 1.47025 26.2697 1.47055 26.2701 1.47086L26.577 1.07618C29.6184 3.46086 32.4005 4.84328 36.3577 5.93193L24.5362 1.46907ZM24.5362 1.46907C20.9782 4.26969 17.1891 5.96743 12.3335 6.94907L12.3322 6.94933C9.00458 7.61311 6.99326 7.80565 3.05107 7.81435L0.5 7.82158V20.8016C0.5 35.0325 0.503081 35.0473 0.876776 36.8493L0.878274 36.8566C0.87829 36.8566 0.878306 36.8567 0.878323 36.8568C2.15174 42.9621 6.63354 49.4979 13.6682 55.3402C17.5036 58.522 22.0184 61.3281 24.6801 62.2237L24.6816 62.2242L25.4098 62.4717L24.5362 1.46907ZM26.6624 7.07624L26.6615 7.0757C26.3991 6.91824 26.1465 6.77193 25.9505 6.6649C25.8534 6.61192 25.7642 6.56523 25.692 6.53114C25.657 6.5146 25.617 6.4967 25.5777 6.48228C25.5586 6.47527 25.5298 6.46542 25.4961 6.45752L25.4947 6.45718C25.4777 6.45316 25.4151 6.43839 25.334 6.44393C25.2728 6.44793 25.2264 6.4617 25.2118 6.46603L25.2113 6.46616C25.1845 6.47412 25.1611 6.48303 25.1444 6.48977C25.1105 6.50349 25.0755 6.51995 25.0438 6.53561C24.979 6.5677 24.8994 6.61074 24.8126 6.65978C24.6377 6.75858 24.4145 6.89256 24.1842 7.0387M26.6624 7.07624L24.4516 7.46124M26.6624 7.07624C31.4094 9.93806 37.7032 11.7264 44.421 12.1029L44.4214 12.1029L45.4841 12.1634L45.9572 12.1903L45.9557 12.6641L45.9212 23.8182L45.9212 23.8186L45.8952 34.9726L45.8951 35.0274L45.8831 35.0809L45.693 35.9277L45.6925 35.9298C44.5734 40.815 41.3098 45.7289 36.1586 50.4182L36.1577 50.419C33.1001 53.1891 29.7402 55.5995 26.604 57.2467C26.6034 57.2471 26.6027 57.2474 26.6021 57.2477L25.6381 57.7642L25.4047 57.8892L25.1701 57.7664L24.0642 57.1875L24.0633 57.1871C18.8399 54.4397 12.9945 49.4754 9.41661 44.7515L9.41623 44.751C7.27388 41.915 5.77789 38.8706 5.1113 35.9466L5.11048 35.9429L4.9204 35.0788L4.90885 35.0263L4.90872 34.9726L4.8828 23.8186M26.6624 7.07624L4.8828 23.8186M24.1842 7.0387C24.1841 7.03882 24.1839 7.03895 24.1837 7.03907L24.4516 7.46124M24.1842 7.0387C24.1846 7.03848 24.1849 7.03827 24.1853 7.03806L24.4516 7.46124M24.1842 7.0387C19.7284 9.84229 13.1292 11.7262 6.3831 12.1029L6.38257 12.1029L5.31983 12.1634L4.84678 12.1903L4.84824 12.6641L4.8828 23.8182L5.3828 23.817M24.4516 7.46124C19.9069 10.3211 13.2194 12.222 6.41098 12.6021L5.34824 12.6626L5.3828 23.817M5.3828 23.817L4.8828 23.8186M5.3828 23.817L5.40872 34.9714L5.5988 35.8354L4.8828 23.8186M24.2269 1.07618C20.7363 3.82374 17.0211 5.49129 12.2344 6.45898L24.2269 1.07618Z" stroke="url(#paint0_linear_33_4)"/>
<path d="M19.7794 32.1274L17.8001 30.1481L16.0368 31.9114L14.2735 33.6747L18.3955 37.7967L22.5089 41.9101L31.0806 33.3384L39.6437 24.7753L37.8545 22.9861L36.0737 21.2053L29.6193 27.6516L29.6189 27.652L22.8195 34.46L22.466 34.814L22.1122 34.4602L19.7794 32.1274Z" stroke="#FFB32C"/>
<defs>
<linearGradient id="paint0_linear_33_4" x1="1.36833e-07" y1="12.8661" x2="54.6528" y2="12.8661" gradientUnits="userSpaceOnUse">
<stop stop-color="#6096FD"/>
<stop offset="1" stop-color="#FA798D"/>
</linearGradient>
</defs>
</svg>
